<mxfile host="65bd71144e">
    <diagram id="enp_mvEpcB47sDn8GD6P" name="Page-1">
        <mxGraphModel dx="1074" dy="869" grid="1" gridSize="10" guides="1" tooltips="1" connect="1" arrows="1" fold="1" page="1" pageScale="1" pageWidth="827" pageHeight="1169" math="0" shadow="0">
            <root>
                <mxCell id="0"/>
                <mxCell id="1" parent="0"/>
                <mxCell id="2" style="edgeStyle=orthogonalEdgeStyle;curved=1;rounded=0;orthogonalLoop=1;jettySize=auto;html=1;exitX=0.5;exitY=0;exitDx=0;exitDy=0;entryX=0;entryY=0.5;entryDx=0;entryDy=0;fontColor=#B3FF66;strokeColor=#FF8000;" edge="1" parent="1" source="3" target="5">
                    <mxGeometry relative="1" as="geometry">
                        <mxPoint x="380" y="80" as="targetPoint"/>
                    </mxGeometry>
                </mxCell>
                <mxCell id="3" value="" style="shape=image;verticalLabelPosition=bottom;labelBackgroundColor=#ffffff;verticalAlign=top;aspect=fixed;imageAspect=0;image=data:image/svg+xml,PHN2ZyB4bWxucz0iaHR0cDovL3d3dy53My5vcmcvMjAwMC9zdmciIHhtbG5zOnhsaW5rPSJodHRwOi8vd3d3LnczLm9yZy8xOTk5L3hsaW5rIiB2ZXJzaW9uPSIxLjEiIGlkPSJDYXBhXzEiIHg9IjBweCIgeT0iMHB4IiB2aWV3Qm94PSIwLjAwMDMyNDYzNjY5Nzc2OTE2NTA0IDIwLjQ1ODk3Njc0NTYwNTQ3IDUzNS4zNzkwODkzNTU0Njg4IDQ3MS4wODUwMjE5NzI2NTYyNSIgc3R5bGU9ImVuYWJsZS1iYWNrZ3JvdW5kOm5ldyAwIDAgNTEyIDUxMjsiIHhtbDpzcGFjZT0icHJlc2VydmUiIHdpZHRoPSI1MzUuMzc5MDg5MzU1NDY4OCIgaGVpZ2h0PSI0NzEuMDg1MDIxOTcyNjU2MjUiPiYjeGE7PGc+JiN4YTsJPGc+JiN4YTsJCTxwYXRoIHN0eWxlPSJmaWxsOiNGRkZGRkY7IiBkPSJNMjUyLjI1LDQ5MS41NDRjLTQuMzcyLDAtOC42MDItMS45OTQtMTEuMzc5LTUuNTY1bC02Ljc5My04LjczMyAgICBjLTEuMDQyLDAuMDE1LTIuMDY0LDAuMDIzLTMuMDY4LDAuMDIzYy00LjA0NCwwLTguMjgxLTAuMTE0LTEyLjU5NC0wLjMzOWMtMC42MDgtMC4wMzUtMS4xMTQtMC4wNy0xLjU4MS0wLjExNCAgICBjLTEwLjI2LTAuNjAyLTIwLjYyNC0xLjk0OC0zMC44MTItNC4wMDRjLTAuNjEyLTAuMTA3LTEuMjAzLTAuMjI0LTEuODExLTAuMzc0Yy01Ljk4OS0xLjIzNC0xMi4xMy0yLjc4NC0xOC4yOTUtNC42MTkgICAgbC02MC40NzYsMi40NDdjLTAuMTk3LDAuMDA4LTAuMzk0LDAuMDEyLTAuNTkxLDAuMDEyYy03LjMyMywwLTEzLjUyOC01LjUyMi0xNC4zMjEtMTIuODY2bC0zLjM2MS0zMS4xNzYgICAgYy0wLjE4MS0wLjE0OC0wLjM2NC0wLjMwMy0wLjU0Ny0wLjQ2Yy0xLjQ2Ni0xLjIwNi0yLjkyLTIuNDA3LTQuMzU0LTMuNjUyYy0wLjQ0OC0wLjM3OC0xLjAzLTAuODc5LTEuNTgzLTEuMzc3ICAgIGMtNC42Ny00LjA5Ni05LjI4OS04LjUwOC0xMy43NjUtMTMuMTUzYy0yLjA2MiwwLjQ0MS00LjE3NSwwLjY2OC02LjMwMSwwLjY2OGMtMTYuNjgzLDAtMzAuMjU2LTEzLjU3Mi0zMC4yNTYtMzAuMjU2ICAgIGMwLTQuOTUxLDEuMjI1LTkuNzYsMy40NzItMTQuMDRjLTEuMzM5LTIuMjk0LTIuNjM2LTQuNjA4LTMuODg1LTYuOTNjLTAuMjE2LTAuMzgyLTAuNDgxLTAuODgzLTAuNzQ4LTEuNDE4ICAgIGMtMi4yNzgtNC4yODgtNC4zNjEtOC41MzQtNi4xOTMtMTIuNjI1Yy0wLjMyOC0wLjY5Ny0wLjYzNi0xLjM5NS0wLjkzOC0yLjA5OGwtMTIuODEzLTQuOTA5ICAgIGMtNC41NzItMS43NTItNy45NDMtNS43MDUtOC45NDktMTAuNDk3Yy0xLjAwNi00Ljc5MiwwLjQ5LTkuNzY2LDMuOTcxLTEzLjIwOWw1Ljg2NC01LjhjLTEuMjI3LTQuNzI5LTIuMjg3LTkuNDctMy4xNzQtMTQuMTY5ICAgIGMtMC4xNjItMC42NzYtMC4yOTMtMS4zNzQtMC4zOTQtMi4xMDRjLTEuODY3LTEwLjE1OC0zLjAzMy0yMC40NDUtMy40NjctMzAuNTg5Yy0wLjA1Ni0wLjcwNC0wLjA3LTEuMzE2LTAuMDczLTEuNzgzICAgIGMtMC4xMjItMi42NTUtMC4xODMtNS41MTMtMC4xODMtOC43MmMwLTcuNDQyLDAuMzYxLTE0Ljg5LDEuMDcyLTIyLjE0MWMwLjAzNy0wLjU0OCwwLjA5NC0xLjA5MiwwLjE1NS0xLjYxNSAgICBjMC45MzQtOS4wNTUsMi40NDctMTguMTgsNC41MDQtMjcuMTU3Yy0wLjk1OS0xMy44NzItMC40MjktMjguOTY1LDEuNjQ0LTQ3LjI0NmMyLjg1Mi0yNS4xNTcsOC40ODUtNTMuNjU2LDI4LjY1MS03NC4yNjEgICAgYzE5LjkwNC0yMC4zMzgsNDcuOTUtMjYuNzIzLDcyLjc1OS0zMC4yODdjNS44Mi0wLjgzNiwxMS45NjMtMS41NzksMTkuMTUzLTIuMzE0YzYuODc2LTMuMzYzLDEzLjkyMi02LjM4LDIwLjk5LTguOTg4ICAgIGMzMS42OC0xMS43NjMsNjUuOTEtMTYuMjMzLDk5LjM0OC0xMy4yNTdjMS40NjYsMC4xMjUsMi45NywwLjI3Myw0LjU2NSwwLjQ0OGMyLjg0NS0xLjIwNSw1LjkxNi0xLjgzOCw5LjA0OC0xLjgzOCAgICBjNS43MDUsMCwxMS4xNSwyLjExOCwxNS4zNTMsNS43ODdjMC43MTEsMC4xNTUsMS40MjIsMC4zMTMsMi4xMzIsMC40NzVjMC41NzcsMC4xMzUsMS4wNzIsMC4yNTMsMS41MjksMC4zNzYgICAgYzMuODUyLDAuOTAyLDcuNTkzLDEuODksMTEuMTI5LDIuOTM3YzEuNDUyLDAuNDAxLDIuOTAyLDAuODUsNC4zMjUsMS4zMDFjNS4zNjMsMS42NywxMC42NCwzLjUzNCwxNS42Myw1LjUxOSAgICBjMC40NDgsMC4xNzQsMC45NDgsMC4zNzksMS40NzgsMC42MTFjMTAuNjk1LDQuMjk2LDIxLjE1NCw5LjQ3MiwzMS4wODksMTUuMzg0bDEuMTQyLDAuNjZjNC44ODIsMi45NDMsOS41MDMsNS45NjgsMTMuODQ3LDkuMDU2ICAgIGMwLjE4NSwwLjEyNywwLjM2OCwwLjI1NCwwLjU1NCwwLjM4M2MyLjU2Ni00LjA2Niw3LjAyNi02LjYxOCwxMS45MDMtNi43MTJjMC4wOTQtMC4wMDEsMC4xOS0wLjAwMiwwLjI4NC0wLjAwMiAgICBjNS4yOTksMCwxMC4xODMsMi45MTIsMTIuNjk4LDcuNTk3bDI2LjYxLDQ5LjU3OGMzLjQ3Nyw0LjY5Niw2Ljc3Miw5LjUxOCw5LjgwMywxNC4zNDhsMC44NDQsMS4zNTQgICAgYzYuMTY3LDkuOTMxLDExLjYxOSwyMC40NjEsMTYuMTUzLDMxLjIxYzAsMCwwLjQzOSwxLjA0MSwwLjU2OCwxLjM2M2MxLjA4NCwyLjU4NCwyLjE1OCw1LjMyNSwzLjI3OSw4LjM3NiAgICBjMC4zMDMsMC44MjQsMC42LDEuNjQ5LDAuODkxLDIuNDc0QzQ4NS4yMjUsMTg2LjY1NCw1MTIsMjI0LjIxNyw1MTIsMjY2LjQ4OWMwLDQ5LjMyMS0zNi41MzMsOTEuMjE5LTg0LjUyOCw5OC42NjIgICAgYy00LjIyNyw3LjE2Ni04LjgxOCwxNC4wNTktMTMuNjk3LDIwLjU2NGMtMC4zNTIsMC40NzctMC43NjUsMS4wMTItMS4xODksMS41NTVjLTAuMjU4LDAuMzU1LTAuNTI4LDAuNzExLTAuODE2LDEuMDY2ICAgIGMtMC4zMzgsMC40NjEtMC43MDQsMC45MjktMS4wNzIsMS4zODJjLTguNjUzLDExLjA2LTE4LjM4MSwyMS4zNjUtMjguOTI2LDMwLjY0MmMtMC4yNTYsMC4yNDktMC41MTgsMC40ODctMC43OSwwLjcxNSAgICBjLTE5LjA0MiwxNy40OTQtNDIuMjg3LDMwLjY1NC02Ni4yNTEsNDAuMzRjLTEwLjA5NiwzLjk5LTIwLjU0LDcuMjY3LTMwLjk2Nyw5LjcxMWMtMC40NSwwLjEyMi0wLjkwOCwwLjIzMi0xLjM1NiwwLjMzNyAgICBjLTUuMTA5LDEuMTcxLTEwLjI4NCwyLjE2NC0xNS41MTMsMi45NzlsLTAuMjcyLDMuNzRjLTAuNDM2LDUuOTQ5LTQuNDksMTEuMDEzLTEwLjE5OSwxMi43NDIgICAgQzI1NS4wNDcsNDkxLjM0MiwyNTMuNjQxLDQ5MS41NDQsMjUyLjI1LDQ5MS41NDR6Ii8+JiN4YTsJPC9nPiYjeGE7CTxnPiYjeGE7CQk8Zz4mI3hhOwkJCTxnPiYjeGE7CQkJCTxwYXRoIHN0eWxlPSJmaWxsOiNGRkYxRTY7IiBkPSJNNDQ3LjE1NywyNDkuMTEyYzAsMi44MDItMC4wNDYsNS41ODEtMC4xODIsOC4zNmMwLDAuNDEsMCwwLjc5Ny0wLjA0NiwxLjE4NCAgICAgIGMtMC40MSw5Ljk3OC0xLjU0OSwxOS43NTEtMy4zMjYsMjkuMzE4Yy0wLjA0NiwwLjQxLTAuMTE0LDAuODItMC4yMjgsMS4yMDdjLTEuODY4LDEwLjA0Ni00LjQ4OCwxOS44NDEtNy43NDUsMjkuMzE4ICAgICAgYy0wLjExNCwwLjM4Ny0wLjI1MSwwLjc5Ny0wLjQxLDEuMTg1YzAsMC4wNDUtMC4wMjMsMC4wNjgtMC4wNDUsMC4xMTRjLTAuMzg3LDEuMTM5LTAuNzk3LDIuMjc4LTEuMjA3LDMuMzk0ICAgICAgYy0zLjI4MSw4LjkwNy03LjE1MywxNy41MTgtMTEuNTUsMjUuODFjLTAuMjA1LDAuNDEtMC40MSwwLjc5Ny0wLjYzOCwxLjIwN2MtNS4wMzQsOS4zODUtMTAuNzc1LDE4LjM4NC0xNy4xMywyNi44NTggICAgICBjLTAuMzg3LDAuNTI0LTAuNzk3LDEuMDQ4LTEuMjA3LDEuNTcyYy0wLjIwNSwwLjI5Ni0wLjQzMywwLjU5Mi0wLjY4MywwLjg4OGMtMC4yNzMsMC4zODctMC41OTIsMC43OTctMC45MTEsMS4xODUgICAgICBjLTguMjkyLDEwLjYxNS0xNy41NjMsMjAuNDExLTI3LjcsMjkuMjcyYy0wLjAyMywwLjAyMy0wLjAyMywwLjA0NS0wLjA0NiwwLjA0NWMtMC4zODcsMC4zNDItMC43NzUsMC42ODMtMS4xNjIsMS4wMjUgICAgICBjLTAuMDY4LDAuMDY4LTAuMTU5LDAuMTM3LTAuMjI4LDAuMTgyYy05LjA2Nyw3LjgxMy0xOC43OTQsMTQuODUyLTI5LjA5LDIxLjA3MWMtMC4zODcsMC4yMjgtMC43OTcsMC40NTYtMS4xODUsMC42ODMgICAgICBjLTQuNTEsMi42ODgtOS4xMTIsNS4yMTctMTMuODI3LDcuNTRjLTAuNzk3LDAuNDEtMS42MTcsMC44Mi0yLjQzNywxLjIwN2MtNC4yNiwyLjA1LTguNjExLDMuOTg3LTEzLjA1Myw1Ljc0ICAgICAgYy0wLjQxLDAuMTgyLTAuNzk3LDAuMzQyLTEuMjA3LDAuNTAxYy05LjQ1NCwzLjczNi0xOS4yNDksNi44MzQtMjkuMzE4LDkuMThjLTAuMzg3LDAuMTE0LTAuNzk4LDAuMjA1LTEuMTg1LDAuMjk2ICAgICAgYy05LjU0NSwyLjE4Ny0xOS4zNCwzLjczNi0yOS4zMTgsNC41NzljLTAuMzg3LDAuMDQ2LTAuNzk3LDAuMDkxLTEuMjA3LDAuMTE0Yy01Ljc2MywwLjQ3OC0xMS41OTUsMC43MDYtMTcuNDcyLDAuNzA2ICAgICAgYy0zLjk2NCwwLTcuOTI4LTAuMTE0LTExLjg0Ni0wLjMxOWMtMC4zODctMC4wMjMtMC43OTctMC4wNDUtMS4xODQtMC4wOTFjLTkuOTc3LTAuNTctMTkuNzczLTEuODY4LTI5LjMxOC0zLjgwNCAgICAgIGMtMC40MS0wLjA2OS0wLjc5Ny0wLjEzNy0xLjIwNy0wLjI1MWMtMTAuMDQ2LTIuMDUtMTkuODQyLTQuODMtMjkuMjk1LTguMjY5Yy0wLjQxLTAuMTU5LTAuODItMC4yOTYtMS4yMDctMC40NTYgICAgICBjLTYuMzc4LTIuMzQ2LTEyLjYyLTQuOTg5LTE4LjcwMi03LjkyN2MtMC44Mi0wLjM4Ny0xLjY0LTAuNzk3LTIuNDM3LTEuMjA3Yy0yLjc1Ny0xLjM2Ny01LjQ5LTIuODAyLTguMTc4LTQuMjgzICAgICAgYy0wLjQxLTAuMjI4LTAuNzk3LTAuNDU2LTEuMjA3LTAuNjgzYy0xMC4zMi01LjgwOS0yMC4xMzgtMTIuNDM4LTI5LjI5NS0xOS44MTljLTAuNDEtMC4zMTktMC44Mi0wLjYzOC0xLjIwNy0wLjk4ICAgICAgYy0xLjQxMi0xLjE2Mi0yLjgyNS0yLjMyNC00LjIxNC0zLjUzMWMtMC40NTYtMC4zODgtMC45MzQtMC43OTgtMS4zOS0xLjIwOGMtOC41Mi03LjQ3Mi0xNi40Ny0xNS42MDQtMjMuNzE0LTI0LjMwNiAgICAgIGMtMC40MS0wLjQ3OC0wLjc5OC0wLjk1Ny0xLjE4NS0xLjQzNWMtMC45NTctMS4xODUtMS45MTMtMi4zNjktMi44NDctMy41NzZjLTAuMzE5LTAuMzg3LTAuNjM4LTAuNzk3LTAuOTExLTEuMTg1ICAgICAgYy03LjEzLTkuMjAzLTEzLjQ4Ni0xOS4wMjEtMTkuMDIyLTI5LjMxOGMtMC4yMjgtMC40MS0wLjQzMy0wLjc5Ny0wLjYzOC0xLjIwN2MtMi4wOTYtMy45NDEtNC4wNzctNy45NS01LjktMTIuMDI4ICAgICAgYy0wLjQzMy0wLjkxMS0wLjgyLTEuODIyLTEuMjA3LTIuNzU2Yy0yLjA5Ni00Ljc2MS0zLjk4Ni05LjU5LTUuNjk1LTE0LjUzNGMtMC4xNi0wLjM4Ny0wLjI5Ni0wLjc5OC0wLjQxLTEuMTg1ICAgICAgYy0zLjI1OC05LjQ3Ni01Ljg3Ny0xOS4yNzItNy43NDUtMjkuMzE4Yy0wLjExNC0wLjM4Ny0wLjE4Mi0wLjc5Ny0wLjIyOC0xLjIwN2MtMS43NzctOS41NjctMi45MTYtMTkuMzQtMy4zMjYtMjkuMzE4ICAgICAgYy0wLjA0Ni0wLjM4Ny0wLjA0Ni0wLjc3NC0wLjA0Ni0xLjE4NGMtMC4xMzctMi43NzktMC4xODItNS41NTgtMC4xODItOC4zNmMwLTcuMDg1LDAuMzQyLTE0LjA3OCwxLjAyNS0yMC45NTcgICAgICBjMC4wMjMtMC40MSwwLjA2OC0wLjgyLDAuMTE0LTEuMjA3YzEuMDI1LTEwLjAwMSwyLjczNC0xOS43NzMsNS4xMDMtMjkuMjk1YzAuMDkxLTAuNDEsMC4yMDUtMC44MiwwLjI5Ni0xLjIwNyAgICAgIGMyLjU1MS0xMC4wOTIsNS44MzItMTkuODg3LDkuNzUtMjkuMzE4YzAuMTYtMC40MSwwLjM0Mi0wLjgyLDAuNTAxLTEuMjA3YzAuMjczLTAuNjM4LDAuNTQ3LTEuMjc2LDAuODQzLTEuOTE0ICAgICAgYzAuMzg3LTAuOTM0LDAuNzc0LTEuODQ1LDEuMjA3LTIuNzU2YzMuODI3LTguNTIsOC4yMjQtMTYuNzQzLDEzLjEyMS0yNC42MjVjMC4yNTEtMC40MSwwLjUwMS0wLjc5NywwLjc1Mi0xLjIwOCAgICAgIGM0LjcxNS03LjQ5NCw5Ljg2NC0xNC42NywxNS40NDUtMjEuNDgxYzAuMzg3LTAuNDc5LDAuNzc1LTAuOTU3LDEuMTg1LTEuNDM1YzEuNzk5LTIuMTY0LDMuNjQ1LTQuMzA1LDUuNTU4LTYuNDAxICAgICAgYzAuMzQyLTAuNDEsMC43MDYtMC43OTcsMS4wNzEtMS4xODVjNy4wMzktNy43LDE0LjYyNS0xNC44NzUsMjIuNjg5LTIxLjQ1OWMwLjM4Ny0wLjM0MiwwLjc5Ny0wLjY2MSwxLjIwNy0wLjk4ICAgICAgYzIuOTM5LTIuMzY5LDUuOTY4LTQuNjcsOS4wNDQtNi44OGMwLjU0Ni0wLjQxLDEuMTE2LTAuODIsMS42ODYtMS4yMDdjNS45NjgtNC4yMTQsMTIuMTY1LTguMTMyLDE4LjU2Ni0xMS43MzIgICAgICBjMC40MS0wLjIyOCwwLjc5Ny0wLjQ1NiwxLjIwNy0wLjY4M2M5LjM2Mi01LjE3MSwxOS4xNTgtOS42ODEsMjkuMzE4LTEzLjQxN2MwLjM4Ny0wLjE2LDAuNzk3LTAuMjk2LDEuMjA3LTAuNDU2ICAgICAgYzIuOTYxLTEuMDcxLDUuOTY4LTIuMDk2LDkuMDIxLTMuMDI5YzEuMjk4LTAuNDEsMi42Mi0wLjgyLDMuOTQxLTEuMTg1YzUuMzUzLTEuNTcyLDEwLjc5OC0yLjkzOCwxNi4zMzMtNC4wNTUgICAgICBjMC40MS0wLjExNCwwLjc5Ny0wLjE4MiwxLjIwNy0wLjI1YzkuNTQ1LTEuOTM2LDE5LjM0LTMuMjM1LDI5LjMxOC0zLjgwNGMwLjM4Ny0wLjA0NiwwLjc5Ny0wLjA2OCwxLjE4NC0wLjA5MSAgICAgIGMzLjkxOC0wLjIwNSw3Ljg4Mi0wLjMxOSwxMS44NDYtMC4zMTljNS44NzcsMCwxMS43MDksMC4yMjgsMTcuNDcyLDAuNzA2YzAuNDEsMC4wMjMsMC44MiwwLjA2OCwxLjIwNywwLjExNCAgICAgIGM5Ljk3OCwwLjg0MywxOS43NzMsMi4zOTIsMjkuMzE4LDQuNTc5YzAuMzg3LDAuMDkxLDAuNzk3LDAuMTgyLDEuMTg1LDAuMjk2YzMuNjIyLDAuODQzLDcuMTk4LDEuNzc3LDEwLjcyOSwyLjgyNSAgICAgIGMxLjMyMSwwLjM2NCwyLjY0MywwLjc3NCwzLjk0MSwxLjE4NWM0Ljk2NiwxLjU0OSw5Ljg0MSwzLjI1NywxNC42NDgsNS4xNzFjMC40MSwwLjE2LDAuNzk3LDAuMzE5LDEuMjA3LDAuNTAxICAgICAgYzEwLjE4Myw0LjA3NywxOS45NzgsOC45MywyOS4zMTgsMTQuNDg4YzAuMzg3LDAuMjI4LDAuNzk3LDAuNDU2LDEuMTg1LDAuNjgzYzQuNDE5LDIuNjY1LDguNzQ4LDUuNDksMTIuOTM5LDguNDc0ICAgICAgYzAuNTY5LDAuMzg3LDEuMTM5LDAuNzk3LDEuNjg2LDEuMjA3YzUuMDgsMy42NDUsOS45NzcsNy41MTcsMTQuNjkzLDExLjU3MmMwLjQxLDAuMzY0LDAuNzk3LDAuNzA2LDEuMjA4LDEuMDcxICAgICAgYzUuOTkxLDUuMjQsMTEuNjg2LDEwLjc5OCwxNy4wMzksMTYuNjc1YzAuMzY0LDAuMzg3LDAuNzI5LDAuNzc1LDEuMDcxLDEuMTg1YzMuOTE4LDQuMzI4LDcuNjU0LDguODM5LDExLjE4NSwxMy40ODYgICAgICBjMC40MSwwLjUyNCwwLjgyLDEuMDQ4LDEuMjA3LDEuNTcyYzMuNDQsNC42MDIsNi43Miw5LjM2Miw5Ljc5NSwxNC4yNmMwLjI1MSwwLjQxLDAuNTAxLDAuNzk3LDAuNzUyLDEuMjA4ICAgICAgYzUuNzg2LDkuMzE3LDEwLjg2NiwxOS4wODksMTUuMTcyLDI5LjI5NWMwLjE1OSwwLjM4NywwLjM0MSwwLjc5NywwLjUwMSwxLjIwN2MxLjA5NCwyLjU5NywyLjExOCw1LjIzOSwzLjA5OCw3LjkwNSAgICAgIGMwLjQxLDEuMTE2LDAuODIsMi4yNTUsMS4yMDcsMy4zOTRjMi4wNzMsNS45LDMuODk1LDExLjg5MSw1LjQ0NCwxOC4wMTljMC4wOTEsMC4zODcsMC4yMDUsMC43OTcsMC4yOTYsMS4yMDcgICAgICBjMi4zNjksOS41MjIsNC4wNzgsMTkuMjk1LDUuMTAzLDI5LjI5NWMwLjA0NiwwLjM4NywwLjA5MSwwLjc5NywwLjExNCwxLjIwN0M0NDYuODE1LDIzNS4wMzQsNDQ3LjE1NywyNDIuMDI3LDQ0Ny4xNTcsMjQ5LjExMnogICAgICAiLz4mI3hhOwkJCTwvZz4mI3hhOwkJCTxnIHN0eWxlPSJvcGFjaXR5OjAuNDE7Ij4mI3hhOwkJCQk8Zz4mI3hhOwkJCQkJPGc+JiN4YTsJCQkJCQk8cGF0aCBzdHlsZT0iZmlsbDojRkZBNzYxOyIgZD0iTTM4LjUwNywxNjEuMjV2MTc1LjcyNGMtMC40MzMtMC45MTEtMC44Mi0xLjgyMi0xLjIwNy0yLjc1NlYxNjQuMDA2ICAgICAgICBDMzcuNjg3LDE2My4wNzIsMzguMDc0LDE2Mi4xNjEsMzguNTA3LDE2MS4yNXoiLz4mI3hhOwkJCQkJPC9nPiYjeGE7CQkJCTwvZz4mI3hhOwkJCQk8Zz4mI3hhOwkJCQkJPGc+JiN4YTsJCQkJCQk8cGF0aCBzdHlsZT0iZmlsbDojRkZBNzYxOyIgZD0iTTY5LjAxLDExMi41djI3My4yMjNjLTAuNDEtMC40NzgtMC43OTgtMC45NTctMS4xODUtMS40MzVWMTEzLjkzNiAgICAgICAgQzY4LjIxMiwxMTMuNDU3LDY4LjU5OSwxMTIuOTc5LDY5LjAxLDExMi41eiIvPiYjeGE7CQkJCQk8L2c+JiN4YTsJCQkJPC9nPiYjeGE7CQkJCTxnPiYjeGE7CQkJCQk8Zz4mI3hhOwkJCQkJCTxwYXRoIHN0eWxlPSJmaWxsOiNGRkE3NjE7IiBkPSJNOTkuNTM1LDgyLjQ3N3YzMzMuMjcxYy0wLjQxLTAuMzE5LTAuODItMC42MzgtMS4yMDctMC45OFY4My40NTYgICAgICAgIEM5OC43MTQsODMuMTE0LDk5LjEyNCw4Mi43OTYsOTkuNTM1LDgyLjQ3N3oiLz4mI3hhOwkJCQkJPC9nPiYjeGE7CQkJCTwvZz4mI3hhOwkJCQk8Zz4mI3hhOwkJCQkJPGc+JiN4YTsJCQkJCQk8cGF0aCBzdHlsZT0iZmlsbDojRkZBNzYxOyIgZD0iTTEzMC4wMzcsNjEuOTc1djM3NC4yNzVjLTAuNDEtMC4yMjgtMC43OTctMC40NTYtMS4yMDctMC42ODNWNjIuNjU4ICAgICAgICBDMTI5LjI0LDYyLjQzLDEyOS42MjcsNjIuMjAyLDEzMC4wMzcsNjEuOTc1eiIvPiYjeGE7CQkJCQk8L2c+JiN4YTsJCQkJPC9nPiYjeGE7CQkJCTxnPiYjeGE7CQkJCQk8Zz4mI3hhOwkJCQkJCTxwYXRoIHN0eWxlPSJmaWxsOiNGRkE3NjE7IiBkPSJNMTU5LjM1NSw0OC41NTdjMC4zODctMC4xNiwwLjc5Ny0wLjI5NiwxLjIwNy0wLjQ1NnY0MDIuMDIxICAgICAgICBjLTAuNDEtMC4xNTktMC44Mi0wLjI5Ni0xLjIwNy0wLjQ1NlY0OC41NTd6Ii8+JiN4YTsJCQkJCTwvZz4mI3hhOwkJCQk8L2c+JiN4YTsJCQkJPGc+JiN4YTsJCQkJCTxnPiYjeGE7CQkJCQkJPHBhdGggc3R5bGU9ImZpbGw6I0ZGQTc2MTsiIGQ9Ik0xOTEuMDY0LDM5LjU4MnY0MTkuMDZjLTAuNDEtMC4wNjktMC43OTctMC4xMzctMS4yMDctMC4yNTFWMzkuODMyICAgICAgICBDMTkwLjI2NywzOS43MTksMTkwLjY1NCwzOS42NSwxOTEuMDY0LDM5LjU4MnoiLz4mI3hhOwkJCQkJPC9nPiYjeGE7CQkJCTwvZz4mI3hhOwkJCQk8Zz4mI3hhOwkJCQkJPGc+JiN4YTsJCQkJCQk8cGF0aCBzdHlsZT0iZmlsbDojRkZBNzYxOyIgZD0iTTIyMS41NjcsMzUuNjg3djQyNi44NWMtMC4zODctMC4wMjMtMC43OTctMC4wNDUtMS4xODQtMC4wOTFWMzUuNzc4ICAgICAgICBDMjIwLjc2OSwzNS43MzIsMjIxLjE3OSwzNS43MDksMjIxLjU2NywzNS42ODd6Ii8+JiN4YTsJCQkJCTwvZz4mI3hhOwkJCQk8L2c+JiN4YTsJCQkJPGc+JiN4YTsJCQkJCTxnPiYjeGE7CQkJCQkJPHBhdGggc3R5bGU9ImZpbGw6I0ZGQTc2MTsiIGQ9Ik0yNTIuMDkyLDM2LjE4OHY0MjUuODQ4Yy0wLjM4NywwLjA0Ni0wLjc5NywwLjA5MS0xLjIwNywwLjExNFYzNi4wNzQgICAgICAgIEMyNTEuMjk1LDM2LjA5NywyNTEuNzA1LDM2LjE0MiwyNTIuMDkyLDM2LjE4OHoiLz4mI3hhOwkJCQkJPC9nPiYjeGE7CQkJCTwvZz4mI3hhOwkJCQk8Zz4mI3hhOwkJCQkJPGc+JiN4YTsJCQkJCQk8cGF0aCBzdHlsZT0iZmlsbDojRkZBNzYxOyIgZD0iTTI4Mi41OTQsNDEuMDYzdjQxNi4wOThjLTAuMzg3LDAuMTE0LTAuNzk4LDAuMjA1LTEuMTg1LDAuMjk2VjQwLjc2NyAgICAgICAgQzI4MS43OTcsNDAuODU4LDI4Mi4yMDcsNDAuOTQ5LDI4Mi41OTQsNDEuMDYzeiIvPiYjeGE7CQkJCQk8L2c+JiN4YTsJCQkJPC9nPiYjeGE7CQkJCTxnPiYjeGE7CQkJCQk8Zz4mI3hhOwkJCQkJCTxwYXRoIHN0eWxlPSJmaWxsOiNGRkE3NjE7IiBkPSJNMzExLjkxMiw1MC4yNDNjMC40MSwwLjE2LDAuNzk3LDAuMzE5LDEuMjA3LDAuNTAxdjM5Ni43MzUgICAgICAgIGMtMC40MSwwLjE4Mi0wLjc5NywwLjM0Mi0xLjIwNywwLjUwMVY1MC4yNDN6Ii8+JiN4YTsJCQkJCTwvZz4mI3hhOwkJCQk8L2c+JiN4YTsJCQkJPGc+JiN4YTsJCQkJCTxnPiYjeGE7CQkJCQkJPHBhdGggc3R5bGU9ImZpbGw6I0ZGQTc2MTsiIGQ9Ik0zNDIuNDM3LDY1LjIzMmMwLjM4NywwLjIyOCwwLjc5NywwLjQ1NiwxLjE4NSwwLjY4M3YzNjYuMzkzICAgICAgICBjLTAuMzg3LDAuMjI4LTAuNzk3LDAuNDU2LTEuMTg1LDAuNjgzVjY1LjIzMnoiLz4mI3hhOwkJCQkJPC9nPiYjeGE7CQkJCTwvZz4mI3hhOwkJCQk8Zz4mI3hhOwkJCQkJPGc+JiN4YTsJCQkJCQk8cGF0aCBzdHlsZT0iZmlsbDojRkZBNzYxOyIgZD0iTTM3Mi45MzksODcuMTY5YzAuNDEsMC4zNjQsMC43OTcsMC43MDYsMS4yMDgsMS4wNzF2MzIxLjc4OWgtMC4wNDYgICAgICAgIGMtMC4zODcsMC4zNDItMC43NzUsMC42ODMtMS4xNjIsMS4wMjVWODcuMTY5eiIvPiYjeGE7CQkJCQk8L2c+JiN4YTsJCQkJPC9nPiYjeGE7CQkJCTxnPiYjeGE7CQkJCQk8Zz4mI3hhOwkJCQkJCTxwYXRoIHN0eWxlPSJmaWxsOiNGRkE3NjE7IiBkPSJNNDAzLjQ0MiwxMTkuNTg1YzAuNDEsMC41MjQsMC44MiwxLjA0OCwxLjIwNywxLjU3MnYyNTUuOTEgICAgICAgIGMtMC4zODcsMC41MjQtMC43OTcsMS4wNDgtMS4yMDcsMS41NzJWMTE5LjU4NXoiLz4mI3hhOwkJCQkJPC9nPiYjeGE7CQkJCTwvZz4mI3hhOwkJCQk8Zz4mI3hhOwkJCQkJPGc+JiN4YTsJCQkJCQk8cGF0aCBzdHlsZT0iZmlsbDojRkZBNzYxOyIgZD0iTTQzMy45NjcsMTc1LjAzMmMwLjQxLDEuMTE2LDAuODIsMi4yNTUsMS4yMDcsMy4zOTR2MTQxLjM3MiAgICAgICAgYy0wLjM4NywxLjEzOS0wLjc5NywyLjI3OC0xLjIwNywzLjM5NFYxNzUuMDMyeiIvPiYjeGE7CQkJCQk8L2c+JiN4YTsJCQkJPC9nPiYjeGE7CQkJPC9nPiYjeGE7CQkJPGcgc3R5bGU9Im9wYWNpdHk6MC40MTsiPiYjeGE7CQkJCTxnPiYjeGE7CQkJCQk8Zz4mI3hhOwkJCQkJCTxwYXRoIHN0eWxlPSJmaWxsOiNGRkE3NjE7IiBkPSJNMjkzLjMyNCw0My44ODdjMS4zMjEsMC4zNjQsMi42NDMsMC43NzQsMy45NDEsMS4xODVIMTY5LjU4MyAgICAgICAgYzEuMjk4LTAuNDEsMi42Mi0wLjgyLDMuOTQxLTEuMTg1SDI5My4zMjR6Ii8+JiN4YTsJCQkJCTwvZz4mI3hhOwkJCQk8L2c+JiN4YTsJCQkJPGc+JiN4YTsJCQkJCTxnPiYjeGE7CQkJCQkJPHBhdGggc3R5bGU9ImZpbGw6I0ZGQTc2MTsiIGQ9Ik0zNTYuNTYxLDc0LjM5YzAuNTY5LDAuMzg3LDEuMTM5LDAuNzk3LDEuNjg2LDEuMjA3SDEwOC41NzggICAgICAgIGMwLjU0Ni0wLjQxLDEuMTE2LTAuODIsMS42ODYtMS4yMDdIMzU2LjU2MXoiLz4mI3hhOwkJCQkJPC9nPiYjeGE7CQkJCTwvZz4mI3hhOwkJCQk8Zz4mI3hhOwkJCQkJPGc+JiN4YTsJCQkJCQk8cGF0aCBzdHlsZT0iZmlsbDojRkZBNzYxOyIgZD0iTTM5MS4xODYsMTA0LjkxNWMwLjM2NCwwLjM4NywwLjcyOSwwLjc3NSwxLjA3MSwxLjE4NUg3NC41NjggICAgICAgIGMwLjM0Mi0wLjQxLDAuNzA2LTAuNzk3LDEuMDcxLTEuMTg1SDM5MS4xODZ6Ii8+JiN4YTsJCQkJCTwvZz4mI3hhOwkJCQk8L2c+JiN4YTsJCQkJPGc+JiN4YTsJCQkJCTxnPiYjeGE7CQkJCQkJPHBhdGggc3R5bGU9ImZpbGw6I0ZGQTc2MTsiIGQ9Ik00MTQuNDQ1LDEzNS40MTdjMC4yNTEsMC40MSwwLjUwMSwwLjc5NywwLjc1MiwxLjIwOEg1MS42MjggICAgICAgIGMwLjI1MS0wLjQxLDAuNTAxLTAuNzk3LDAuNzUyLTEuMjA4SDQxNC40NDV6Ii8+JiN4YTsJCQkJCTwvZz4mI3hhOwkJCQk8L2c+JiN4YTsJCQkJPGc+JiN4YTsJCQkJCTxnPiYjeGE7CQkJCQkJPHBhdGggc3R5bGU9ImZpbGw6I0ZGQTc2MTsiIGQ9Ik00MzAuMzY4LDE2NS45MmMwLjE1OSwwLjM4NywwLjM0MSwwLjc5NywwLjUwMSwxLjIwN0gzNS45NTZjMC4xNi0wLjQxLDAuMzQyLTAuODIsMC41MDEtMS4yMDcgICAgICAgIEg0MzAuMzY4eiIvPiYjeGE7CQkJCQk8L2c+JiN4YTsJCQkJPC9nPiYjeGE7CQkJCTxnPiYjeGE7CQkJCQk8Zz4mI3hhOwkJCQkJCTxwYXRoIHN0eWxlPSJmaWxsOiNGRkE3NjE7IiBkPSJNNDQwLjkxNSwxOTcuNjUySDI1LjkxYzAuMDkxLTAuNDEsMC4yMDUtMC44MiwwLjI5Ni0xLjIwN2g0MTQuNDEzICAgICAgICBDNDQwLjcxLDE5Ni44MzIsNDQwLjgyNCwxOTcuMjQyLDQ0MC45MTUsMTk3LjY1MnoiLz4mI3hhOwkJCQkJPC9nPiYjeGE7CQkJCTwvZz4mI3hhOwkJCQk8Zz4mI3hhOwkJCQkJPGc+JiN4YTsJCQkJCQk8cGF0aCBzdHlsZT0iZmlsbDojRkZBNzYxOyIgZD0iTTQ0Ni4xMzEsMjI4LjE1NEgyMC42OTNjMC4wMjMtMC40MSwwLjA2OC0wLjgyLDAuMTE0LTEuMjA3aDQyNS4yMTEgICAgICAgIEM0NDYuMDYzLDIyNy4zMzQsNDQ2LjEwOSwyMjcuNzQ0LDQ0Ni4xMzEsMjI4LjE1NHoiLz4mI3hhOwkJCQkJPC9nPiYjeGE7CQkJCTwvZz4mI3hhOwkJCQk8Zz4mI3hhOwkJCQkJPGc+JiN4YTsJCQkJCQk8cGF0aCBzdHlsZT0iZmlsbDojRkZBNzYxOyIgZD0iTTQ0Ni45NzQsMjU3LjQ3MmMwLDAuNDEsMCwwLjc5Ny0wLjA0NiwxLjE4NEgxOS44OTZjLTAuMDQ2LTAuMzg3LTAuMDQ2LTAuNzc0LTAuMDQ2LTEuMTg0ICAgICAgICBINDQ2Ljk3NHoiLz4mI3hhOwkJCQkJPC9nPiYjeGE7CQkJCTwvZz4mI3hhOwkJCQk8Zz4mI3hhOwkJCQkJPGc+JiN4YTsJCQkJCQk8cGF0aCBzdHlsZT0iZmlsbDojRkZBNzYxOyIgZD0iTTQ0My42MDMsMjg3Ljk3NGMtMC4wNDYsMC40MS0wLjExNCwwLjgyLTAuMjI4LDEuMjA3SDIzLjQ0OSAgICAgICAgYy0wLjExNC0wLjM4Ny0wLjE4Mi0wLjc5Ny0wLjIyOC0xLjIwN0g0NDMuNjAzeiIvPiYjeGE7CQkJCQk8L2c+JiN4YTsJCQkJPC9nPiYjeGE7CQkJCTxnPiYjeGE7CQkJCQk8Zz4mI3hhOwkJCQkJCTxwYXRoIHN0eWxlPSJmaWxsOiNGRkE3NjE7IiBkPSJNNDM1LjYzLDMxOC40OTljLTAuMTE0LDAuMzg3LTAuMjUxLDAuNzk3LTAuNDEsMS4xODVIMzEuNjA1ICAgICAgICBjLTAuMTYtMC4zODctMC4yOTYtMC43OTgtMC40MS0xLjE4NUg0MzUuNjN6Ii8+JiN4YTsJCQkJCTwvZz4mI3hhOwkJCQk8L2c+JiN4YTsJCQkJPGc+JiN4YTsJCQkJCTxnPiYjeGE7CQkJCQkJPHBhdGggc3R5bGU9ImZpbGw6I0ZGQTc2MTsiIGQ9Ik00MjIuNDE3LDM0OS4wMDJjLTAuMjA1LDAuNDEtMC40MSwwLjc5Ny0wLjYzOCwxLjIwN0g0NS4wNDUgICAgICAgIGMtMC4yMjgtMC40MS0wLjQzMy0wLjc5Ny0wLjYzOC0xLjIwN0g0MjIuNDE3eiIvPiYjeGE7CQkJCQk8L2c+JiN4YTsJCQkJPC9nPiYjeGE7CQkJCTxnPiYjeGE7CQkJCQk8Zz4mI3hhOwkJCQkJCTxwYXRoIHN0eWxlPSJmaWxsOiNGRkE3NjE7IiBkPSJNNDAyLjc1OCwzNzkuNTI3Yy0wLjI3MywwLjM4Ny0wLjU5MiwwLjc5Ny0wLjkxMSwxLjE4NUg2NC45NzcgICAgICAgIGMtMC4zMTktMC4zODctMC42MzgtMC43OTctMC45MTEtMS4xODVINDAyLjc1OHoiLz4mI3hhOwkJCQkJPC9nPiYjeGE7CQkJCTwvZz4mI3hhOwkJCQk8Zz4mI3hhOwkJCQkJPGc+JiN4YTsJCQkJCQk8cGF0aCBzdHlsZT0iZmlsbDojRkZBNzYxOyIgZD0iTTM3NC4xMDEsNDEwLjAyOWMtMC4zODcsMC4zNDItMC43NzUsMC42ODMtMS4xNjIsMS4wMjV2MC4xODJIOTQuMTEzICAgICAgICBjLTAuNDU2LTAuMzg4LTAuOTM0LTAuNzk4LTEuMzktMS4yMDhIMzc0LjEwMXoiLz4mI3hhOwkJCQkJPC9nPiYjeGE7CQkJCTwvZz4mI3hhOwkJCQk8Zz4mI3hhOwkJCQkJPGc+JiN4YTsJCQkJCQk8cGF0aCBzdHlsZT0iZmlsbDojRkZBNzYxOyIgZD0iTTMyOC42MSw0NDAuNTMyYy0wLjc5NywwLjQxLTEuNjE3LDAuODItMi40MzcsMS4yMDdoLTE4NS41MiAgICAgICAgYy0wLjgyLTAuMzg3LTEuNjQtMC43OTctMi40MzctMS4yMDdIMzI4LjYxeiIvPiYjeGE7CQkJCQk8L2c+JiN4YTsJCQkJPC9nPiYjeGE7CQkJPC9nPiYjeGE7CQk8L2c+JiN4YTsJCTxnPiYjeGE7CQkJPGc+JiN4YTsJCQkJPHBhdGggc3R5bGU9ImZpbGw6I0ZGQTc2MTsiIGQ9Ik0xNjEuNDY4LDI2OC4yNTZjLTI4Ljk0NCwwLjM2Ny01Ny45MTEtMS4wMjUtODYuNjg2LTQuMTY1ICAgICAgYy05LjA3OC0wLjk5MS0xOC41MjEtMi4yOTQtMjYuMDcxLTcuNDMyYy03Ljc4Ni01LjI5OC0xMi41NDMtMTQuMDIyLTE1LjgzNy0yMi44NDRjLTkuNTg5LTI1LjY3Ny05LjAxLTU0LjAwMS01LjkyMy04MS4yMzUgICAgICBjMi42ODktMjMuNzIsNy45MzUtNDguNzQ2LDI0LjYzMS02NS44MDdjMTYuNTI4LTE2Ljg5LDQxLjExOC0yMi43NDMsNjQuNTA4LTI2LjEwMmM0MC41MDYtNS44MTgsODEuNzU3LTYuNDM0LDEyMi40MTgtMS44MjYgICAgICBjMTUuMDEyLDEuNzAxLDMwLjA5LDQuMTUsNDQuMTE4LDkuNzU5YzE0LjAyOCw1LjYwOCwyNy4wNTUsMTQuNjI0LDM1LjI5MSwyNy4yODljMTAuMDY3LDE1LjQ4MSwxMi4xMTIsMzQuNzY0LDEyLjM4Nyw1My4yMjggICAgICBjMC4yMzIsMTUuNTk4LTAuNjAyLDMxLjIxMi0yLjQ5Myw0Ni42OTdjLTEuNzQ5LDE0LjMyNC00LjQ2OSwyOC43NDMtMTAuNzk4LDQxLjcxMmMtNi4zMjksMTIuOTY5LTE2LjY1MywyNC40Ny0zMC4wOTgsMjkuNzEgICAgICBjLTguNTY1LDMuMzM4LTE3LjkxMSw0LjAwMy0yNy4wOTcsNC4zNDVjLTIxLjYyNiwwLjgwNS00My4zMTIsMC4wMTQtNjQuODIyLTIuMzY0Yy0zLjM4OCw5LjkyMy04LjI2NiwyMC4wMjUtMTEuNjU0LDI5Ljk0OCAgICAgIEMxNzUuNjYyLDI4OC43NjQsMTY5LjE0NiwyNzguNjYsMTYxLjQ2OCwyNjguMjU2eiIvPiYjeGE7CQkJPC9nPiYjeGE7CQkJPGc+JiN4YTsJCQkJPGc+JiN4YTsJCQkJCTxnPiYjeGE7CQkJCQkJJiN4YTsJCQkJCQkJPGVsbGlwc2UgdHJhbnNmb3JtPSJtYXRyaXgoMC42NTMzIC0wLjc1NzEgMC43NTcxIDAuNjUzMyAtMTExLjM4NzEgMTM4Ljg1NjcpIiBzdHlsZT0iZmlsbDojRkZGMUU2OyIgY3g9Ijk1LjkyNiIgY3k9IjE5MS4wNTMiIHJ4PSI4LjEyMyIgcnk9IjguMTIzIi8+JiN4YTsJCQkJCTwvZz4mI3hhOwkJCQkJPGc+JiN4YTsJCQkJCQk8cGF0aCBzdHlsZT0iZmlsbDojRkZGMUU2OyIgZD0iTTE0OS4wOTUsMTkxLjA1M2MwLDQuNDg2LTMuNjM3LDguMTIzLTguMTIzLDguMTIzYy00LjQ4NiwwLTguMTIzLTMuNjM3LTguMTIzLTguMTIzICAgICAgICBjMC00LjQ4NiwzLjYzNy04LjEyMyw4LjEyMy04LjEyM0MxNDUuNDU4LDE4Mi45MywxNDkuMDk1LDE4Ni41NjcsMTQ5LjA5NSwxOTEuMDUzeiIvPiYjeGE7CQkJCQk8L2c+JiN4YTsJCQkJCTxnPiYjeGE7CQkJCQkJJiN4YTsJCQkJCQkJPGVsbGlwc2UgdHJhbnNmb3JtPSJtYXRyaXgoMC45OTQxIC0wLjEwODMgMC4xMDgzIDAuOTk0MSAtMTkuNTg3MyAyMS41MTM1KSIgc3R5bGU9ImZpbGw6I0ZGRjFFNjsiIGN4PSIxODguMjMzIiBjeT0iMTkxLjA1MyIgcng9IjguMTIzIiByeT0iOC4xMjMiLz4mI3hhOwkJCQkJPC9nPiYjeGE7CQkJCTwvZz4mI3hhOwkJCQk8Zz4mI3hhOwkJCQkJPGc+JiN4YTsJCQkJCQk8cGF0aCBzdHlsZT0iZmlsbDojRkZGMUU2OyIgZD0iTTIzMy42MzUsMTkzLjIzMmMtMS44NTksMC0zLjQzNS0xLjQyNy0zLjU4OC0zLjMxMmMtMC41NDMtNi43MDItMC4wNjYtMTYuNTUxLDUuMjktMjUuNDE0ICAgICAgICBjMy40NC01LjY5Myw4LjMyMi0xMC4wMzYsMTMuMDQxLTE0LjIzNWMxLjI5LTEuMTQ3LDIuNTc4LTIuMjkzLDMuODMyLTMuNDY0YzYuOC02LjM1LDEwLjIxOS0xMS44OTMsMTAuNzU5LTE3LjQ0MyAgICAgICAgYzAuNjQ3LTYuNjU2LTMuNjM4LTEzLjgzMi05Ljk2OC0xNi42OTJjLTYuMzIyLTIuODU2LTE0LjMzNi0xLjY4OS0xOS45MzcsMi45MWMtNS40MTEsNC40NDUtOC40NDIsMTIuMDQzLTcuNzI2LDE5LjM1NSAgICAgICAgYzAuMTk1LDEuOTgxLTEuMjU0LDMuNzQ0LTMuMjM0LDMuOTM3Yy0xLjk3OCwwLjE5MS0zLjc0My0xLjI1NC0zLjkzNy0zLjIzNGMtMC45NjEtOS43ODcsMi45OTYtMTkuNjA2LDEwLjMyMy0yNS42MjggICAgICAgIGM3LjY2Ny02LjI5OCwxOC43MTItNy44NywyNy40NzgtMy45MDdjOS4xNiw0LjEzOSwxNS4xMjEsMTQuMjEzLDE0LjE3NCwyMy45NTVjLTAuOTQ2LDkuNzIyLTcuODgxLDE3LjIxOS0xMy4wMTMsMjIuMDEzICAgICAgICBjLTEuMjk2LDEuMjEtMi42MjgsMi4zOTUtMy45NjEsMy41ODFjLTQuNTE5LDQuMDIxLTguNzg3LDcuODE3LTExLjY2NCwxMi41NzljLTQuMzYxLDcuMjE4LTQuNzMxLDE1LjQ2MS00LjI3NCwyMS4xMDUgICAgICAgIGMwLjE2MSwxLjk4My0xLjMxNywzLjcyMS0zLjMsMy44ODJDMjMzLjgzMSwxOTMuMjI4LDIzMy43MzMsMTkzLjIzMiwyMzMuNjM1LDE5My4yMzJ6Ii8+JiN4YTsJCQkJCTwvZz4mI3hhOwkJCQkJPGc+JiN4YTsJCQkJCQk8cGF0aCBzdHlsZT0iZmlsbDojRkZGMUU2OyIgZD0iTTIzOS4xMzYsMjA3LjQwOGMwLDIuODIzLTIuMjg4LDUuMTExLTUuMTExLDUuMTExYy0yLjgyMywwLTUuMTExLTIuMjg4LTUuMTExLTUuMTExICAgICAgICBjMC0yLjgyMywyLjI4OC01LjExMSw1LjExMS01LjExMUMyMzYuODQ4LDIwMi4yOTcsMjM5LjEzNiwyMDQuNTg1LDIzOS4xMzYsMjA3LjQwOHoiLz4mI3hhOwkJCQkJPC9nPiYjeGE7CQkJCTwvZz4mI3hhOwkJCTwvZz4mI3hhOwkJCTxnPiYjeGE7CQkJCTxnPiYjeGE7CQkJCQk8cGF0aCBzdHlsZT0iZmlsbDojRkZGMUU2OyIgZD0iTTI4MS45MTMsMTEyLjcyM2MyLjY2NywzLjY4MSw1LjgwNiw3LjIxNyw5Ljk0Niw5LjE2M2M0LjE0LDEuOTQ2LDkuNDc3LDEuOTY4LDEyLjk3My0wLjk2ICAgICAgIGM0LjM5OS0zLjY4NCw0LjQyNS0xMC40MjksMi43OTYtMTUuODkxYy0xLjk3LTYuNjA1LTUuODM2LTEyLjY0OS0xMS4wMzItMTcuMjQ1Yy01LjE3OC00LjU4LTE1LjA0Ni04Ljc5LTE4Ljk3OC0wLjc5NSAgICAgICBDMjczLjI1Niw5NS44NjcsMjc2LjQ4LDEwNS4yMjMsMjgxLjkxMywxMTIuNzIzeiIvPiYjeGE7CQkJCTwvZz4mI3hhOwkJCQk8Zz4mI3hhOwkJCQkJPHBhdGggc3R5bGU9ImZpbGw6I0ZGRjFFNjsiIGQ9Ik0zMDIuMjE3LDE0OS42MTZjMi42NzMsMi45NjEsNy43MSwzLjgzNSwxMC44MzksMS4zNDdjMC45LTAuNzE1LDEuNjA0LTEuNjUsMi4xNTMtMi42NTQgICAgICAgYzMuMjU3LTUuOTU5LTAuMjg3LTE2LjY5LTguNDUtMTUuOTYyQzI5OC45MSwxMzMuMDQ2LDI5Ny44ODIsMTQ0LjgxNCwzMDIuMjE3LDE0OS42MTZ6Ii8+JiN4YTsJCQkJPC9nPiYjeGE7CQkJPC9nPiYjeGE7CQk8L2c+JiN4YTsJCTxnPiYjeGE7CQkJPGc+JiN4YTsJCQkJPGc+JiN4YTsJCQkJCTxnPiYjeGE7CQkJCQkJJiN4YTsJCQkJCQkJPGVsbGlwc2UgdHJhbnNmb3JtPSJtYXRyaXgoMC43MDcxIC0wLjcwNzEgMC43MDcxIDAuNzA3MSAtNjcuMDIwMyAzNzEuMTc1NikiIHN0eWxlPSJmaWxsOiNCRDZFRUI7IiBjeD0iNDE0LjUzOCIgY3k9IjI2Ni40ODgiIHJ4PSI4NS40NTIiIHJ5PSI4NS40NTIiLz4mI3hhOwkJCQkJPC9nPiYjeGE7CQkJCQk8Zz4mI3hhOwkJCQkJCTxwYXRoIHN0eWxlPSJmaWxsOiNCRDZFRUI7IiBkPSJNMzY5LjA3NywzMjIuMjM1Yy0xNi41MTEsMTQuODIxLTM1LjI5MywyNy4xMDYtNTUuNDg5LDM2LjI5MyAgICAgICAgYzI1LjY0NC0zLjg4NCw1Mi4xNzEtMTAuNzYsNzYuMjE3LTIwLjQ4QzM4Mi45MTYsMzMzLjEzOCwzNzUuOTY3LDMyNy4xNDUsMzY5LjA3NywzMjIuMjM1eiIvPiYjeGE7CQkJCQk8L2c+JiN4YTsJCQkJPC9nPiYjeGE7CQkJCTxnPiYjeGE7CQkJCQk8Zz4mI3hhOwkJCQkJCTxwYXRoIHN0eWxlPSJmaWxsOiNGRkYxRTY7IiBkPSJNNDE5Ljc0NSwyOTQuMDA1Yy0wLjMxNCwxLjc1Ni0yLjg0OCwxLjcwNC0zLjA4NC0wLjA2MyAgICAgICAgYy0zLjI4Ny0yNC42NjItMTAuNTE2LTg5LjE4NCwzLjcxMy04OS45NTNDNDM0LjY0NywyMDMuMjE4LDQyNC4yLDI2OS4wOTksNDE5Ljc0NSwyOTQuMDA1eiIvPiYjeGE7CQkJCQk8L2c+JiN4YTsJCQkJCTxnPiYjeGE7CQkJCQkJPGNpcmNsZSBzdHlsZT0iZmlsbDojRkZGMUU2OyIgY3g9IjQxNy40MDEiIGN5PSIzMTAuMjM3IiByPSI2Ljk1MSIvPiYjeGE7CQkJCQk8L2c+JiN4YTsJCQkJPC9nPiYjeGE7CQkJPC9nPiYjeGE7CQkJPGc+JiN4YTsJCQkJPGc+JiN4YTsJCQkJCTxwYXRoIHN0eWxlPSJmaWxsOiNGRkYxRTY7IiBkPSJNNDU5LjY3NCwyMjMuNDQyYzEuNDY4LDEuNjE2LDMuMjI0LDIuOTk5LDUuMDc3LDQuMTZjMy43OCwyLjM3MSw4LjYwMywyLjk2MSwxMS4wMDItMS43NSAgICAgICBjMS40NzYtMi44OTgsMS4wMTItNi40OC0wLjQxOC05LjQwMWMtMi4yMjktNC41NS02LjQyLTkuMDk2LTExLjUyNS0xMC4yNDNjLTcuNDI0LTEuNjY5LTkuNDI2LDcuMjAxLTcuMDgsMTIuNzIzICAgICAgIEM0NTcuNDM4LDIyMC42MDEsNDU4LjQ1NywyMjIuMTAyLDQ1OS42NzQsMjIzLjQ0MnoiLz4mI3hhOwkJCQk8L2c+JiN4YTsJCQkJPGc+JiN4YTsJCQkJCTxwYXRoIHN0eWxlPSJmaWxsOiNGRkYxRTY7IiBkPSJNNDc0LjgxNCwyMzguMDQ3YzAuMDA0LDEuMTA4LDAuMTIxLDIuMjY0LDAuNzEsMy4yMDJjMC45MTYsMS40NTksMi43NjUsMi4wNTUsNC40ODYsMi4xMzMgICAgICAgYzEuMTY5LDAuMDUzLDIuMzczLTAuMDksMy40MTItMC42MjljMi4zMzktMS4yMTIsMy4yOTYtNC4zNjQsMi4zNi02LjgyN0M0ODMuMTQ2LDIyOC45ODcsNDc0Ljc4OCwyMzAuNzQxLDQ3NC44MTQsMjM4LjA0N3oiLz4mI3hhOwkJCQk8L2c+JiN4YTsJCQk8L2c+JiN4YTsJCTwvZz4mI3hhOwkJPGc+JiN4YTsJCQk8Zz4mI3hhOwkJCQk8cG9seWdvbiBzdHlsZT0iZmlsbDojNzE4MkZGOyIgcG9pbnRzPSI5MS4xMjgsMzA2LjI3NSAyODEuNzgzLDMwOC40NzUgMjkzLjUxNSw0NDAuNDY2IDI1Ni44NTEsNDQ3LjA2NiAyNTQuNjUxLDQ3Ny4xMzEgICAgICAgMjM0LjExOSw0NTAuNzMyIDEwNy4yNiw0NTUuODY1ICAgICAiLz4mI3hhOwkJCTwvZz4mI3hhOwkJCTxnPiYjeGE7CQkJCTxnPiYjeGE7CQkJCQk8cGF0aCBzdHlsZT0iZmlsbDojRkZGMUU2OyIgZD0iTTE0MC42MjksMzY1LjkwNGMtMS4yMzksMC0yLjI5LTAuOTUxLTIuMzkxLTIuMjA3Yy0wLjEwOC0xLjMyMiwwLjg3Ni0yLjQ4MSwyLjE5OS0yLjU4OSAgICAgICBsMTAyLjgxNy04LjM4NGMxLjMwOS0wLjEwOSwyLjQ4MiwwLjg3NywyLjU4OSwyLjE5OWMwLjEwOCwxLjMyMi0wLjg3NiwyLjQ4MS0yLjE5OSwyLjU4OWwtMTAyLjgxOCw4LjM4NCAgICAgICBDMTQwLjc2LDM2NS45MDIsMTQwLjY5NSwzNjUuOTA0LDE0MC42MjksMzY1LjkwNHoiLz4mI3hhOwkJCQk8L2c+JiN4YTsJCQkJPGc+JiN4YTsJCQkJCTxwYXRoIHN0eWxlPSJmaWxsOiNGRkYxRTY7IiBkPSJNMTQxLjk5MywzODIuNjMzYy0xLjIzOCwwLTIuMjg5LTAuOTUxLTIuMzkxLTIuMjA3Yy0wLjEwOC0xLjMyMiwwLjg3Ni0yLjQ4MSwyLjE5OS0yLjU4OSAgICAgICBsMTAyLjgxNy04LjM4NWMxLjMxOC0wLjExNSwyLjQ4MSwwLjg3NywyLjU4OSwyLjE5OWMwLjEwOCwxLjMyMi0wLjg3NiwyLjQ4MS0yLjE5OSwyLjU4OWwtMTAyLjgxNyw4LjM4NSAgICAgICBDMTQyLjEyNSwzODIuNjMsMTQyLjA1OSwzODIuNjMzLDE0MS45OTMsMzgyLjYzM3oiLz4mI3hhOwkJCQk8L2c+JiN4YTsJCQkJPGc+JiN4YTsJCQkJCTxwYXRoIHN0eWxlPSJmaWxsOiNGRkYxRTY7IiBkPSJNMTQzLjM1NywzOTkuMzYxYy0xLjIzOSwwLTIuMjktMC45NTEtMi4zOTItMi4yMDdjLTAuMTA4LTEuMzIyLDAuODc2LTIuNDgxLDIuMTk5LTIuNTg5ICAgICAgIGwxMDIuODE3LTguMzg0YzEuMzA1LTAuMTIxLDIuNDgyLDAuODc2LDIuNTg5LDIuMTk5YzAuMTA4LDEuMzIyLTAuODc2LDIuNDgxLTIuMTk5LDIuNTg5bC0xMDIuODE4LDguMzg0ICAgICAgIEMxNDMuNDg5LDM5OS4zNTgsMTQzLjQyMywzOTkuMzYxLDE0My4zNTcsMzk5LjM2MXoiLz4mI3hhOwkJCQk8L2c+JiN4YTsJCQk8L2c+JiN4YTsJCTwvZz4mI3hhOwkJPGc+JiN4YTsJCQk8cG9seWdvbiBzdHlsZT0iZmlsbDojQkQ2RUVCOyIgcG9pbnRzPSIzNTMuNjE4LDExOS43MDcgMzc3LjUzNiw3MC42NDMgNDA0LjY0OSwxMjEuMTU3ICAgICIvPiYjeGE7CQk8L2c+JiN4YTsJCTxnPiYjeGE7CQkJPHBvbHlnb24gc3R5bGU9ImZpbGw6I0ZGOEM5RDsiIHBvaW50cz0iMzU4LjE4Nyw0MjMuOTU0IDMyMi41OTksMzgyLjU2OCAzNzkuNzE4LDM3Ny42NjUgICAgIi8+JiN4YTsJCTwvZz4mI3hhOwkJPGc+JiN4YTsJCQk8cG9seWdvbiBzdHlsZT0iZmlsbDojRjc2MDdEOyIgcG9pbnRzPSIxNi44MTQsMzIyLjUyNiA1NS42MjcsMjg0LjE0NyA2NC40ODcsMzQwLjc4OSAgICAiLz4mI3hhOwkJPC9nPiYjeGE7CQk8Zz4mI3hhOwkJCTxnPiYjeGE7CQkJCTxwYXRoIHN0eWxlPSJmaWxsOiMzODE4Mzk7IiBkPSJNNDUuMDIxLDM0Ni4wNzZjLTIuNjYtOS43OTEtMi44ODYtMjAuMzM3LTAuMTQ0LTMwLjI2NGMyLjczNy05LjkxOSw4LjYyNi0xOS4wMjYsMTYuODQ3LTI1LjQ2OCAgICAgIGM0LjEwMi0zLjIyNiw4Ljg0LTUuNjg0LDEzLjgwOC03LjMxYzQuOTgzLTEuNjA4LDEwLjE4My0yLjM2MSwxNS4zNC0yLjU2YzEwLjM1NS0wLjM3NiwyMC40NzIsMS40OTYsMzAuMjY2LDMuNzYyICAgICAgYzEuNjIxLDAuMzc1LDIuNjMxLDEuOTkzLDIuMjU2LDMuNjEzYy0wLjM3NSwxLjYyMS0xLjk5MywyLjYzLTMuNjEzLDIuMjU1Yy0wLjAyNi0wLjAwNi0wLjA1Mi0wLjAxMi0wLjA3Ny0wLjAxOWwtMC4wMzQtMC4wMDkgICAgICBjLTkuNDc5LTIuNTA0LTE5LjA5MS00LjU1Mi0yOC42ODUtNC40ODdjLTQuNzgsMC4wMzktOS41MzksMC41ODgtMTQuMDc5LDEuOTAxYy00LjUzLDEuMzM4LTguODE4LDMuMzkyLTEyLjYzNSw2LjIwNyAgICAgIGMtNy42NDUsNS42Mi0xMy4zODgsMTMuODYtMTYuMjIsMjMuMDQ0Yy0yLjg1MSw5LjIwOS0yLjk3MywxOS4yNjEtMC43MDMsMjguNzM0YzAuMTU3LDAuNjQ1LTAuMjM5LDEuMjk0LTAuODgzLDEuNDUxICAgICAgQzQ1LjgzMiwzNDcuMDgyLDQ1LjE5MywzNDYuNjk5LDQ1LjAyMSwzNDYuMDc2eiIvPiYjeGE7CQkJPC9nPiYjeGE7CQkJPGc+JiN4YTsJCQkJPHBhdGggc3R5bGU9ImZpbGw6IzM4MTgzOTsiIGQ9Ik0xMDIuNzc4LDI5NS45NzhjLTEuMTQ2LDAtMi4xNTktMC44MjEtMi4zNjMtMS45ODhjLTAuMjI5LTEuMzA3LDAuNjQ1LTIuNTUxLDEuOTUyLTIuNzggICAgICBsMjAuMDMxLTMuNTA2TDEwOS4wNCwyNzQuMWMtMC45My0wLjk0Ny0wLjkxNi0yLjQ2OCwwLjAzLTMuMzk3YzAuOTQ1LTAuOTMxLDIuNDY1LTAuOTE3LDMuMzk3LDAuMDNsMTYuNTU5LDE2Ljg2NiAgICAgIGMwLjYyNSwwLjYzNywwLjg0NywxLjU2OCwwLjU3NCwyLjQxN2MtMC4yNzMsMC44NDktMC45OTUsMS40NzgtMS44NzMsMS42MzJsLTI0LjUzMiw0LjI5MyAgICAgIEMxMDMuMDU1LDI5NS45NjYsMTAyLjkxNSwyOTUuOTc4LDEwMi43NzgsMjk1Ljk3OHoiLz4mI3hhOwkJCTwvZz4mI3hhOwkJPC9nPiYjeGE7CQk8Zz4mI3hhOwkJCTxwYXRoIHN0eWxlPSJmaWxsOiMzODE4Mzk7IiBkPSJNMzMxLjMzMywxOTYuNTY5bDIuNDM2LTE4LjAzbC0zMi40ODUsMzUuMWw0NC4wNTYsNS43NzlsLTExLjUxMS0xMC4zNzUgICAgIGMwLDAsNDMuMDEtMjkuMDYyLDMyLjI1NS02Ny4xOTJjLTkuMTMyLTMyLjM3NC0zNy4xOTktNDQuNDQ4LTM3LjE5OS00NC40NDhzMjkuNzEyLDE1Ljg3MywzMC41OTUsNTAuMTE5ICAgICBDMzYwLjI3OCwxNzguNTQ4LDMzMS4zMzMsMTk2LjU2OSwzMzEuMzMzLDE5Ni41Njl6Ii8+JiN4YTsJCTwvZz4mI3hhOwkJPGc+JiN4YTsJCQk8Zz4mI3hhOwkJCQk8Y2lyY2xlIHN0eWxlPSJmaWxsOiMzODE4Mzk7IiBjeD0iMjk1LjU1OSIgY3k9IjI4Ni45MzIiIHI9IjguOTk1Ii8+JiN4YTsJCQk8L2c+JiN4YTsJCQk8Zz4mI3hhOwkJCQkmI3hhOwkJCQkJPGVsbGlwc2UgdHJhbnNmb3JtPSJtYXRyaXgoMC4yMzA2IC0wLjk3MyAwLjk3MyAwLjIzMDYgMTYyLjg0ODggMjkzLjY4NzEpIiBzdHlsZT0iZmlsbDojMzgxODM5OyIgY3g9IjI2Ny4xNDMiIGN5PSI0My44NjMiIHJ4PSI4Ljk5NSIgcnk9IjguOTk1Ii8+JiN4YTsJCQk8L2c+JiN4YTsJCQk8Zz4mI3hhOwkJCQk8cGF0aCBzdHlsZT0iZmlsbDojRkZBNzYxOyIgZD0iTTc4Ljg2MiwzNzguMDA2YzAsOC43NS03LjA5MywxNS44NDMtMTUuODQzLDE1Ljg0M3MtMTUuODQ0LTcuMDkzLTE1Ljg0NC0xNS44NDMgICAgICBjMC04Ljc1LDcuMDk0LTE1Ljg0NCwxNS44NDQtMTUuODQ0Uzc4Ljg2MiwzNjkuMjU2LDc4Ljg2MiwzNzguMDA2eiIvPiYjeGE7CQkJPC9nPiYjeGE7CQkJPGc+JiN4YTsJCQkJJiN4YTsJCQkJCTxlbGxpcHNlIHRyYW5zZm9ybT0ibWF0cml4KDAuOTg3IC0wLjE2MSAwLjE2MSAwLjk4NyAtNTAuNTM1MyA1MC40Nzc4KSIgc3R5bGU9ImZpbGw6I0ZGQTc2MTsiIGN4PSIyODYuMjU4IiBjeT0iMzM3LjEyIiByeD0iMTUuODQzIiByeT0iMTUuODQzIi8+JiN4YTsJCQk8L2c+JiN4YTsJCQk8Zz4mI3hhOwkJCQk8cGF0aCBzdHlsZT0iZmlsbDojRkY4QzlEOyIgZD0iTTQyNi4zOTYsMTYyLjEyNmMwLDguNzUtNy4wOTMsMTUuODQ0LTE1Ljg0NCwxNS44NDRjLTguNzUsMC0xNS44NDMtNy4wOTMtMTUuODQzLTE1Ljg0NCAgICAgIGMwLTguNzUsNy4wOTMtMTUuODQzLDE1Ljg0My0xNS44NDNDNDE5LjMwMiwxNDYuMjgzLDQyNi4zOTYsMTUzLjM3Niw0MjYuMzk2LDE2Mi4xMjZ6Ii8+JiN4YTsJCQk8L2c+JiN4YTsJCTwvZz4mI3hhOwk8L2c+JiN4YTs8L2c+JiN4YTsmI3hhOyYjeGE7JiN4YTsmI3hhOyYjeGE7JiN4YTsmI3hhOyYjeGE7JiN4YTsmI3hhOyYjeGE7JiN4YTsmI3hhOyYjeGE7JiN4YTs8L3N2Zz4=;" vertex="1" parent="1">
                    <mxGeometry x="30" y="290" width="179.39" height="158" as="geometry"/>
                </mxCell>
                <mxCell id="4" style="edgeStyle=orthogonalEdgeStyle;curved=1;rounded=0;orthogonalLoop=1;jettySize=auto;html=1;exitX=0.5;exitY=1;exitDx=0;exitDy=0;entryX=0.5;entryY=0;entryDx=0;entryDy=0;fontColor=#000000;strokeColor=#FF8000;" edge="1" parent="1" source="5" target="10">
                    <mxGeometry relative="1" as="geometry"/>
                </mxCell>
                <mxCell id="5" value="创建" style="rounded=1;whiteSpace=wrap;html=1;sketch=0;fontColor=#000000;strokeWidth=3;" vertex="1" parent="1">
                    <mxGeometry x="366" y="50" width="120" height="60" as="geometry"/>
                </mxCell>
                <mxCell id="6" style="edgeStyle=orthogonalEdgeStyle;curved=1;rounded=0;orthogonalLoop=1;jettySize=auto;html=1;exitX=0;exitY=0.5;exitDx=0;exitDy=0;entryX=0.5;entryY=0;entryDx=0;entryDy=0;fontColor=#000000;strokeColor=#FF8000;" edge="1" parent="1" source="10" target="14">
                    <mxGeometry relative="1" as="geometry"/>
                </mxCell>
                <mxCell id="7" value="是" style="edgeLabel;html=1;align=center;verticalAlign=middle;resizable=0;points=[];fontColor=#000000;" vertex="1" connectable="0" parent="6">
                    <mxGeometry x="-0.2429" y="16" relative="1" as="geometry">
                        <mxPoint as="offset"/>
                    </mxGeometry>
                </mxCell>
                <mxCell id="8" style="edgeStyle=orthogonalEdgeStyle;curved=1;rounded=0;orthogonalLoop=1;jettySize=auto;html=1;exitX=1;exitY=0.5;exitDx=0;exitDy=0;fontColor=#000000;strokeColor=#FF8000;" edge="1" parent="1" source="10" target="16">
                    <mxGeometry relative="1" as="geometry"/>
                </mxCell>
                <mxCell id="9" value="否" style="edgeLabel;html=1;align=center;verticalAlign=middle;resizable=0;points=[];fontColor=#000000;" vertex="1" connectable="0" parent="8">
                    <mxGeometry x="0.3571" y="-11" relative="1" as="geometry">
                        <mxPoint as="offset"/>
                    </mxGeometry>
                </mxCell>
                <mxCell id="10" value="从模板创建" style="rhombus;whiteSpace=wrap;html=1;sketch=0;fontColor=#000000;strokeWidth=3;" vertex="1" parent="1">
                    <mxGeometry x="386" y="150" width="80" height="80" as="geometry"/>
                </mxCell>
                <mxCell id="11" value="" style="edgeStyle=orthogonalEdgeStyle;curved=1;rounded=0;orthogonalLoop=1;jettySize=auto;html=1;fontColor=#000000;strokeColor=#FF8000;" edge="1" parent="1" source="12" target="18">
                    <mxGeometry relative="1" as="geometry"/>
                </mxCell>
                <mxCell id="12" value="设置页面" style="rounded=0;whiteSpace=wrap;html=1;sketch=0;fontColor=#000000;strokeWidth=3;" vertex="1" parent="1">
                    <mxGeometry x="366" y="350" width="120" height="60" as="geometry"/>
                </mxCell>
                <mxCell id="13" style="edgeStyle=orthogonalEdgeStyle;curved=1;rounded=0;orthogonalLoop=1;jettySize=auto;html=1;exitX=0.5;exitY=1;exitDx=0;exitDy=0;entryX=0;entryY=0.5;entryDx=0;entryDy=0;fontColor=#000000;strokeColor=#FF8000;" edge="1" parent="1" source="14" target="12">
                    <mxGeometry relative="1" as="geometry"/>
                </mxCell>
                <mxCell id="14" value="模版" style="rounded=0;whiteSpace=wrap;html=1;sketch=0;fontColor=#000000;strokeWidth=3;" vertex="1" parent="1">
                    <mxGeometry x="256" y="260" width="120" height="60" as="geometry"/>
                </mxCell>
                <mxCell id="15" style="edgeStyle=orthogonalEdgeStyle;curved=1;rounded=0;orthogonalLoop=1;jettySize=auto;html=1;exitX=0.5;exitY=1;exitDx=0;exitDy=0;entryX=1;entryY=0.5;entryDx=0;entryDy=0;fontColor=#000000;strokeColor=#FF8000;" edge="1" parent="1" source="16" target="12">
                    <mxGeometry relative="1" as="geometry"/>
                </mxCell>
                <mxCell id="16" value="空白页面" style="rounded=0;whiteSpace=wrap;html=1;sketch=0;fontColor=#000000;strokeWidth=3;" vertex="1" parent="1">
                    <mxGeometry x="476" y="260" width="120" height="60" as="geometry"/>
                </mxCell>
                <mxCell id="17" value="" style="edgeStyle=orthogonalEdgeStyle;curved=1;rounded=0;orthogonalLoop=1;jettySize=auto;html=1;fontColor=#000000;strokeColor=#FF8000;" edge="1" parent="1" source="18" target="20">
                    <mxGeometry relative="1" as="geometry"/>
                </mxCell>
                <mxCell id="18" value="增/删/改组件" style="rounded=0;whiteSpace=wrap;html=1;sketch=0;fontColor=#000000;strokeWidth=3;" vertex="1" parent="1">
                    <mxGeometry x="366" y="450" width="120" height="60" as="geometry"/>
                </mxCell>
                <mxCell id="19" style="edgeStyle=orthogonalEdgeStyle;curved=1;rounded=0;orthogonalLoop=1;jettySize=auto;html=1;exitX=1;exitY=0.5;exitDx=0;exitDy=0;entryX=0.5;entryY=1;entryDx=0;entryDy=0;fontColor=#000000;strokeColor=#FF8000;" edge="1" parent="1" source="20" target="21">
                    <mxGeometry relative="1" as="geometry"/>
                </mxCell>
                <mxCell id="20" value="发布项目" style="rounded=0;whiteSpace=wrap;html=1;sketch=0;fontColor=#000000;strokeWidth=3;" vertex="1" parent="1">
                    <mxGeometry x="366" y="555" width="120" height="60" as="geometry"/>
                </mxCell>
                <mxCell id="21" value="" style="shape=image;verticalLabelPosition=bottom;labelBackgroundColor=#ffffff;verticalAlign=top;aspect=fixed;imageAspect=0;image=data:image/svg+xml,PHN2ZyB4bWxucz0iaHR0cDovL3d3dy53My5vcmcvMjAwMC9zdmciIHhtbG5zOnhsaW5rPSJodHRwOi8vd3d3LnczLm9yZy8xOTk5L3hsaW5rIiB2ZXJzaW9uPSIxLjEiIGlkPSJDYXBhXzEiIHg9IjBweCIgeT0iMHB4IiB2aWV3Qm94PSIwIDQxLjQ0Nzk5NDIzMjE3NzczNCA1MTEuOTk4OTAxMzY3MTg3NSA0MjkuMTA0MDAzOTA2MjUiIHN0eWxlPSJlbmFibGUtYmFja2dyb3VuZDpuZXcgMCAwIDUxMiA1MTI7IiB4bWw6c3BhY2U9InByZXNlcnZlIiB3aWR0aD0iNTExLjk5ODkwMTM2NzE4NzUiIGhlaWdodD0iNDI5LjEwNDAwMzkwNjI1Ij4mI3hhOzxnPiYjeGE7CTxnPiYjeGE7CQk8Zz4mI3hhOwkJCTxnPiYjeGE7CQkJCTxwYXRoIHN0eWxlPSJmaWxsOiNGRjhFREU7IiBkPSJNMzA3LjE4NiwyMTQuNDIyYy02LjAyNywwLTguOS03LjM4OC05LjAxOS0xNC4yNTRjLTAuMTA3LTYuMDk3LDAuNjkzLTIxLjgwNywxMC40MTItMzUuOTgzICAgICAgYzEwLjYyNi0xNS40OTgsMjEuNTY4LTI3LjAyNywzMi41MjItMzQuMjY3YzMuMTY0LTIuMDkzLDYuOTAzLTQuMjMyLDEwLjY1MS00LjIzMmMxLjUwOCwwLDIuOTE2LDAuMzQ4LDQuMTg5LDEuMDM1ICAgICAgYzMuMzMxLDEuODAzLDYuNzMyLDYuMjk3LDMuOTk5LDE3LjQ2N2MtNi4yMDgsMjUuMzktMzkuNjU4LDcwLjAyLTUyLjYzMyw3MC4yMyAgICAgIEMzMDcuMjk3LDIxNC40MTksMzA3LjE5NywyMTQuNDIyLDMwNy4xODYsMjE0LjQyMnoiLz4mI3hhOwkJCQk8cGF0aCBzdHlsZT0iZmlsbDojRkY4RURFOyIgZD0iTTIyMC43ODMsNDY4Ljg2M2MtMTYuNTA0LDAtMzQuNjczLTUuOTg1LTUxLjE2LTE2Ljg1M2MtMS40MTctMC45MzItMzQuNzctMjMuMDg0LTM1LjcyOS00MS41NzYgICAgICBjLTAuMjMxLTQuNjM3LDEuNTYxLTguNjI1LDUuMzI1LTExLjg1OWMyNC4zODktMjAuOTA0LDM4LjMzLTU0Ljg2MywzOC4yNTEtOTMuMTcybC0wLjAwOC0yLjYyMSAgICAgIGMtMC4wMTYtNS43MzgtMC4wMzMtMTEuNDc4LDAuMDQzLTE3LjIxOGMwLjA3Ni00LjgzLDIuMzg0LTUuODQzLDQuMzA0LTUuODQzYzIuNzg0LDAsNi42MjcsMi4zNDUsMTEuOTQ0LDUuNTg5ICAgICAgYzcuMzE2LDQuNDY1LDE3LjMzNywxMC41ODMsMjkuMDMsMTMuMTIyYzEuODI3LDAuNCwzLjY2MSwwLjYsNS40NTMsMC42YzEwLjM3NywwLDE5LjM1Ny02Ljc5MiwyOC44NjMtMTMuOTg0ICAgICAgYzExLjcyNS04Ljg2OSwyNS4wMTQtMTguOTE5LDQzLjk4MS0xOC45MTljMS41MTYsMCwzLjA3MSwwLjA2NCw0LjYxOCwwLjE5NGMxMi4wNzYsMC45OTYsMjMuMzM1LDcuMjU4LDMwLjg4OCwxNy4xNzkgICAgICBjNS45NDYsNy44MTEsMTIuMjM1LDIxLjM0Nyw4LjQyNyw0MS40ODNjLTIuMDkzLDExLjExNS02LjAxMiwyMC4xMi0xMi4zMjYsMjguMzM1Yy0yLjExOCwyLjc0OS00LjQ0Nyw1LjUxNS02LjkyNCw4LjIyOCAgICAgIGMtNy44NjUsOC41OTQtMTYuOTA5LDE2LjM4Mi0yNS42NTYsMjMuOTE1Yy0xNi45ODMsMTQuNjIzLTMzLjAyNSwyOC40MzgtNDEuODE3LDQ4LjAwNWMtMS40NTIsMy4yMzQtMi40NzksNi44NDgtMy40NzEsMTAuMzQxICAgICAgYy0yLjgwOSw5Ljg3My01LjcxMSwyMC4wODEtMTguMzEzLDIzLjE4OUMyMzEuNDcxLDQ2OC4yMzYsMjI2LjE4MSw0NjguODYzLDIyMC43ODMsNDY4Ljg2M3oiLz4mI3hhOwkJCTwvZz4mI3hhOwkJCTxwYXRoIHN0eWxlPSJvcGFjaXR5OjAuNTtmaWxsOiNGQzA5QjI7IiBkPSJNMzI1LjkyNiwzNjAuODcyYy0yMi41MywyNC42MjItNTMuODc2LDQyLjgzOC02Ny41NTUsNzMuMjggICAgIGMtNS41NTgsMTIuMzg5LTUuOTAyLDI4LjkwNy0yMS44NjMsMzIuODQ1Yy0yMi42MTYsNS41NTgtNDkuMjM5LTIuOTA4LTY4LjE2Mi0xNS4zODRjLTkuMjctNi4wOTktMzMuMjgtMjYuNjg1LTM0LjA2NC00MS43OTIgICAgIGMzMC44NTksOC41NzMsNDcuNTI3LDguNTI1LDY1LjAyMiwyLjJjMzQuNzYyLTEyLjU0Niw0OS44MTctMzYuNTQsNzguMjItNDYuMDcxICAgICBDMjk1LjM0OCwzNTkuOTU2LDMxMi42NjYsMzU5LjE0OCwzMjUuOTI2LDM2MC44NzJ6Ii8+JiN4YTsJCTwvZz4mI3hhOwkJPGc+JiN4YTsJCQk8cGF0aCBzdHlsZT0iZmlsbDojMDAwRTNGOyIgZD0iTTM1MS43NSwxMjcuMzc3YzEuMTU3LDAsMi4yOTksMC4yNDUsMy4zODYsMC44MzNjMTguOTUsMTAuMjUtMzIuNjgxLDg0LjI3NS00Ny44NTYsODQuNTIxICAgICBjLTAuMDMsMC0wLjA2MSwwLjAwMS0wLjA5MSwwLjAwMWMtNS4zNDUsMC03LjI0Ny03LjY2Mi03LjMzMi0xMi41OTJjLTAuMTE4LTYuNzEzLDAuOTA2LTIxLjU2NiwxMC4xMTctMzUgICAgIGM4LjU0My0xMi40NiwxOS4zNzQtMjUuNDI1LDMyLjA1OS0zMy44MTJDMzQ0LjcxMywxMjkuNTU2LDM0OC4zMDEsMTI3LjM3OCwzNTEuNzUsMTI3LjM3NyBNMzUxLjc1MSwxMjMuOTk4YzAsMCwwLDAtMC4wMDEsMCAgICAgYy00LjE5MywwLTguMjA4LDIuMjgtMTEuNTgyLDQuNTEyYy0xMS4xMzksNy4zNjMtMjIuMjM1LDE5LjA0NS0zMi45ODMsMzQuNzE5Yy05Ljk5NCwxNC41NzgtMTAuODE4LDMwLjcxLTEwLjcwNywzNi45NjkgICAgIGMwLjEzMiw3LjY2MywzLjU0LDE1LjkxMiwxMC43MTEsMTUuOTEyYzAuMDE4LDAsMC4xMjctMC4wMDEsMC4xNDQtMC4wMDJjOS41MTMtMC4xNTQsMjQuMzMtMTguNjI5LDMwLjI1OS0yNi41NjUgICAgIGM5LjM0LTEyLjUwMiwyMC41NDctMzAuODc3LDIzLjk4OS00NC45NTNjMi45ODctMTIuMjE3LTAuOTgyLTE3LjI2Ny00LjgzOC0xOS4zNTMgICAgIEMzNTUuMjIyLDEyNC40MTUsMzUzLjU0MiwxMjMuOTk4LDM1MS43NTEsMTIzLjk5OEwzNTEuNzUxLDEyMy45OTh6Ii8+JiN4YTsJCQk8cGF0aCBzdHlsZT0iZmlsbDojMDAwRTNGOyIgZD0iTTMwMS4wODEsMjY3LjgxOGMxLjQ1OCwwLDIuOTQ3LDAuMDYxLDQuNDc4LDAuMTg4YzIyLjM3MywxLjg0Nyw0NC4xMTksMjMuMjI3LDM3Ljc5NCw1Ni42NjUgICAgIGMtMi4xOTYsMTEuNjU3LTYuMzI1LDIwLjIzLTEyLjAwNiwyNy42MThjLTIuMTYsMi44MDUtNC40NDMsNS41MDYtNi44Myw4LjExOWMtMjIuNTMsMjQuNjIyLTU0LjA4Niw0MS45MjUtNjcuNzY1LDcyLjM2NSAgICAgYy01LjU1OSwxMi4zODktNC42ODcsMjguNjQ2LTIwLjY0OSwzMi41ODNjLTUuMDYsMS4yNDQtMTAuMTk0LDEuODE3LTE1LjMyMSwxLjgxN2MtMTcuNzg5LDAtMzUuNTQxLTYuODkxLTUwLjIyOS0xNi41NzUgICAgIGMtOS4yNy02LjA5OC0zNC4xODgtMjUuMTQ0LTM0Ljk3MS00MC4yNTFjLTAuMTkzLTMuODUxLDEuMTY3LTcuNDIzLDQuNzM5LTEwLjQ5YzI3LjQ0NC0yMy41MjMsMzguOTA5LTYwLjQ2MywzOC44NC05NC40NTkgICAgIGMtMC4wMTgtNi42MDQtMC4wNTQtMTMuMjA4LDAuMDM0LTE5LjgxMWMwLjA0Ni0yLjk3OSwwLjk1Mi00LjE3NywyLjYxNi00LjE3N2M1Ljc2MSwwLDIwLjYzMiwxNC4zMzMsNDAuNjE1LDE4LjY3NCAgICAgYzIuMDAxLDAuNDM2LDMuOTMzLDAuNjM4LDUuODExLDAuNjM4QzI1Mi4xOTIsMzAwLjcyMywyNjcuMjA2LDI2Ny44MjEsMzAxLjA4MSwyNjcuODE4IE0zMDEuMDg1LDI2NC40Mzh2My4zNzlsLTAuMDAyLTMuMzc5ICAgICBoLTAuMDAyYy0xOS41MzUsMC4wMDItMzMuMDY0LDEwLjIzNS00NS4wMDEsMTkuMjY0Yy05LjY3Nyw3LjMyLTE4LjAzNCwxMy42NDEtMjcuODQzLDEzLjY0MWMtMS42NzIsMC0zLjM4NS0wLjE4OS01LjA5MS0wLjU2MSAgICAgYy0xMS40MTgtMi40OC0yMS4yOTktOC41MTEtMjguNTEzLTEyLjkxNGMtNS43NTktMy41MTUtOS41NjMtNS44MzctMTIuODIyLTUuODM3Yy0xLjM3OSwwLTUuODg1LDAuNTQtNS45OTUsNy41MDIgICAgIGMtMC4wNzcsNS43NzgtMC4wNiwxMS42MzItMC4wNDIsMTcuMjkybDAuMDA3LDIuNTgyYzAuMDc3LDM3LjgxMy0xMy42NSw3MS4zMDQtMzcuNjYsOTEuODg0ICAgICBjLTQuMTg1LDMuNTk0LTYuMTczLDguMDQzLTUuOTE0LDEzLjIyNWMxLjAwMiwxOS4zNDcsMzUuMDQxLDQxLjk1MiwzNi40ODksNDIuOTA1YzE2Ljc1NSwxMS4wNDYsMzUuMjUzLDE3LjEzMSw1Mi4wODcsMTcuMTMxICAgICBjNS41MzMsMCwxMC45NTktMC42NDQsMTYuMTI4LTEuOTE1YzEzLjU1Ni0zLjM0MywxNi43MzMtMTQuNTE0LDE5LjUzNi0yNC4zN2MwLjk3OC0zLjQzNSwxLjk4Ny02Ljk4OCwzLjM5LTEwLjExMyAgICAgYzguNjM3LTE5LjIyMSwyNC41NC0zMi45MTUsNDEuMzc2LTQ3LjQxNGM4Ljc4NC03LjU2NCwxNy44NjgtMTUuMzg2LDI1Ljc5OC0yNC4wNTNjMi41MDQtMi43NCw0Ljg2My01LjU0NSw3LjAxNS04LjMzOSAgICAgYzYuNDg2LTguNDMzLDEwLjUwNC0xNy42NjUsMTIuNjQ5LTI5LjA1NWMzLjA2Mi0xNi4xODYtMC4wNDQtMzEuMzkyLTguNzQzLTQyLjgxOWMtNy44NDMtMTAuMzAxLTE5LjU0LTE2LjgwMy0zMi4wOTQtMTcuODQgICAgIEMzMDQuMjQ1LDI2NC41MDYsMzAyLjY0NiwyNjQuNDM4LDMwMS4wODUsMjY0LjQzOEwzMDEuMDg1LDI2NC40Mzh6Ii8+JiN4YTsJCTwvZz4mI3hhOwk8L2c+JiN4YTsJPGc+JiN4YTsJCTxnPiYjeGE7CQkJPHBhdGggc3R5bGU9ImZpbGw6IzMyMkJCRjsiIGQ9Ik0yMzkuMjI0LDM0My4wMjljLTQuMjIsMC04LjI3MS0xLjc5NC0xMS4xMTMtNC45MjFjLTIuMTYxLTIuMzU1LTMuNDkyLTUuMjk5LTMuODM4LTguNTA2ICAgICBsLTI2LjIwMi0yNDEuNTJjLTAuODk1LTguMjQ4LDUuMDg4LTE1LjY4OSwxMy4zMzgtMTYuNTg1bDEwNy4xNTgtMTEuNjI0YzAuNTUzLTAuMDYyLDEuMTAxLTAuMDkxLDEuNjQ2LTAuMDkxICAgICBjNy42ODcsMCwxNC4xMSw1Ljc3MywxNC45MzksMTMuNDI5bDI2LjIwMiwyNDEuNTJjMC44OTUsOC4yNS01LjA4OCwxNS42ODktMTMuMzM4LDE2LjU4M2wtMTA3LjE1OCwxMS42MjYgICAgIEMyNDAuMzA5LDM0My4wMDEsMjM5Ljc2NSwzNDMuMDI5LDIzOS4yMjQsMzQzLjAyOXoiLz4mI3hhOwkJCTxwYXRoIHN0eWxlPSJmaWxsOiNGRkZGRkY7IiBkPSJNMjQ2LjEzNCwzMDcuODU5Yy0xLjQ1NiwwLTIuODYzLTAuMjY2LTQuMTc5LTAuNzk2bC0wLjIyNS0wLjA4OSAgICAgYy0wLjA1Ni0wLjAyMS0wLjIyNy0wLjA4My0wLjQzMS0wLjIyMWMtMy40NzctMS42MjctNS44OTEtNS4wMS02LjMxNy04Ljg3NWwtMi4zMjItMjEuNTQ3bC01LjA3LTQ2LjY0bC00LjQ5Mi00MS41NTkgICAgIGwtOS4xLTgzLjc2NWMtMC4zMjItMi45NzYsMC41MzQtNS44OTksMi40MDctOC4yMjdjMS44NzMtMi4zMjgsNC41MzctMy43ODcsNy41MDMtNC4xMDRsODYuODUyLTkuNDI4ICAgICBjMC40MDgtMC4wNDUsMC44MTktMC4wNjgsMS4yMjktMC4wNjhjMS41MzksMCwzLjAyOCwwLjMxMSw0LjQyOCwwLjkyOGMxLjIyNSwwLjUxNiwyLjM2NCwxLjI2OCwzLjM1MiwyLjIzMiAgICAgYzAuOTM4LDAuOTI2LDEuNjg5LDEuOTcyLDIuMjQsMy4xMTZjMC41NTUsMS4wNzksMC45MzYsMi4zNzIsMS4wODMsMy42OThsMjAuOTg4LDE5My41NGMwLjMxNCwyLjk3Mi0wLjUzOCw1Ljg4Mi0yLjM5Nyw4LjIwMSAgICAgYy0xLjg4NSwyLjM1My00LjU1NiwzLjgyMi03LjUyLDQuMTMzbC04Ni44NDgsOS40MTFDMjQ2LjkxMywzMDcuODQxLDI0Ni41MjMsMzA3Ljg1OSwyNDYuMTM0LDMwNy44NTl6Ii8+JiN4YTsJCQk8cGF0aCBzdHlsZT0iZmlsbDojNjI4MEZGOyIgZD0iTTI5Mi41MjIsMzI5LjUzOWMtNS4xMDcsMC05LjM3Mi0zLjgzMi05LjkyMy04LjkxNmMtMC41OTQtNS40NzgsMy4zOC0xMC40MTYsOC44NTYtMTEuMDA4ICAgICBjMC4zNjUtMC4wNDEsMC43MjgtMC4wNiwxLjA4Ny0wLjA2YzUuMTA3LDAsOS4zNzIsMy44MzIsOS45MjMsOC45MTRjMC41OTQsNS40NzYtMy4zOCwxMC40MTYtOC44NTYsMTEuMDEgICAgIEMyOTMuMjQzLDMyOS41MiwyOTIuODgsMzI5LjUzOSwyOTIuNTIyLDMyOS41MzlMMjkyLjUyMiwzMjkuNTM5eiIvPiYjeGE7CQkJPHBhdGggc3R5bGU9Im9wYWNpdHk6MC4yNTtmaWxsOiMwMDBFM0Y7IiBkPSJNMzM0LjU3NCw3My4zNzNsMjYuNzgsMjQxLjM1OWMwLjc5Nyw3LjM0Mi01Ljk5NywxNS43ODYtMTMuMzM4LDE2LjU4MyAgICAgbC0xMDcuMzQsOS45NDdjLTQuNDAxLDAuNDc4LTguNTUtMS4yNDYtMTEuMzE1LTQuMjljMjAuODM0LTI1LjU5Myw4OS4wMDItMTIuNjMsMTA0LjU3Mi0yNS42NjIgICAgIGMxNC4wNzEtMTEuNzksNi42MjEtMzUuOTk1LDUuMjA0LTUxLjQ2OGMtMy40NDYtMzcuNDQ2LTEzLjg0My0xNTAuNjczLTIxLjgxMy0xOTkuMjc4aDIuMzA2ICAgICBDMzI2Ljk3MSw1OS43NjcsMzMzLjc3Nyw2Ni4wMzEsMzM0LjU3NCw3My4zNzN6Ii8+JiN4YTsJCQk8cGF0aCBzdHlsZT0iZmlsbDojRkY4RURFOyIgZD0iTTIzOC40MjQsMTQ5LjgzOGMtNC4yMjQsMC03Ljc1OS0zLjE3LTguMjIzLTcuMzczYy0wLjUwMy00LjU0LDIuNzgyLTguNjQyLDcuMzIyLTkuMTQzICAgICBjMC4zMDktMC4wMzUsMC42MTUtMC4wNTIsMC45MTgtMC4wNTJjNC4yMjQsMCw3Ljc2MSwzLjE3LDguMjI1LDcuMzc2YzAuMjQzLDIuMTk5LTAuMzg0LDQuMzYtMS43NjgsNi4wODYgICAgIGMtMS4zODQsMS43MjYtMy4zNTgsMi44MTEtNS41NTYsMy4wNTVDMjM5LjAzMiwxNDkuODIyLDIzOC43MjcsMTQ5LjgzOCwyMzguNDI0LDE0OS44MzhMMjM4LjQyNCwxNDkuODM4eiIvPiYjeGE7CQkJPHBhdGggc3R5bGU9ImZpbGw6I0ZDMDlCMjsiIGQ9Ik0yNTYuNDEzLDI4Mi4xMzRjLTQuMjM2LDAtMTEuNjI4LTUuMzMtMTIuOTA5LTEwLjMwNGMtMC41MjQtMi4wMzQtMC4xNDItNC4wODIsMS4wNDgtNS42MTggICAgIGMxLjA0NC0xLjM0NSwyLjYxMy0yLjExOCw0LjMxMS0yLjExOGwwLjMzOCwwLjAxYzIuNjAxLDAuMTUyLDQuNzE3LDEuNjg1LDYuMTIsMy4wNjljMC4yNDUtMC40LDAuNTEzLTAuNzkyLDAuNzg4LTEuMTIgICAgIGMyLjM2Ni0yLjgyNCw0LjYyOC0zLjQxOCw2LjEwOS0zLjQxOGMxLjc3LDAsMy4zODcsMC44NTQsNC40MzgsMi4zNDVjMS4yODEsMS44MTMsMS41NDksNC4yOTQsMC43MTYsNi42NDEgICAgIGMtMS40MTMsMy45NzUtNS4xMzgsOC43ODQtOS41MjksMTAuMjlDMjU3LjQxMiwyODIuMDYsMjU2LjkzMSwyODIuMTM0LDI1Ni40MTMsMjgyLjEzNHoiLz4mI3hhOwkJCTxwYXRoIHN0eWxlPSJmaWxsOiMwMEQ1RkU7IiBkPSJNMjMxLjk3LDI1Ni4wMzNjLTAuMzgyLDAtMC43NTUtMC4xMy0xLjA1Ni0wLjM3MWMtMC4zNTEtMC4yOC0wLjU3My0wLjY4Ny0wLjYyMy0xLjEzMiAgICAgYy0wLjA2OC0wLjYxNy02LjQ5OS01OS44MzgtNi40OTktNTkuODM4Yy0xLjc0OS0xNi4yMzItMy4yMi0yOS43ODktMy4zNzgtMzEuMjNjLTAuMTAzLTAuOTI4LDAuNTY1LTEuNzYzLDEuNDkzLTEuODY0ICAgICBsMTA1LjctMTEuNjgyYzAuMDYyLTAuMDA4LDAuMTI0LTAuMDEsMC4xODYtMC4wMWMwLjM4NCwwLDAuNzU3LDAuMTMsMS4wNTgsMC4zNzFjMC4zNDgsMC4yODEsMC41NzMsMC42ODksMC42MjEsMS4xMzYgICAgIGw2LjA1Myw1NS45MzdsMy44MjYsMzUuMTI5YzAuMTAxLDAuOTI2LTAuNTY3LDEuNzYxLTEuNDkzLDEuODYybC0xMDUuNzAxLDExLjY4MiAgICAgQzIzMi4wOTQsMjU2LjAzMSwyMzIuMDMyLDI1Ni4wMzMsMjMxLjk3LDI1Ni4wMzN6Ii8+JiN4YTsJCQk8cGF0aCBzdHlsZT0iZmlsbDojNjI4MEZGOyIgZD0iTTIzMS45NywyNTYuMDMzYy0wLjM4MiwwLTAuNzU1LTAuMTMtMS4wNTYtMC4zNzFjLTAuMzUxLTAuMjgtMC41NzMtMC42ODctMC42MjMtMS4xMzIgICAgIGMtMC4zMzgtMy4wNjktMi4zMDItMjEuMS0zLjk4My0zNi41NzNjLTAuNTg2LTUuNDg0LTIuNTE2LTIzLjI2NS0yLjUxNi0yMy4yNjVjLTAuMDUyLTAuNDY2LDAuMDkxLTAuOTMyLDAuMzk2LTEuMjg5bDUuNDctNi4zNzEgICAgIGMxLjg3OS0yLjIwMyw0LjYyNi0zLjQ2Nyw3LjUzMi0zLjQ2N2MyLjM2OCwwLDQuNjYzLDAuODUsNi40NjIsMi4zOTJsMC4yODEsMC4yNTRjMy40MTcsMy4wNjEsMTIuMzI4LDExLjAxLDIwLjkyLDE4LjQ1NyAgICAgYzEyLjE1NCwxMC41MDIsMTYuMjEzLDEzLjU3NywxNy41NjYsMTQuNDQ4YzAuODYyLTAuOCwyLjk5MS0zLjE0Myw4LjIxNS05LjkzM2M1LjgyLTcuNTk4LDEyLjI3LTE2LjU1OCwxMi4zMzQtMTYuNjQ3ICAgICBjMS45NzYtMi4zODgsNC43NjYtMy42OTYsNy43MzktMy42OTZjMi4zMzUsMCw0LjYwOCwwLjgyNyw2LjM5OCwyLjMyN2wxNC44MTksMTIuNTE5bDMuMDE1LDIuNTYgICAgIGMwLjMzLDAuMjgsMC41NCwwLjY3NiwwLjU4NiwxLjEwNmwzLjgyNiwzNS4xMjdjMC4xMDEsMC45MjYtMC41NjcsMS43NjEtMS40OTMsMS44NjJsLTEwNS43MDEsMTEuNjgyICAgICBDMjMyLjA5NCwyNTYuMDMxLDIzMi4wMzIsMjU2LjAzMywyMzEuOTcsMjU2LjAzM3oiLz4mI3hhOwkJCTxnPiYjeGE7CQkJCTxnPiYjeGE7CQkJCQk8cGF0aCBzdHlsZT0iZmlsbDojRkZGRkZGOyIgZD0iTTI2My43NDUsMjA1Ljk0NWMtNC4xMTEsNi4yMjItMTIuNDY2LDkuNjMyLTE5LjQ4NCw3LjA4M2MtMS43OTMtMC42NTUtMy41MjItMS42NDktNS40MjgtMS43NTYgICAgICAgYy00LjMzNS0wLjI0NC03LjI0OCwzLjg4LTEwLjg0Niw2LjUwNGMtMC43NTMtNy4wNzItMS41NTQtMTQuNDQ0LTIuMzA4LTIxLjQwMWwtMC4yMDctMS44NzFsNS40NjktNi4zNzIgICAgICAgYzIuOTU3LTMuNDY0LDguMTYxLTMuODUxLDExLjYxMS0wLjg5M2wwLjI0MSwwLjIxOUMyNDQuNDQ1LDE4OC45MzgsMjU0LjI2NCwxOTcuNzI3LDI2My43NDUsMjA1Ljk0NXoiLz4mI3hhOwkJCQk8L2c+JiN4YTsJCQkJPGc+JiN4YTsJCQkJCTxwYXRoIHN0eWxlPSJmaWxsOiNGRkZGRkY7IiBkPSJNMzMwLjgzMiwyMDQuOTc4Yy0zLjY1NCwyLjM4NC04LjI4NiwzLjI1OC0xMi4zODMsMS43NTljLTEuNTUyLTAuNTY2LTMuMDQ5LTEuNDI3LTQuNjkzLTEuNTIgICAgICAgYy00LjM4LTAuMjUzLTcuMDgzLDQuNzE1LTExLjAzMiw2LjY1NmMtMy40NDMsMS42ODEtNy43NjUsMC43NzEtMTAuNzUxLTEuNjZjNS43NDgtNy41MDIsMTIuMDI4LTE2LjIxOSwxMi4zNjYtMTYuNjkxICAgICAgIGwwLjAxMi0wLjAxNWMyLjkyMi0zLjUxOCw4LjE2Mi0zLjk4MSwxMS42NjctMS4wNDRMMzMwLjgzMiwyMDQuOTc4eiIvPiYjeGE7CQkJCTwvZz4mI3hhOwkJCTwvZz4mI3hhOwkJCTxwYXRoIHN0eWxlPSJmaWxsOiNGRkNGMDA7IiBkPSJNMjc5LjU0MiwxOTIuMDc2Yy0yLjc3MiwwLTUuNDItMS4xMy03LjQ2LTMuMTg0Yy0xLjgyNS0xLjg0Mi0yLjk1OC00LjI1NS0zLjE4OS02Ljc5NiAgICAgYy0wLjUyOC01LjU2MSwzLjkxMS0xMC43ODksOS42OTQtMTEuNDEyYzAuMzg2LTAuMDQxLDAuNzY5LTAuMDYyLDEuMTUxLTAuMDYyYzAuODAyLDAsMS42MDMsMC4wOTMsMi4zNzgsMC4yNzkgICAgIGM0LjU2NiwwLjk5Miw3Ljk3Miw0LjkwNSw4LjI0Niw5LjUwNmMwLjM2Nyw2LjExNy0zLjc2NCwxMS4wMDMtOS44MjQsMTEuNjJDMjgwLjIwMiwxOTIuMDYsMjc5Ljg3LDE5Mi4wNzYsMjc5LjU0MiwxOTIuMDc2eiIvPiYjeGE7CQkJPHBhdGggc3R5bGU9Im9wYWNpdHk6MC41O2ZpbGw6I0ZEOEEwMjsiIGQ9Ik0yODguNjc2LDE4MC41MDhjMC4zMjUsNS40MjgtMy40Miw5LjM0MS04LjMwOSw5LjgzOCAgICAgYy0yLjY4OSwwLjI2OC01LjI0OS0wLjc5My03LjA4Ny0yLjY0M2M5LjM4My0zLjEzNCw5Ljg0LTkuODQ4LDguNDQ0LTE1LjE1OEMyODUuNDcxLDE3My4zNTksMjg4LjQzNSwxNzYuNTAxLDI4OC42NzYsMTgwLjUwOHoiLz4mI3hhOwkJCTxnIHN0eWxlPSJvcGFjaXR5OjAuMTg7Ij4mI3hhOwkJCQk8cGF0aCBzdHlsZT0iZmlsbDojMDAwRTNGOyIgZD0iTTIyOC41MDEsMTA4LjgwOWMxNy42NjUtNC4wMjEsNDkuMzE3LTcuNTI1LDY3LjU1NC03LjQyMWMwLjg1NSwwLjAwNSwxLjU0MywwLjcwMiwxLjUzOSwxLjU1NiAgICAgIGMtMC4wMDUsMC43MzQtMC41MjEsMS4zNDYtMS4yMDgsMS41MDFjLTE3LjkwNyw0LjAzOS00OS41MTcsNy4zNzctNjcuNTc0LDcuMjM5ICAgICAgQzIyNy4wOTYsMTExLjY3MSwyMjYuODIxLDEwOS4xOTIsMjI4LjUwMSwxMDguODA5eiIvPiYjeGE7CQkJCTxwYXRoIHN0eWxlPSJmaWxsOiMwMDBFM0Y7IiBkPSJNMzIxLjQxMyw5Mi43MDFMMzQyLjQsMjg2LjIzYzAuMjcxLDIuNTI0LTAuNDU1LDUuMDEtMi4wMjksNi45NzEgICAgICBjLTEuNTksMS45NzktMy44NjgsMy4yMy02LjM5MSwzLjUwMWMtODYuMzgzLDkuMDAxLTg5LjIwNiwxMC42ODItOTEuODExLDguNjFjMS4wMDgtMTEuNTEsMTEuMTE5LTIwLjQyNiwzNy44MTUtMjIuNDI1ICAgICAgYzYzLjM0MS00Ljc3OSw0MC4xNDQtMzQuODkzLDMwLjM1Ny0xNjkuMDU5Yy0wLjcwMi05LjU1MSwzLjA3NC0xOC42MDIsMTAuMTQxLTI0LjI4MSAgICAgIEMzMjAuOTgyLDkwLjUzMSwzMjEuMjg4LDkxLjYwNSwzMjEuNDEzLDkyLjcwMXoiLz4mI3hhOwkJCTwvZz4mI3hhOwkJPC9nPiYjeGE7CQk8Zz4mI3hhOwkJCTxwYXRoIHN0eWxlPSJmaWxsOiMwMDBFM0Y7IiBkPSJNMzYzLjAzNSwzMTQuNTQ3TDMzNi44MzMsNzMuMDI4Yy0wLjkyNS04LjUxNS04LjA3MS0xNC45MzUtMTYuNjIzLTE0LjkzNSAgICAgYy0wLjYwNywwLTEuMjIxLDAuMDM0LTEuODI1LDAuMDk5TDIxMS4yMjcsNjkuODE4Yy00LjQ0MiwwLjQ4Mi04LjQzMiwyLjY2NS0xMS4yMzQsNi4xNDdjLTIuODA1LDMuNDg1LTQuMDg0LDcuODUzLTMuNjAyLDEyLjMgICAgIGwyNi4yMDMsMjQxLjUxOWMwLjM4OCwzLjU3LDEuODY4LDYuODQ1LDQuMjc5LDkuNDczYzMuMTQ4LDMuNDY3LDcuNjU1LDUuNDYzLDEyLjM1LDUuNDYzYzAuNjA0LDAsMS4yMTYtMC4wMzMsMS44MTktMC4wOTggICAgIGwxMDcuMTU3LTExLjYyNmM0LjQ0OS0wLjQ4Myw4LjQ0MS0yLjY2NiwxMS4yNDItNi4xNDhDMzYyLjI0MSwzMjMuMzY0LDM2My41MTcsMzE4Ljk5NiwzNjMuMDM1LDMxNC41NDd6IE0zNDcuODM0LDMyOS42MzYgICAgIGwtMTA3LjE1OCwxMS42MjZjLTAuNDg4LDAuMDUzLTAuOTczLDAuMDc5LTEuNDU0LDAuMDc5Yy0zLjg1MSwwLTcuNDAyLTEuNjYyLTkuODYxLTQuMzY4Yy0xLjg1Mi0yLjAxOC0zLjA5MS00LjYyNy0zLjQwOC03LjU1MiAgICAgTDE5OS43NSw4Ny45MDFjLTAuNzk2LTcuMzQyLDQuNTE1LTEzLjkyOSwxMS44NDEtMTQuNzIzbDEwNy4xNTgtMTEuNjI2YzAuNDktMC4wNTQsMC45NzktMC4wNzksMS40Ni0wLjA3OSAgICAgYzYuNzM2LDAsMTIuNTIsNS4wNjksMTMuMjY0LDExLjkybDI2LjIwMiwyNDEuNTJDMzYwLjQ3MiwzMjIuMjU1LDM1NS4xNzUsMzI4LjgzOSwzNDcuODM0LDMyOS42MzZ6Ii8+JiN4YTsJCQk8cGF0aCBzdHlsZT0iZmlsbDojMDAwRTNGOyIgZD0iTTM0MS4wOTEsMjQyLjgzMWwtMC45NzQtOC45MTRsLTAuMDYxLTAuNTU4bC0wLjE0Ny0xLjM1M2wtOC4wMzItNzQuMWwtMC42NjUtNi4xNDIgICAgIGMwLDAtNi40MzgtNTkuNDI3LTYuNDM4LTU5LjQyN2MtMC41MDMtNC41MjgtMy41MTUtOC42NjItNy43MjctMTAuNDM1Yy0yLjAyNi0wLjg1My00LjI4Ni0xLjIxMy02LjQ3NC0wLjk3MmwtODYuODQ4LDkuNDI2ICAgICBjLTMuNDEyLDAuMzY4LTYuNDgsMi4wNDYtOC42MzYsNC43MjdjLTIuMTU2LDIuNjgtMy4xNCw2LjA0Mi0yLjc3Miw5LjQ2NmMwLDAsNi40MTgsNTkuMDk2LDYuNDE4LDU5LjA5OSAgICAgYzAuMDA5LDAuMDc5LDAuMDIzLDAuMjA4LDAuMDM5LDAuMzU4bDAuMDE5LDAuMTcxbDAuMjQ3LDIuMjcyYzAuNTQzLDUuMDAzLDEuNzIzLDE1LjkwMywzLjA3NCwyOC40MmwwLjIwNywxLjg3OGwwLjA1OCwwLjUzNCAgICAgYzAuNzM3LDYuNzk2LDEuNTE2LDEzLjk2NiwyLjI0OSwyMC44NTRjMS42ODIsMTUuNDgxLDMuNjQ2LDMzLjUxMSwzLjk4NiwzNi41ODRsMC4wNTcsMC41MjdsMi4zMDcsMjEuMjY5bDIuMzIzLDIxLjU0MiAgICAgYzAuODkyLDguMDYyLDcuODE1LDEwLjQxOSw4LjAyNywxMC41NzhjNS44NzQsMi4zNjMsNC45MjQsMC4yNjUsOTMuMDI1LTguNTY1YzMuNDAzLTAuMzU2LDYuNDgtMi4wNDYsOC42NTEtNC43NTcgICAgIGMyLjEzNi0yLjY2NywzLjExNS02LjAxNCwyLjc1OS05LjQyNkwzNDEuMDkxLDI0Mi44MzF6IE0zMzMuMzE4LDIwMi42NTVsLTAuMjk5LTAuMjU0bC0xNC44MTktMTIuNTIgICAgIGMtMi4xMDUtMS43NjQtNC43NjItMi43My03LjQ5My0yLjczYy0zLjQ3NiwwLTYuNzQsMS41MjktOC45NTQsNC4xOTVjLTAuMDUyLDAuMDYxLTAuMTEyLDAuMTQtMC4xNTksMC4yMDQgICAgIGMtMC4wNjIsMC4wODctNi40ODgsOS4wMTYtMTIuMzAzLDE2LjYwNmMtMy44NSw1LjAwNi01Ljk1Miw3LjUwMy03LjA4NCw4Ljc0OGMtMS45OTgtMS40NzgtNi40MjktNS4wMjgtMTYuMjUzLTEzLjUxNiAgICAgYy04Ljk4OC03Ljc5Mi0xOC4yNzUtMTYuMDkxLTIwLjkwNy0xOC40NDhsLTAuMjIxLTAuMjAxYy0yLjE4LTEuODcyLTQuODY1LTIuODY2LTcuNjM2LTIuODY2Yy0zLjQsMC02LjYxNSwxLjQ4MS04LjgxOSw0LjA2MyAgICAgbC0zLjM4NSwzLjk0NWwtMC4yMDktMS45M2wtMi42MjYtMjQuMTQybC0wLjA1OC0wLjUzNGwxMDUuNy0xMS42ODNDMzMwLjI3MSwxNzQuNDY2LDMzMi4wMzksMTkwLjgyOCwzMzMuMzE4LDIwMi42NTV6ICAgICAgTTIzMS45NzIsMjU0LjM0NGwtMC40ODktNC40OWMtMC44MTItNy40OTEtMi41MTMtMjMuMTg2LTQuMjUzLTM5LjIwMmwtMS43NDctMTYuMTYxbDUuNDU3LTYuMzU5ICAgICBjMS42MjUtMS45MDQsMy45My0yLjg3OCw2LjI0OS0yLjg3OGMxLjksMCwzLjgwOCwwLjY1NCw1LjM2MSwxLjk4NWwwLjI0MSwwLjIyYzEuNjUyLDEuNDgsMTEuNDcxLDEwLjI2OCwyMC45NTIsMTguNDg3ICAgICBjNy4zODEsNi4zNzcsMTQuNTM4LDEyLjQxMSwxNy40ODksMTQuNDAzbDE3LjM5MSwxMi4zMTljMC4yOTcsMC4yMTEsMC42MzksMC4zMTIsMC45NzYsMC4zMTJjMC41MywwLDEuMDUyLTAuMjQ4LDEuMzgtMC43MTIgICAgIGMwLjU0LTAuNzYzLDAuMzYxLTEuODE3LTAuNC0yLjM1NWwtMTUuNTk5LTExLjA1MWMxLjgtMi4wMSw0LjMzLTUuMTg5LDYuOTkyLTguNjVjNS43NDgtNy41MDIsMTIuMDI4LTE2LjIxOSwxMi4zNjYtMTYuNjkxICAgICBsMC4wMTItMC4wMTVjMS42MzEtMS45NjQsMy45ODUtMi45NzUsNi4zNTUtMi45NzVjMS44NzYsMCwzLjc2MywwLjYzNCw1LjMxMiwxLjkzMWwxNC44MTQsMTIuNTE1bDMuMDE0LDIuNTU5ICAgICBjMy43ODcsMzQuNzgyLDIuNTIyLDIzLjIxMiwzLjgyNCwzNS4xMjRMMjMxLjk3MiwyNTQuMzQ0eiBNMjI0LjA5LDkzLjcxNGMwLDAsODYuODM2LTkuNDI1LDg2Ljg1My05LjQyNyAgICAgYzIuNzU5LTAuMjk5LDUuNjYxLDAuNjg3LDcuNjQ4LDIuNjI1YzEuNTM4LDEuNDk5LDIuNTgzLDMuNjI2LDIuODI0LDUuNzg4YzAsMCw2LjAxNiw1NS41MzQsNi4wMDgsNTUuNTM0bC0xMDUuNjkzLDExLjY4MiAgICAgbC02LjA1My01NS43MzFDMjE1LjExMyw5OC45NTcsMjE4Ljg4OSw5NC4yNzQsMjI0LjA5LDkzLjcxNHogTTM0MC4zNjcsMjkzLjE5OGMtMS41ODgsMS45ODMtMy44NjMsMy4yNDYtNi4zNzcsMy41MDkgICAgIGMtODUuMTA3LDguNzEyLTg5LjYwMSwxMC44MzktOTEuODE4LDguNTg3Yy0zLjA0MS0xLjM1NS01LjE0My00LjI3NS01LjUxMS03LjYwMmwtMi4zMjMtMjEuNTQ0bC0yLTE4LjQ0NiAgICAgYzAuMDAyLDAsMC4wMDQsMCwwLjAwNiwwbDEwNS42OTUtMTEuNjg0bDQuMzY1LDQwLjIxNkMzNDIuNjY1LDI4OC43NTEsMzQxLjk0MSwyOTEuMjMyLDM0MC4zNjcsMjkzLjE5OHoiLz4mI3hhOwkJCTxwYXRoIHN0eWxlPSJmaWxsOiMwMDBFM0Y7IiBkPSJNMjkxLjI3MywzMDcuOTMzYy02LjQxOCwwLjY5Ny0xMS4wNSw2LjQ1My0xMC4zNTQsMTIuODc0YzAuNjk5LDYuNDQyLDYuNDYxLDExLjA1LDEyLjg3MiwxMC4zNTMgICAgIGM2LjQxNy0wLjY5NywxMS4wNS02LjQ1MywxMC4zNTQtMTIuODc0QzMwMy41LDMxMi4zNDUsMjk3LjY4NCwzMDcuMjM2LDI5MS4yNzMsMzA3LjkzM3ogTTI5Mi41MjMsMzI3Ljg0OSAgICAgYy00LjE4NCwwLTcuNzgzLTMuMTU0LTguMjQ0LTcuNDA4Yy0wLjQ5NS00LjU1OCwyLjgtOC42NTQsNy4zNTgtOS4xNDljNC41NjUtMC40OTUsOC42NTUsMi44MDYsOS4xNDgsNy4zNTggICAgIEMzMDEuMjgsMzIzLjIwOSwyOTcuNDY0LDMyNy44NDksMjkyLjUyMywzMjcuODQ5eiIvPiYjeGE7CQkJPHBhdGggc3R5bGU9ImZpbGw6IzAwMEUzRjsiIGQ9Ik0yMzguNDI0LDE1MS41MjdjMC4zNjUsMCwwLjczMy0wLjAyLDEuMTA1LTAuMDYxYzUuNDY2LTAuNjA0LDkuNDItNS41NDIsOC44MTYtMTEuMDA4ICAgICBjLTAuNTYtNS4wNi00LjgxNy04Ljg3Ny05LjkwMy04Ljg3N2MtMC4zNjUsMC0wLjczMywwLjAxOS0xLjEwNCwwLjA2MWMtMi42NDcsMC4yOTItNS4wMjMsMS41OTctNi42ODksMy42NzcgICAgIGMtMS42NjYsMi4wNzktMi40MjEsNC42ODItMi4xMjgsNy4zM0MyMjkuMDgsMTQ3LjcxMSwyMzMuMzM4LDE1MS41MjcsMjM4LjQyNCwxNTEuNTI3eiBNMjM3LjcwOCwxMzUuMDAyICAgICBjMC4yNDYtMC4wMjcsMC40OTEtMC4wNCwwLjczMy0wLjA0YzMuMzE2LDAsNi4xNzEsMi40OTYsNi41NDQsNS44NjljMC40LDMuNjItMi4yMSw2Ljg3Ny01LjgyOSw3LjI3OCAgICAgYy0wLjI0NiwwLjAyNy0wLjQ5MSwwLjA0LTAuNzMzLDAuMDRjLTMuMzE2LDAtNi4xNzItMi40OTYtNi41NDUtNS44NjlDMjMxLjQ3OSwxMzguNjU5LDIzNC4wODksMTM1LjQwMSwyMzcuNzA4LDEzNS4wMDJ6Ii8+JiN4YTsJCQk8cGF0aCBzdHlsZT0iZmlsbDojMDAwRTNGOyIgZD0iTTI1Mi4zMjUsMTM3Ljk1MmMwLjA2MiwwLDAuMTI0LTAuMDAyLDAuMTg4LTAuMDFsMzUuNzg5LTMuOTU2ICAgICBjMC45MjgtMC4xMDEsMS41OTYtMC45MzYsMS40OTMtMS44NjRjLTAuMTAzLTAuOTI4LTAuOTM0LTEuNjI3LTEuODY0LTEuNDkzbC0zNS43ODksMy45NTZjLTAuOTI4LDAuMTAxLTEuNTk2LDAuOTM2LTEuNDkzLDEuODY1ICAgICBDMjUwLjc0MywxMzcuMzEzLDI1MS40NzYsMTM3Ljk1MiwyNTIuMzI1LDEzNy45NTJ6Ii8+JiN4YTsJCQk8cGF0aCBzdHlsZT0iZmlsbDojMDAwRTNGOyIgZD0iTTI3OC42NzIsMTM5LjE2M2wtMjYuMDMxLDIuODc3Yy0wLjkyOCwwLjEwMS0xLjU5NiwwLjkzNi0xLjQ5MywxLjg2NCAgICAgYzAuMDk1LDAuODY0LDAuODI3LDEuNTA0LDEuNjc3LDEuNTA0YzAuMDYyLDAsMC4xMjQtMC4wMDIsMC4xODgtMC4wMWwyNi4wMzEtMi44NzdjMC45MjgtMC4xMDEsMS41OTYtMC45MzYsMS40OTMtMS44NjUgICAgIEMyODAuNDM1LDEzOS43MywyNzkuNjIzLDEzOS4wMzMsMjc4LjY3MiwxMzkuMTYzeiIvPiYjeGE7CQkJPHBhdGggc3R5bGU9ImZpbGw6IzAwMEUzRjsiIGQ9Ik0zMDkuNjgyLDI1OS42MjhsLTM1Ljc4NywzLjk1NmMtMC45MjgsMC4xMDEtMS41OTYsMC45MzYtMS40OTMsMS44NjUgICAgIGMwLjA5NSwwLjg2NCwwLjgyNywxLjUwNCwxLjY3NywxLjUwNGMwLjA2MiwwLDAuMTI0LTAuMDAyLDAuMTg4LTAuMDFsMzUuNzg3LTMuOTU2YzAuOTI4LTAuMTAxLDEuNTk2LTAuOTM2LDEuNDkzLTEuODY1ICAgICBDMzExLjQ0MywyNjAuMTkzLDMxMC42MTgsMjU5LjQ5LDMwOS42ODIsMjU5LjYyOHoiLz4mI3hhOwkJCTxwYXRoIHN0eWxlPSJmaWxsOiMwMDBFM0Y7IiBkPSJNMzAwLjQyMywyNjguMTZsLTI2LjAzMSwyLjg3N2MtMC45MjgsMC4xMDEtMS41OTYsMC45MzYtMS40OTMsMS44NjUgICAgIGMwLjA5NSwwLjg2NCwwLjgyNywxLjUwNCwxLjY3NywxLjUwNGMwLjA2MiwwLDAuMTI0LTAuMDAyLDAuMTg4LTAuMDFsMjYuMDMxLTIuODc3YzAuOTI4LTAuMTAxLDEuNTk2LTAuOTM2LDEuNDkzLTEuODY0ICAgICBDMzAyLjE4NCwyNjguNzI4LDMwMS4zNTEsMjY4LjAyOCwzMDAuNDIzLDI2OC4xNnoiLz4mI3hhOwkJCTxwYXRoIHN0eWxlPSJmaWxsOiMwMDBFM0Y7IiBkPSJNMjYyLjIxNiwyNjAuOTQ2Yy0xLjc5LDAtNC40NjgsMC42Ni03LjE3MiwzLjc1MmMtMS41MTEtMS4xNTEtMy40NTYtMi4xNDctNS43NDYtMi4yOCAgICAgYy0wLjE0OC0wLjAwOS0wLjI5MS0wLjAxMy0wLjQzNC0wLjAxM2MtMi4yMjMsMC00LjI4MiwxLjAxMS01LjY0NywyLjc3M2MtMS41MTMsMS45NTItMi4wMDUsNC41My0xLjM0OSw3LjA3NSAgICAgYzEuNTU5LDYuMDYsMTEuMTI0LDEzLjExNywxNi41MjIsMTEuMjU3YzUuMTI4LTEuNzU4LDkuMDc2LTcuMTAxLDEwLjU3NC0xMS4zMjJjMS4wMTYtMi44NjIsMC42NjktNS45MTktMC45MjctOC4xOCAgICAgQzI2Ni42NjMsMjYyLjA2MSwyNjQuNTQxLDI2MC45NDYsMjYyLjIxNiwyNjAuOTQ2eiBNMjY1Ljc3OSwyNzEuMDU2Yy0yLjAwOSw1LjY1OC03LjExMyw5LjM4OS05LjM2Nyw5LjM4OSAgICAgYy0zLjQ2MSwwLTEwLjE4Ni00LjgxMS0xMS4yNzMtOS4wMzdjLTAuNzUyLTIuOTE3LDEuMDE4LTUuNjI0LDMuNzI0LTUuNjI0YzAuMDc4LDAsMC4xNTgsMC4wMDMsMC4yMzgsMC4wMDcgICAgIGMyLjM1NywwLjEzNyw0LjUsMS44Miw1Ljk4NiwzLjYzMmMwLjI5MywwLjM1NywwLjQyOSwwLjU3MSwwLjUzNiwwLjU3MWMwLjA0NSwwLDAuMDg2LTAuMDM4LDAuMTMtMC4xMjIgICAgIGMwLjI5OC0wLjU1OSwwLjk4OS0xLjk0NiwxLjY0OC0yLjczNGMxLjY3Ni0yLjAwMiwzLjM2OS0yLjgxMyw0LjgxNC0yLjgxM0MyNjUuMTEyLDI2NC4zMjUsMjY3LjAxMSwyNjcuNTgzLDI2NS43NzksMjcxLjA1NnoiLz4mI3hhOwkJCTxwYXRoIHN0eWxlPSJmaWxsOiMwMDBFM0Y7IiBkPSJNMjcwLjg3NiwxOTAuMDc4YzIuMzY3LDIuMzgxLDUuNDQxLDMuNjg5LDguNjY2LDMuNjg5YzAuMzg0LDAsMC43NzEtMC4wMiwxLjE2LTAuMDU4ICAgICBjNi44ODgtMC43MDIsMTEuNzYzLTYuNDY0LDExLjM0OC0xMy40MDNjLTAuMzIzLTUuMzU1LTQuMjc0LTkuOTA0LTkuNjA4LTExLjA2M2MtMC44MzMtMC4yMDEtMS43NjUtMC4zMS0yLjY5OS0wLjMxICAgICBjLTAuNDQ1LDAtMC44OTgsMC4wMjUtMS4zNDYsMC4wNzRjLTYuNjcxLDAuNzE4LTExLjc5OSw2Ljc4OS0xMS4xODUsMTMuMjU3QzI2Ny40NzgsMTg1LjE3NywyNjguNzc5LDE4Ny45NTYsMjcwLjg3NiwxOTAuMDc4eiAgICAgIE0yNzguNzY5LDE3Mi4zNjVjMC4zMjctMC4wMzYsMC42NTItMC4wNTUsMC45NzMtMC4wNTVjMC42NzUsMCwxLjMzOCwwLjA3OSwxLjk4MSwwLjIzNGMzLjc0OSwwLjgxNSw2LjcxMSwzLjk1Niw2Ljk1Myw3Ljk2MyAgICAgYzAuMzI1LDUuNDI4LTMuNDIxLDkuMzQtOC4zMSw5LjgzOGMtMC4yNzYsMC4wMjgtMC41NTIsMC4wNDEtMC44MjUsMC4wNDFjLTIuMzgzLDAtNC42MTMtMS4wMjYtNi4yNjItMi42ODQgICAgIGMtMS40ODEtMS40OTgtMi40OTktMy41MTEtMi43MDQtNS43NThDMjcwLjEzMywxNzcuMjgsMjczLjg5NywxNzIuODg5LDI3OC43NjksMTcyLjM2NXoiLz4mI3hhOwkJPC9nPiYjeGE7CTwvZz4mI3hhOwk8Zz4mI3hhOwkJPHBhdGggc3R5bGU9ImZpbGw6I0ZGOEVERTsiIGQ9Ik0zODAuMzM5LDI1NS4zOTdjMS4zMy01LjQ4NC0wLjgxOS0xMC44NzQtNS43NS0xNC40MTNjLTIuNDA5LTEuNzMxLTYuMDIxLTIuNzM5LTEwLjcyOC0zLjAzNSAgICBjMy42ODctMi4zODIsNi44NjQtNS4zMjcsOS4wOTYtOS4wNjFjMi43NTEtNC42MDEsMy4wNTUtOS40MTEsMC44NS0xMy41NDVjLTIuNDk2LTQuNjc2LTcuOTMtNy43ODQtMTQuMTgtOC4xMDYgICAgYy0wLjk1MS0wLjA0OS0xLjkzOS0wLjA3NC0yLjk2NC0wLjA3NGMtMTQuMDk3LDAtMzIuNDUyLDQuNTc1LTQ2Ljc1OSwxMS42NTNjLTcuMTkyLDMuNTU4LTE1LjUxMiwxMC40MTYtMTUuMjg3LDE4LjAzNSAgICBjMC4xNTUsNS4yNjEsNC40NDUsOS40MzgsOC4zNjYsMTEuMDkyYzMuMjkxLDEuMzg3LDYuODU3LDIuMTY1LDEwLjc5NCwyLjQxN2MtNS45OTMsMy4xODktMTAuOTc1LDYuODExLTE0LjAyMiwxMC42NjIgICAgYy0yLjc3LDMuNTAyLTMuNzcsNi45OTItMi45NzIsMTAuMzdjMS43MTYsNy4yNTgsOC40MzQsMTAuOTQsMTkuOTY3LDEwLjk0YzAuMTQyLDAsMC4yODMtMC4wMDcsMC40MjUtMC4wMDggICAgYy0yLjE1OSwxLjY5NC0zLjkzMywzLjU3LTUuMTcsNS42NGMtMS45NDcsMy4yNTctMi4wMDksNi45ODEtMC4xNzEsMTAuMjJjMy4yMjIsNS42NzgsMTEuMjk4LDguOTM1LDIyLjE1OCw4LjkzNSAgICBjMy41MDIsMCw3LjMwMS0wLjM0LDExLjI4OC0xLjAxMWMyNC4wMzktNC4wMzgsMzQuMjk4LTE1LjM2NiwzMy44LTI0LjhjLTAuMzA3LTUuODQ2LTQuNzY0LTEwLjIxOS0xMS4zMjQtMTEuMzk4ICAgIEMzNzQuNjE2LDI2NS43OTIsMzc5LjAxMywyNjAuODYyLDM4MC4zMzksMjU1LjM5N3oiLz4mI3hhOwkJPHBhdGggc3R5bGU9ImZpbGw6IzAwMEUzRjsiIGQ9Ik0zODEuOTgxLDI1NS43OTVjMS41LTYuMTY3LTAuOTA4LTEyLjIyOS02LjM5OS0xNi4xNzhjLTEuODU5LTEuMzMxLTQuMjg3LTIuMjgxLTcuMjY1LTIuODMgICAgYzIuMzg3LTEuOTg1LDQuNDU2LTQuMzA5LDYuMDgzLTcuMDMzYzMuMDg0LTUuMTMyLDMuNC0xMC41MzksMC45MDgtMTUuMjA2Yy0yLjc4OC01LjE5Ni04Ljc0NC04LjYzOC0xNS41ODctOC45OTcgICAgYy0wLjk3Mi0wLjA0Mi0yLjAwNi0wLjA4NS0zLjA0MS0wLjA4NWgtMC4wMjFjLTExLjQwNSwwLTI5Ljg2NCwzLjEyNi00Ny40OTksMTEuODI3Yy03LjY0NSwzLjc4MS0xNi40NzQsMTEuMTk0LTE2LjI0MSwxOS41OTkgICAgYzAuMTksNi4wMTksNS4wMDUsMTAuNzUsOS4zOTgsMTIuNjA5YzIuMDA2LDAuODQ1LDQuMDk3LDEuNDc4LDYuMjk0LDEuOTIyYy00LjI2NiwyLjY0LTcuNzkzLDUuNTMzLTEwLjE4LDguNTUzICAgIGMtMy44NjUsNC44NzktMy45MjgsOS4xMjQtMy4yOTUsMTEuODA2YzEuMjI1LDUuMTExLDUuMzQzLDExLjEzLDE3Ljg4OSwxMi4xMDJjLTAuOTkyLDEuMDE0LTEuNzk1LDIuMDkxLTIuNDcxLDMuMjEgICAgYy0yLjI2LDMuODAyLTIuMzQ0LDguMTMxLTAuMTksMTEuOTEyYzMuNTI3LDYuMjMsMTIuMTQ0LDkuOCwyMy42MzMsOS44YzMuNTksMCw3LjQ3Ny0wLjMzOCwxMS41NTMtMS4wMzUgICAgYzExLjI5OS0xLjkwMSwyMC41NS01LjU3NiwyNi43OC0xMC42MjNjNS43MjQtNC42NjgsOC43MjMtMTAuMzI4LDguNDI3LTE1LjkyNWMtMC4yNzUtNS40NDktMy42NzUtOS43OTktOC45MTItMTEuOTEyICAgIEMzNzguOTQsMjY0LjExNiwzODEuMjQyLDI1OC44NTcsMzgxLjk4MSwyNTUuNzk1eiBNMzAzLjY0NywyNDYuMzk2Yy0zLjczOC0xLjU4NC03LjIyMy01LjM2NC03LjM1LTkuNTg4ICAgIGMtMC4xOS02Ljk0OSw4LjA4OS0xMy4zNjksMTQuMzYxLTE2LjQ3NGMxNS41MjMtNy42ODgsMzMuNDc2LTExLjQ4OSw0Ni0xMS40ODljMC45OTIsMCwxLjk2NCwwLjA0MiwyLjg3MiwwLjA4NCAgICBjMTAuMzkxLDAuNTI4LDE3Ljg0Niw5LjI5MywxMS45NzUsMTkuMDkzYy0xLjk4NSwzLjMxNi00Ljc5NCw1Ljk5OC04LjExLDguMTk0Yy0xLjk0MywxLjMxLTQuMDU1LDIuNDUtNi4yOTQsMy40NDMgICAgYy02Ljg2NCwzLjA2My0xNC44MDUsNC45LTIyLjA5Miw2LjUwNWMtNC4zMDksMC45NS04Ljc2NSwxLjg4LTEzLjI0MiwyLjMyM2MtMS43NTMsMC4xOS0zLjUwNiwwLjI5Ni01LjI1OSwwLjI5NiAgICBjLTEuMDM1LDAtMi4wNy0wLjA0Mi0zLjEwNS0wLjEwNkMzMTAuMDY4LDI0OC40MDMsMzA2LjgxNSwyNDcuNzI3LDMwMy42NDcsMjQ2LjM5NnogTTM0NSwzMDQuNDM0ICAgIGMtNC4wNTUsMC42OTctNy43MDksMC45OTMtMTEuMDA0LDAuOTkzYy0xOC4yMDYsMC0yNC44NTgtOS4zNTYtMjAuNTUtMTYuNmMxLjAzNS0xLjczMiwyLjUzNS0zLjMzNyw0LjM3Mi00LjgxNiAgICBjNS41MTItMC4wODQsMTAuODc3LTAuOTA4LDE0Ljg2OS0xLjUybDEuNTYzLTAuMjMyYzE2LjExNS0yLjM4NywyNi44MjItNi4zMTUsMzMuOTQtMTAuNTM5ICAgIEMzODMuNzM0LDI3NS4xNjIsMzgxLjgzNCwyOTguMjQ2LDM0NSwzMDQuNDM0eiBNMzY3LjQ5MywyNjguMTVjLTEuNzExLDEuMDc3LTMuNjMzLDIuMTEyLTUuNzg3LDMuMDg0ICAgIGMtNi45MjcsMy4yMzEtMTYuMTM2LDUuOTM1LTI3Ljk2Myw3LjY4OGMtMi41OTgsMC4zOC02LjIwOSwwLjk3Mi0xMC4xNTksMS4zNTJjLTIuMjE4LDAuMjMyLTQuNTQxLDAuMzgtNi44NDMsMC4zOGgtMC4xMDUgICAgYy04LjM0My0wLjAyMS0xNi4zODktMi4wMDYtMTguMjA2LTkuNjUyYy0xLjU2My02LjU4OSw1LjQwNy0xMy4zNDgsMTUuNzU2LTE4LjkwMmMwLjc2LDAuMDQyLDEuNTQyLDAuMDYzLDIuMzIzLDAuMDYzICAgIGM2LjM5OSwwLDEyLjc1Ni0xLjI2NywxOS4yMTktMi43MDNjOC44OTItMS45NDMsMjAuMDAxLTQuMzcyLDI4LjYxOC05Ljc3OWMzLjkyOCwwLjI5Niw3LjEzOSwxLjE0LDkuMjUxLDIuNjgyICAgIEMzODEuNjg2LDI0OC4xNywzODEuNjIyLDI1OS4zMDEsMzY3LjQ5MywyNjguMTV6Ii8+JiN4YTsJPC9nPiYjeGE7CTxnPiYjeGE7CQk8Zz4mI3hhOwkJCTxwYXRoIHN0eWxlPSJmaWxsOiNGRjhFREU7IiBkPSJNMjI4LjE5OCwzNzAuMDczYy0xNC42MDcsMC0zMS4xNzktNi44OTEtNDEuMjQyLTE3LjE1Yy04LjgwNy04Ljk3OC02LjA0MS0xNi42Mi03LjQ4Ny00OS42NTEgICAgIGMtMC41MzgtMTIuMjg4LTMuMzkyLTEzLjYzMi01LjgwNi00OC4yMDdjLTIuMTM3LTMwLjUzNC0wLjAyMS0zNC41MDIsOC44ODctNTEuMjA2bDEuODA3LTMuMzk1ICAgICBjMi42ODctNS4wOCw0LjY1OS04Ljk3OCw2LjE5NC0xMi4wMTRjMy45NzktNy44NjYsNS4xNzktMTAuMjQsOC4zNDktMTIuMjQ3YzEuMzUxLTAuODU2LDIuNzQzLTEuMjg5LDQuMTM3LTEuMjg5ICAgICBjMy40MDksMCw2LjA0MywyLjUyNCw3Ljk1Nyw0LjcyNWMxMC41NDgsMTIuMTI4LDguMjgxLDI1LjU2Nyw2LjA5LDM4LjU2M2MtMC44ODksNS4yNzQtMS43MjgsMTAuMjU3LTEuNzE2LDE1LjA4MSAgICAgYzAuMDQxLDE2LjM3OCw5LjAyLDI0LjA5LDE5LjQxNCwzMy4wMjFjNy4wNzQsNi4wNzgsMTQuMzksMTIuMzYzLDE5LjgyMywyMi4wMjhjMTMuNTIsMjQuMDQ3LDExLjYzOSw1MC4zMTEsNC4xNyw2NC41MzYgICAgIEMyNTIuOTUyLDM2My45NjQsMjQyLjA5MSwzNzAuMDczLDIyOC4xOTgsMzcwLjA3M3oiLz4mI3hhOwkJCTxnIHN0eWxlPSJvcGFjaXR5OjAuNTsiPiYjeGE7CQkJCTxwYXRoIHN0eWxlPSJmaWxsOiNGRkZGRkY7IiBkPSJNMjEyLjgxOCwyNzYuNzA2YzYuNzU1LDEuOTQ0LDEyLjQ3Nyw1Ljc0LDE3LjM1MSwxMC42MjRsMS44MDgsMS44NDUgICAgICBjMC42MDksMC42MTIsMS4wOCwxLjMzOCwxLjYyNiwyLjAwNWMxMi4wOTQsMTUuNjkyLDEzLjMxNywzMy45MjUsNy42NzgsNTMuMDgzYy0wLjcwNCwyLjM5LTQuMjM3LDEuOTE2LTQuMjkyLTAuNTY4ICAgICAgYy0wLjIwNC05LjI2NCwwLjk0NS02LjgzNy0wLjg4My0yNC4yODVjLTEuMDI1LTUuOTY3LTIuMzc0LTkuNTk2LTMuMDMzLTExLjc2MmMtNy4zODktMTkuNzc1LTI0LjA2Ny0yOC42MzUtMjEuOTQ1LTI3LjI0OSAgICAgIEMyMDkuMTY2LDI3OS4xMTksMjEwLjU1NywyNzYuMDU4LDIxMi44MTgsMjc2LjcwNnoiLz4mI3hhOwkJCTwvZz4mI3hhOwkJPC9nPiYjeGE7CQk8cGF0aCBzdHlsZT0iZmlsbDojMDAwRTNGOyIgZD0iTTI2NS45NTgsMzE5Ljk5NmMtMS4wMzQtMTEuNDYxLTQuNTQzLTIzLjAwMS05Ljg3OS0zMi40OTMgICAgYy01LjU3OS05LjkyNS0xMy4zNDQtMTYuNTk2LTIwLjE5Ni0yMi40ODJjLTEwLjA3OS04LjY1OS0xOC43ODUtMTYuMTM4LTE4LjgyNS0zMS43NDNjLTAuMDEyLTQuNjgsMC44MTctOS41OTMsMS42OTMtMTQuNzkzICAgIGMyLjE1MS0xMi43NjEsNC41ODktMjcuMjI0LTYuNDgzLTM5Ljk1MmMtMS45ODEtMi4yNzktNS4wOTMtNS4zMDktOS4yMzItNS4zMDljLTEuNzIsMC4wMDEtMy40MTcsMC41MjMtNS4wNDIsMS41NTEgICAgYy0zLjU2MiwyLjI1NS00LjkyLDQuOTQxLTguOTUxLDEyLjkxMmMtMS41NiwzLjA4NS0zLjUwMSw2LjkyMy02LjE4LDExLjk4N2MtMC42MzEsMS4xOTEtMS4yMzEsMi4zMTgtMS44MDQsMy4zOTEgICAgYy00LjQxLDguMjctNy4zMjMsMTMuNzMyLTguNzYsMjAuOTgzYy0xLjM0OCw2LjgwMy0xLjQzNiwxNS4yNDItMC4zMjUsMzEuMTM2YzAuNDk1LDcuMDc1LDEuMjA3LDE0LjIzNSwxLjg5NCwyMS4xNTggICAgYzAuODEsOC4xNTMsMS42MTMsMTYuNTI4LDIuMDk0LDI0Ljg0NWMxLjEyMS0wLjE3MywxLjYxLDYuODYxLDIuNzMyLDYuNzFjMC4wMjktMS4xOTMsMC41MjUtNy44NjcsMC40NDYtOS4wMDkgICAgYy0wLjk3Ni0xNC4xMjktMi44MDgtMjkuODE1LTMuNzk1LTQzLjk0Yy0yLjIzOC0zMi4wMTIsMC4yLTM0LjIxNywxMC41MDMtNTMuNjkzYzkuNDY1LTE3Ljg5LDEwLjA3My0yMS4xNjgsMTMuOTUzLTIzLjYyNCAgICBjMS4xNC0wLjcyMSwyLjIxNi0xLjAyNywzLjIzNC0xLjAyN2MyLjU5NiwwLDQuODA3LDEuOTg5LDYuNjgyLDQuMTQ2YzE0LjE3NCwxNi4yOTYsMy45MTcsMzUuNTc1LDMuOTU5LDUyLjUzNiAgICBjMC4wNzIsMjguNDI5LDI2LjEyNiwzMi4xNjEsMzkuNDU1LDU1Ljg3M2M5Ljk1MiwxNy43MDIsMTMuODksNDQuMzY2LDQuMTQ4LDYyLjkyMmMtMC43NzMsMS40NzMtMS42MywyLjgyNy0yLjU1NSw0LjA3NCAgICBjLTAuNTI5LDAuNzE0LTAuMzYyLDEuNzI2LDAuMzM4LDIuMjczYzAuMDEyLDAuMDA5LDAuMDIzLDAuMDE4LDAuMDM1LDAuMDI3YzAuNzI1LDAuNTY3LDEuNzg4LDAuNDUsMi4zMzctMC4yODggICAgYzEuMDQyLTEuNDAzLDEuOTkyLTIuOTA2LDIuODM3LTQuNTE2QzI2NS4xNDMsMzQ0LjM3OCwyNjcuMTA4LDMzMi43NCwyNjUuOTU4LDMxOS45OTZ6Ii8+JiN4YTsJPC9nPiYjeGE7CTxnPiYjeGE7CQk8Zz4mI3hhOwkJCTxwYXRoIHN0eWxlPSJmaWxsOiNGRkNGMDA7IiBkPSJNNDU4LjczOSwzMDQuMDkxYy01LjU0NiwwLTExLjA0OS0wLjg5OS0xNi4zNi0yLjY3M2MtMTcuMTEzLTUuNzE3LTI5Ljc3Ni0xOS42NDEtMzMuODc3LTM3LjI0OSAgICAgYy0yLjE1My05LjI2OS0xLjY5My0xOC45NSwxLjMzLTI3Ljk5N2M3LjA0NC0yMS4wODEsMjYuNjk3LTM1LjI0NCw0OC45MDQtMzUuMjQ0YzUuNTM2LDAsMTEuMDI4LDAuODk3LDE2LjMyNywyLjY2NyAgICAgYzE1Ljc1OCw1LjI2NCwyOC4wODEsMTcuOTExLDMyLjk2NSwzMy44MjljMy4xNywxMC4yOTQsMy4wMzQsMjEuMTYxLTAuMzk2LDMxLjQyNkM1MDAuNTksMjg5LjkzLDQ4MC45NCwzMDQuMDkxLDQ1OC43MzksMzA0LjA5MSAgICAgeiIvPiYjeGE7CQkJPHBhdGggc3R5bGU9ImZpbGw6I0ZGRkZGRjsiIGQ9Ik00NjguMTM0LDI0OC42MzFjMi44MjMsMi4wNjMsMy4yNjgsNC4wOCwxLjgxNCw2Ljg5NmMtOC4wNDIsMTUuNTY5LTI3LjM2Myw2Ljc0OS0yMi45MDYtOS4xMDcgICAgIGMwLjUyNy0xLjg3NiwxLjkwNS0yLjg4NCw0LjE1Ni0zLjAyMUM0NTYuNjU3LDI0My4wNjcsNDYzLjkzLDI0NS41NTksNDY4LjEzNCwyNDguNjMxeiIvPiYjeGE7CQkJPHBhdGggc3R5bGU9Im9wYWNpdHk6MC41O2ZpbGw6I0ZEOEEwMjsiIGQ9Ik01MDYuMDMxLDI2OC4zMTRjLTguNzMyLDI2LjEzNi0zNi45NzksNDAuMjM1LTYzLjExNSwzMS41MDIgICAgIGMtMTcuMDQ1LTUuNjk1LTI4Ljk2Ni0xOS43MDYtMzIuNzY2LTM2LjAzMWM1OS41NDYsNDEuNjAyLDg1LjQ3NCw0LjM1MSw5Ni4yNjYtMjUuODY2ICAgICBDNTA5LjM3LDI0Ny41MTcsNTA5LjQ0NywyNTguMDg3LDUwNi4wMzEsMjY4LjMxNHoiLz4mI3hhOwkJCTxnIHN0eWxlPSJvcGFjaXR5OjAuNzU7Ij4mI3hhOwkJCQk8cGF0aCBzdHlsZT0iZmlsbDojRkZGRkZGOyIgZD0iTTQ1MC4yNiwyMTkuNDMzYy00LjYzMiwwLjE2OC0xMC4xNTMsMS4wNDEtOS44ODYsMS4wMDJjLTIuNDY4LDAuMzYxLTMuOTA0LTIuNzMzLTEuOTkyLTQuMzkyICAgICAgYzExLjgzOC0xMC4wOTcsMzQuMDItNy4wNzIsNDIuNzQ2LDUuNzQ0YzEuMzE2LDEuOTM5LTAuNzAyLDQuNDEzLTIuODY2LDMuNTFDNDY5LjgzMSwyMjEuNzc5LDQ2MS44ODgsMjE5LjAxOSw0NTAuMjYsMjE5LjQzM3oiLz4mI3hhOwkJCTwvZz4mI3hhOwkJCTxnPiYjeGE7CQkJCTxnPiYjeGE7CQkJCQk8cGF0aCBzdHlsZT0iZmlsbDojRkMwOUIyOyIgZD0iTTQxOS4yMDQsMjUzLjMwM2MtMS4yODYsNC4xMywyLjk3Niw5LjEzLDkuNTIsMTEuMTY3YzYuNTQ0LDIuMDM3LDEyLjg5MSwwLjM0LDE0LjE3Ny0zLjc5ICAgICAgIGMxLjI4Ni00LjEzLTIuOTc2LTkuMTMtOS41Mi0xMS4xNjdDNDI2LjgzNiwyNDcuNDc2LDQyMC40ODksMjQ5LjE3Myw0MTkuMjA0LDI1My4zMDN6Ii8+JiN4YTsJCQkJPC9nPiYjeGE7CQkJCTxnPiYjeGE7CQkJCQk8cGF0aCBzdHlsZT0iZmlsbDojRkMwOUIyOyIgZD0iTTQ2Ny4xMzIsMjY4LjIyNGMtMS4yODYsNC4xMywyLjk3Niw5LjEzLDkuNTIsMTEuMTY3YzYuNTQ0LDIuMDM3LDEyLjg5MSwwLjM0LDE0LjE3Ny0zLjc5ICAgICAgIHMtMi45NzYtOS4xMy05LjUyLTExLjE2N0M0NzQuNzY0LDI2Mi4zOTcsNDY4LjQxNywyNjQuMDk0LDQ2Ny4xMzIsMjY4LjIyNHoiLz4mI3hhOwkJCQk8L2c+JiN4YTsJCQk8L2c+JiN4YTsJCTwvZz4mI3hhOwkJPGc+JiN4YTsJCQk8cGF0aCBzdHlsZT0iZmlsbDojMDAwRTNGOyIgZD0iTTQ1OC43MzgsMjAyLjYxOGM1LjIzNCwwLDEwLjU1NCwwLjgzMSwxNS43OSwyLjU4YzE1Ljg4Niw1LjMwOCwyNy4zMiwxNy44NDIsMzEuODg3LDMyLjcyMiAgICAgYzIuOTU0LDkuNTk4LDMuMDMyLDIwLjE2Ny0wLjM4NSwzMC4zOTRjLTYuOTgsMjAuODg4LTI2LjQyNiwzNC4wODgtNDcuMjk0LDM0LjA4OGMtNS4yNDMsMC0xMC41NzItMC44MzItMTUuODItMi41ODUgICAgIGMtMTcuMDQ2LTUuNjk2LTI4Ljk2Ny0xOS43MDYtMzIuNzY3LTM2LjAzMWMtMi4wMTktOC42OTMtMS43NDMtMTguMDEsMS4yODctMjcuMDc3ICAgICBDNDE4LjQxMSwyMTUuODMxLDQzNy44NzEsMjAyLjYxOSw0NTguNzM4LDIwMi42MTggTTQ1OC43MzksMTk5LjIzOUw0NTguNzM5LDE5OS4yMzljLTIyLjkzNywwLjAwMS00My4yMzUsMTQuNjI4LTUwLjUwOSwzNi40ICAgICBjLTMuMTIyLDkuMzQyLTMuNTk3LDE5LjM0LTEuMzc0LDI4LjkxMWM0LjIzMywxOC4xODQsMTcuMzEzLDMyLjU2NiwzNC45ODgsMzguNDcyYzUuNDgxLDEuODMyLDExLjE2NCwyLjc2LDE2Ljg5MSwyLjc2ICAgICBjMjIuOTMyLDAsNDMuMjI2LTE0LjYyNiw1MC41LTM2LjM5N2MzLjU0MS0xMC42LDMuNjgyLTIxLjgyNCwwLjQwOS0zMi40NTljLTUuMDQ1LTE2LjQzNS0xNy43NzMtMjkuNDk2LTM0LjA0Ny0zNC45MzMgICAgIEM0NzAuMTI5LDIwMC4xNjYsNDY0LjQ1NywxOTkuMjM5LDQ1OC43MzksMTk5LjIzOUw0NTguNzM5LDE5OS4yMzl6Ii8+JiN4YTsJCQk8Zz4mI3hhOwkJCQk8cGF0aCBzdHlsZT0iZmlsbDojMDAwRTNGOyIgZD0iTTQzOC42MzMsMjM0LjM3OWMzLjM0LDEuMTI5LDUuMjQyLDQuOTI0LDQuMTA5LDguMjAxYy0xLjAxNCwyLjkzNC00LjQ4LDQuNzctNy41MzMsNC4xMjUgICAgICBjLTMuNDU0LTAuNzMtNS44NTUtNS4wMDEtNC42MzItOC4zMzNDNDMxLjcwNywyMzUuMjk0LDQzNS42MTMsMjMzLjM1OCw0MzguNjMzLDIzNC4zNzl6Ii8+JiN4YTsJCQk8L2c+JiN4YTsJCQk8Zz4mI3hhOwkJCQk8cGF0aCBzdHlsZT0iZmlsbDojMDAwRTNGOyIgZD0iTTQ4NS42OTQsMjUwLjEwMmMtMy4zNDgtMS4xMDUtNy4xNDksMC43ODQtOC4yMTQsNC4wODRjLTAuOTUzLDIuOTU0LDAuNzEzLDYuNTA1LDMuNTQxLDcuODI1ICAgICAgYzMuMTk5LDEuNDkyLDcuNjg1LTAuNDc3LDguNzExLTMuODc1QzQ5MC42NzksMjU0Ljk5Nyw0ODguNzIxLDI1MS4xMDIsNDg1LjY5NCwyNTAuMTAyeiIvPiYjeGE7CQkJPC9nPiYjeGE7CQk8L2c+JiN4YTsJPC9nPiYjeGE7CTxnPiYjeGE7CQk8Zz4mI3hhOwkJCTxwYXRoIHN0eWxlPSJmaWxsOiM2MjgwRkY7IiBkPSJNMzI1LjcyNiw0NjEuOTQzYy02LjM4MSwwLTEyLTMuODQzLTE0LjMxNC05Ljc4OWMtMS42MDEtNC4xMTEtMS4zNTUtOC43MiwwLjY3Mi0xMi42NDMgICAgIGMyLjA1Mi0zLjk2OCw1LjYwNi02Ljc2MywxMC4wMDktNy44NjhjNS4wMi0xLjIxNSwxMC4wMjItMi43NzgsMTQuODc5LTQuNjQ5YzI2LjE4NC0xMC4xMDYsNDcuODc3LTI5LjAyNiw2NC40OC01Ni4yMzQgICAgIGwtMTMuOTY3LTQuODk2Yy0xLjUxNC0wLjUyOC0yLjU5Ny0xLjc4NC0yLjg5Ni0zLjM1OGMtMC4yOTktMS41NzYsMC4yNS0zLjE0MywxLjQ2Ni00LjE5M2wzNS4xNzQtMzAuMjQ1ICAgICBjMC44MDItMC42OTMsMS44MjUtMS4wNzIsMi44NzUtMS4wNzJjMi4xNDUsMCwzLjk4NywxLjUyNCw0LjM4MSwzLjYyNmw4LjYwMSw0NS41NzdjMC4yNDUsMS4zMDMtMC4wOTksMi42MzItMC45NCwzLjY0NiAgICAgYy0wLjg1MiwxLjAyOS0yLjEwMiwxLjYxNy0zLjQyNCwxLjYxN2MtMC40OTMsMC0wLjk4Mi0wLjA4LTEuNDU0LTAuMjQzbC0xNC45MTYtNS4yMzEgICAgIGMtMjcuODY5LDY1LjE2NS03OS4wMTksODMuMDYyLTg1LjA2Miw4NC44NmwwLjAxNiwwLjA0MUMzMjkuNTEzLDQ2MS41ODksMzI3LjYzNiw0NjEuOTQzLDMyNS43MjYsNDYxLjk0M3oiLz4mI3hhOwkJCTxnIHN0eWxlPSJvcGFjaXR5OjAuMjU7Ij4mI3hhOwkJCQk8cGF0aCBzdHlsZT0iZmlsbDojMDAwRTNGOyIgZD0iTTQxNS44OTYsMzc0LjM2NmMtMC40NzQsMC4xNDQtMC44NzcsMC40NzctMS4wOTEsMC45NjUgICAgICBjLTI4Ljg3NSw2Ny40OTYtODMuOTUzLDg0LjAwNi04NC4xMTEsODMuOTgzYy03LjA0MywyLjc0Mi0xNC45NjYtMC43MzEtMTcuNzA4LTcuNzczYy0yLjkyMS03LjUwNSwxLjIyNC0xNi4xNzcsOS41MTgtMTguMjU5ICAgICAgYzUuMjE1LTEuMjY0LDEwLjIzMy0yLjg0NywxNS4wNzgtNC43MTRjMTAuNzc4LDAuOTA2LDIyLjA4My0xLjk2OSwzMS40OTUtNy41MjNjMTQuNjItOC42MTgsMjUuMjMxLTIyLjc1NCwzMy4yNjYtMzcuNzAzICAgICAgYzIuNjQ5LTQuOTI4LDYuMzUzLTEwLjc5NCwxMi4zMzItOS40MDhDNDE1LjA5OCwzNzQuMDQ0LDQxNS41MDEsMzc0LjE4MSw0MTUuODk2LDM3NC4zNjZ6Ii8+JiN4YTsJCQk8L2c+JiN4YTsJCQk8ZyBzdHlsZT0ib3BhY2l0eTowLjU7Ij4mI3hhOwkJCQk8cGF0aCBzdHlsZT0iZmlsbDojRkZGRkZGOyIgZD0iTTQwMC4zMzcsMzYyLjIzOGMtMS43NTEsMC43NDQtMy40NDktMS4xODctMi40NjItMi44NGM0LjMyNC03LjEzOSwxNC43OTEtMTYuMDM0LDIyLjMwNC0xOS4xODMgICAgICBjMC45NDctMC4zOTgsMi4wMzcsMC4wNDgsMi40MzQsMC45OTZDNDIzLjg0OSwzNDQuMTU4LDQxMC4yODgsMzU4LjAwNiw0MDAuMzM3LDM2Mi4yMzh6Ii8+JiN4YTsJCQk8L2c+JiN4YTsJCTwvZz4mI3hhOwkJPHBhdGggc3R5bGU9ImZpbGw6IzAwMEUzRjsiIGQ9Ik00MjQuMTA4LDMyOC42ODVjMS4yNSwwLDIuNDU4LDAuODU2LDIuNzE4LDIuMjQ4bDguNjAxLDQ1LjU3OWMwLjMzLDEuNzYyLTEuMDU5LDMuMjYyLTIuNzA1LDMuMjYyICAgIGMtMC4yOTYsMC0wLjYtMC4wNDgtMC45MDQtMC4xNTJsLTE0LjkwNi01LjIyN2MtMC4xODktMC4wNjItMC4zODItMC4wOTYtMC41Ny0wLjA5NmMtMC4xNTMsMC0wLjMwMiwwLjAyMi0wLjQ0NiwwLjA2NyAgICBjLTAuNDczLDAuMTQ0LTAuODc4LDAuNDc4LTEuMDkxLDAuOTY1Yy0yOC44NTMsNjcuNDQ3LTgzLjg3Miw4My45ODMtODQuMTExLDgzLjk4M2wwLDBjLTEuNjM0LDAuNjM2LTMuMzE1LDAuOTM4LTQuOTcsMC45MzggICAgYy01LjQ3MSwwLTEwLjYzMi0zLjMwMy0xMi43MzgtOC43MTFjLTIuOTIyLTcuNTA1LDEuMjIzLTE2LjE3Nyw5LjUxOC0xOC4yNThjNS4yMTUtMS4yNjQsMTAuMjMyLTIuODQ3LDE1LjA3OC00LjcxNCAgICBjMjcuNzk2LTEwLjczLDQ5LjU1MS0zMS4xMDEsNjUuMzExLTU2LjkyOGMwLjU1MS0wLjkyNywwLjExOC0yLjEyMi0wLjkwMS0yLjQ3NWwtMTMuOTQ3LTQuODk5ICAgIGMtMi4wMDgtMC43MDEtMi40ODctMy4yOTYtMC44ODUtNC42NzZsMzUuMTcxLTMwLjI0M0M0MjIuODYyLDMyOC44OTMsNDIzLjQ5LDMyOC42ODUsNDI0LjEwOCwzMjguNjg1IE00MjQuMTA4LDMyNS4zMDUgICAgYy0xLjQ1NywwLTIuODcxLDAuNTI3LTMuOTgyLDEuNDg1bC0zNS4xNjgsMzAuMjRjLTEuNjgzLDEuNDUtMi40NDEsMy42MTMtMi4wMjgsNS43ODljMC40MTIsMi4xNzQsMS45MDgsMy45MDgsNC4wMDEsNC42NCAgICBsMTEuOTc1LDQuMjA1Yy0xNi4yMzksMjUuOTExLTM3LjI3OCw0NC4wMDEtNjIuNTQxLDUzLjc1M2MtNC43ODIsMS44NDItOS43MTMsMy4zODMtMTQuNjU3LDQuNTgyICAgIGMtNC45MDcsMS4yMzEtOC44NDksNC4zMzItMTEuMTI1LDguNzM4Yy0yLjI1LDQuMzU1LTIuNTIzLDkuNDY5LTAuNzQ3LDE0LjAzMWMyLjU3MSw2LjU5OSw4LjgwNywxMC44NjMsMTUuODg3LDEwLjg2MyAgICBjMi4xMiwwLDQuMjA0LTAuMzkzLDYuMTk2LTEuMTY4bC0wLjAxMS0wLjAyN2M0LjA2My0xLjE0NCwxNy4wMDUtNi4xODQsMzIuMDktMTcuMDgyYzE1Ljk3My0xMS41NDEsMzguMDgxLTMyLjUzMyw1My4yODgtNjcuMjQ4ICAgIGwxMy40MTQsNC43MDNjMC42NzEsMC4yMzEsMS4zNDUsMC4zNDMsMi4wMjIsMC4zNDNjMS44MjgsMCwzLjU1LTAuODEyLDQuNzI1LTIuMjI5YzEuMTY0LTEuNDAxLDEuNjM4LTMuMjM3LDEuMzAyLTUuMDM1ICAgIGwtOC42MDItNDUuNTgzQzQyOS42MDMsMzI3LjQxLDQyNy4wNjMsMzI1LjMwNSw0MjQuMTA4LDMyNS4zMDVMNDI0LjEwOCwzMjUuMzA1eiIvPiYjeGE7CTwvZz4mI3hhOwk8Zz4mI3hhOwkJPGc+JiN4YTsJCQk8cGF0aCBzdHlsZT0iZmlsbDojNjI4MEZGOyIgZD0iTTc4LjAyNywxODMuMTU0Yy0xMi40OTUsMC0yMS40MzEtMTEuNDgtMjcuODIzLTIxLjQ4M2MtMTAuNTctMTYuNDgtMTguOTEzLTM5LjgzOS03LjYzNy01MS40MjcgICAgIGwwLjQwNC0wLjQzN2M3Ljc1My04LjAxMSwyMC44NDYtOS4wMywzMS4zOTQtOS4wM2MxLjkyOCwwLDMuODEzLDAuMDM1LDUuNjI0LDAuMDgzYzAuNTExLDAuMDEyLDAuOTg4LDAuMjU2LDEuMjk3LDAuNjYyICAgICBjMC4zMTIsMC40MDQsMC40MjEsMC45MjgsMC4zMDEsMS40MjVjLTAuOTczLDQuMDE4LTEuMzQxLDcuNTAxLTEuMTI2LDEwLjY0N2MwLjcwNSwxMC41MjcsNi4wMTgsMjAuODgzLDEzLjg2NCwyNy4wMzEgICAgIGMwLjQyOSwwLjM0NywwLjg0NCwwLjY2LDEuMjczLDAuOTRjNC41OTMsMy4yNzMsOS45MzcsNS4zMDksMTUuOTM5LDYuMDg5YzAuNTUxLDAuMDcsMS4wMzEsMC40MDYsMS4yODUsMC44OTlsMC44ODcsMS43MiAgICAgYzAuMjk1LDAuNTUzLDAuMjYsMS4yMjEtMC4wOTEsMS43NDFjLTAuNzQzLDEuMDk3LTEuNTIsMi4yODMtMi4zMzksMy41MjdjLTcuMjI1LDEwLjk5OS0xNy4xMjEsMjYuMDYyLTMxLjEwNSwyNy41MDIgICAgIEM3OS40NDgsMTgzLjExNyw3OC43MzIsMTgzLjE1NCw3OC4wMjcsMTgzLjE1NHoiLz4mI3hhOwkJCTxnIHN0eWxlPSJvcGFjaXR5OjAuMjU7Ij4mI3hhOwkJCQk8cGF0aCBzdHlsZT0iZmlsbDojMDAwRTNGOyIgZD0iTTExMi4yMTcsMTUxLjA2N2MtNy4wNDQsMTAuNDI4LTE3LjQ3MSwyOC43NzctMzIuMjE2LDMwLjI5NiAgICAgIGMtMTIuOTg5LDEuMzUzLTIyLjE1NC0xMC44NjctMjguMzc1LTIwLjZjLTguNzk5LTEzLjcyMS0xOS4wOTktMzcuNzc4LTcuODQ4LTQ5LjM0YzEuMTE3LDIuMTc3LDIuMDg2LDQuNDY0LDIuOTY0LDYuNzMzICAgICAgYzIuODczLDcuNDgyLDUuMDEzLDE1LjM0OCw5LjI3NiwyMi4xMzZjNC4yOTksNi43ODgsMTEuMzQyLDEyLjQ5NSwxOS4zOTEsMTIuNDk1YzcuMzkxLDAuMDE5LDEzLjc5NC00LjY2NSwxOS4yNjUtOS44MDYgICAgICBjNS4wMzEsMy41ODYsMTAuNzIsNS41NzksMTYuNjQ3LDYuMzQ4QzExMS42MTQsMTQ5Ljg5NSwxMTEuOTA3LDE1MC40ODEsMTEyLjIxNywxNTEuMDY3eiIvPiYjeGE7CQkJPC9nPiYjeGE7CQkJPHBhdGggc3R5bGU9ImZpbGw6I0ZGOEVERTsiIGQ9Ik0xMTcuNDEsMTUxLjQxMmMtMi4xNTEsMC00LjI3Ni0wLjEzNi02LjMxMy0wLjQwOGMtNy4xODItMC45MzQtMTMuNTI4LTMuNTMxLTE4Ljg1OC03LjcyICAgICBjLTguNTc2LTYuNzItMTQuMzgyLTE4LjAxLTE1LjE0OS0yOS40NjFjLTAuMjM5LTMuNDk0LDAuMTU3LTcuMzEyLDEuMjEzLTExLjY3MmMwLjg3Mi0zLjY0MiwyLjEwOC03LjI5MSwzLjMwMi0xMC44MjIgICAgIGMxLjY5MS01LjAzOSwzLjU5My0xMC43MDYsMy45OTEtMTYuMTk3YzAuMTYzLTIuMjczLTAuMTg2LTUuNTM4LTAuNTUzLTguOTk3Yy0wLjk3Ni05LjE2Mi0yLjA4MS0xOS41NDksNC42NjEtMjIuMzUxICAgICBjMS4wMjUtMC40MzMsMi4wODctMC42NTYsMy4xNTItMC42NTZjNy4wMjEsMCwxMi42MzksOS42MzQsMTUuMzE0LDE3Ljg4NGMwLjc4NCwyLjQyNCwxLjQ0NCw1LjAxLDEuOTU5LDcuNjk3ICAgICBjMS41OTQtMC4xNzksNC45MDktMS45MzIsOC4xMTgtMy42M2M2LjY5Ny0zLjUzOSwxNS4wMzItNy45NDcsMjIuNjc5LTcuOTQ3YzEuODg3LDAsMy42NTcsMC4yNzgsNS4yNjEsMC44MjcgICAgIGMzLjEyMywxLjA2OCw0LjM1LDMuMDk2LDQuODMsNC42MDhjMC45NCwyLjk1NC0wLjExMSw2LjQ0MS0xLjY4MSw5LjIzYzAuMDA2LDAsMC4wMSwwLDAuMDE0LDBjNC41NTgsMCw3LjkxNCwxLjY3NSw5LjQ1LDQuNzE3ICAgICBjMS41MDYsMi45NzgsMS4wMTcsNi43ODQtMS4zNDcsMTAuOTExYzAuMDQ0LDAsMC4wODUsMCwwLjEyOCwwYzQuMjMsMCw4LjkxNiwyLjg1LDkuMjYzLDguMTM0ICAgICBjMC4yMzksMy41MDQtMC44OTksNS43NzEtMi4wOTMsNy42OTFjMC4xMjgsMC4wMDgsMC4yNTgsMC4wMTksMC4zOTIsMC4wMzFjMS41OTQsMC4xNTIsMy4xMSwwLjY4NSw0LjM5MywxLjUzOSAgICAgYzIuODkyLDEuOTQzLDQuNDksNS4zNCw0LjM5Myw5LjMyNWMtMC4yMTQsOC44MjEtOC4zNDEsMTguNzA1LTIyLjI5NCwyNy4xMkMxNDAuOTIzLDE0Ny43MTQsMTI4LjQ0OSwxNTEuNDEyLDExNy40MSwxNTEuNDEyeiIvPiYjeGE7CQkJPHBhdGggc3R5bGU9Im9wYWNpdHk6MC41O2ZpbGw6I0ZDMDlCMjsiIGQ9Ik0xNTEuNzMyLDE0MC43MzljLTE2LjY3OSwxMC4wNjQtNDIuOSwxNS41NDQtNTkuNDkyLDIuNTQ1ICAgICBjLTguNDM4LTYuNjEyLTE0LjQ2OS0xOS41LTE1LjE4My0zMC4xMzRjLTAuNDk5LTcuMzcsMi4xMDctMTQuNTcyLDQuNTQ5LTIxLjgyYzE2LjE0Niw0LjM3NywyNS45NzMsMjUuNjY0LDQyLjY4LDMxLjQzOSAgICAgYzE2LjUzLDUuNzE4LDM2LjgwNS0yLjY2OCw0NS4yNTMtMTcuOTQ4QzE3Ni4wNDcsMTA5LjE4OCwxNzUuOTEzLDEyNi4xNTUsMTUxLjczMiwxNDAuNzM5eiIvPiYjeGE7CQkJPHBhdGggc3R5bGU9Im9wYWNpdHk6MC41O2ZpbGw6I0ZGRkZGRjsiIGQ9Ik0xMDAuNDYyLDgxLjUyMWMtMC43MSwxLjUyMi0yLjk2MSwxLjIyNy0zLjI2Mi0wLjQyNCAgICAgYy0wLjU2Mi0zLjA4OC0xLjA3Ni05LjU3Mi0yLjcwNS0xOC42NzRjLTEuMDAzLTUuNTk0LTEuMDk1LTYuNTY5LTEuMDcyLTYuMzkzYy0wLjExNi0wLjg4OSwwLjUxMS0xLjcwNSwxLjQwMS0xLjgyMSAgICAgQzk4LjM1LDUzLjc0NSwxMDUuODksNjkuOTA0LDEwMC40NjIsODEuNTIxeiIvPiYjeGE7CQk8L2c+JiN4YTsJCTxnPiYjeGE7CQkJPHBhdGggc3R5bGU9ImZpbGw6IzAwMEUzRjsiIGQ9Ik0xNzMuMDAxLDE2NS42MjdjLTIuODMsMC40NTQtNS42NTYsMC45ODgtOC4zOTksMS41OWMtMC45MSwwLjItMS40ODcsMS4xMDEtMS4yODcsMi4wMTMgICAgIGMwLjE3MywwLjc4OCwwLjg3MiwxLjMyNiwxLjY0OCwxLjMyNmMwLjEyLDAsMC4yNDEtMC4wMTIsMC4zNjUtMC4wMzljMi42NzktMC41ODgsNS40NDEtMS4xMSw4LjIwOS0xLjU1MyAgICAgYzAuOTItMC4xNDgsMS41NDctMS4wMTUsMS40LTEuOTM3QzE3NC43OSwxNjYuMTA3LDE3My45MTMsMTY1LjQ3MiwxNzMuMDAxLDE2NS42Mjd6Ii8+JiN4YTsJCQk8cGF0aCBzdHlsZT0iZmlsbDojMDAwRTNGOyIgZD0iTTkwLjUzOCwyODguNzA5Yy0wLjQ2NC0wLjgxMS0xLjQ4OS0xLjA4OS0yLjMwNi0wLjYyM2MtMC44MDksMC40NjQtMS4wODksMS40OTctMC42MjMsMi4zMDYgICAgIGMzLjA1Nyw1LjMyNSw3LjE5Niw5Ljg1OSwxMS45NjcsMTMuMTA5YzAuMjkxLDAuMTk4LDAuNjIxLDAuMjkzLDAuOTQ5LDAuMjkzYzAuNTQsMCwxLjA3LTAuMjU4LDEuMzk4LTAuNzM4ICAgICBjMC41MjYtMC43NzEsMC4zMjYtMS44MjEtMC40NDYtMi4zNDdDOTcuMTI4LDI5Ny43NDMsOTMuMzQ1LDI5My41OTUsOTAuNTM4LDI4OC43MDl6Ii8+JiN4YTsJCQk8cGF0aCBzdHlsZT0iZmlsbDojMDAwRTNGOyIgZD0iTTE0LjY0NiwxNzQuMDk3Yy0zLjg4Niw0LjEzNS03LjEyMiw5LjEwOC05LjYxOCwxNC43NzhjLTAuMzc1LDAuODU0LDAuMDEyLDEuODUyLDAuODY2LDIuMjI4ICAgICBjMC4yMjEsMC4wOTcsMC40NTIsMC4xNDIsMC42ODEsMC4xNDJjMC42NSwwLDEuMjY4LTAuMzc2LDEuNTQ3LTEuMDA5YzIuMzM5LTUuMzE5LDUuMzYzLTkuOTcsOC45ODYtMTMuODI1ICAgICBjMC42MzktMC42OCwwLjYwNi0xLjc0OS0wLjA3NC0yLjM4OEMxNi4zNTYsMTczLjM4MiwxNS4yODMsMTczLjQxNSwxNC42NDYsMTc0LjA5N3oiLz4mI3hhOwkJCTxwYXRoIHN0eWxlPSJmaWxsOiMwMDBFM0Y7IiBkPSJNNzEuMjI3LDI1NC4zN2MtNS43NzMsMS4yNDQtMTEuMzg3LDEuOTgyLTE2LjY4OCwyLjE5N2MtMC45MzIsMC4wMzktMS42NTgsMC44MjUtMS42MjEsMS43NTcgICAgIGMwLjAzNywwLjkxLDAuNzg2LDEuNjIxLDEuNjg3LDEuNjIxYzAuMDI1LDAsMC4wNDcsMCwwLjA3LDBjNS40OTQtMC4yMjUsMTEuMzAyLTAuOTg4LDE3LjI2MS0yLjI3MSAgICAgYzAuOTE0LTAuMTk2LDEuNDkzLTEuMDk1LDEuMjk3LTIuMDA3QzczLjAzNSwyNTQuNzU0LDcyLjE0LDI1NC4xODcsNzEuMjI3LDI1NC4zN3oiLz4mI3hhOwkJCTxwYXRoIHN0eWxlPSJmaWxsOiMwMDBFM0Y7IiBkPSJNODQuNjI5LDI2My4xMTNjMC0wLjgyMSwwLjAxNC0xLjY0OCwwLjA0MS0yLjQ4M2MwLjAyOS0wLjkzMi0wLjcwMy0xLjcxNC0xLjYzNi0xLjc0MyAgICAgYy0wLjAxOSwwLTAuMDM3LDAtMC4wNTQsMGMtMC45MDksMC0xLjY2LDAuNzIyLTEuNjg5LDEuNjM2Yy0wLjAyNywwLjg3Mi0wLjA0MSwxLjczNy0wLjA0MSwyLjU5MSAgICAgYzAsNS4zMjUsMC41MjQsMTAuMzI3LDEuNTU5LDE0Ljg2N2MwLjE3OSwwLjc4NCwwLjg3NCwxLjMxNCwxLjY0NiwxLjMxNGMwLjEyNiwwLDAuMjUyLTAuMDEyLDAuMzc3LTAuMDQxICAgICBjMC45MDktMC4yMDgsMS40NzktMS4xMTQsMS4yNzItMi4wMjNDODUuMTI2LDI3Mi45MzUsODQuNjI5LDI2OC4xODUsODQuNjI5LDI2My4xMTN6Ii8+JiN4YTsJCQk8cGF0aCBzdHlsZT0iZmlsbDojMDAwRTNGOyIgZD0iTTg3LjMwOCwyMzAuNzA1Yy0yLjA0Niw1LjQ3LTMuNjAxLDExLjEyMS00LjYyNCwxNi43OTdjLTAuMTY1LDAuOTE4LDAuNDQ0LDEuNzk2LDEuMzYzLDEuOTYxICAgICBjMC4xMDEsMC4wMTksMC4yMDIsMC4wMjcsMC4zMDEsMC4wMjdjMC44MDIsMCwxLjUxNC0wLjU3MywxLjY2LTEuMzljMC45ODgtNS40NzYsMi40ODktMTAuOTI5LDQuNDYzLTE2LjIxMSAgICAgYzAuMzI4LTAuODc0LTAuMTE2LTEuODQ4LTAuOTktMi4xNzRDODguNjA1LDIyOS4zODUsODcuNjM0LDIyOS44MzEsODcuMzA4LDIzMC43MDV6Ii8+JiN4YTsJCQk8cGF0aCBzdHlsZT0iZmlsbDojMDAwRTNGOyIgZD0iTTcuMjE1LDIzMC41MDljLTAuMzYzLTAuODYtMS4zNTUtMS4yNjYtMi4yMTMtMC44OTdjLTAuODYsMC4zNjMtMS4yNjIsMS4zNTUtMC44OTcsMi4yMTMgICAgIGMyLjQzLDUuNzQ0LDUuNzEzLDEwLjY5OCw5Ljc2LDE0LjcyOWMwLjMzLDAuMzMsMC43NjEsMC40OTMsMS4xOTIsMC40OTNjMC40MzMsMCwwLjg2Ni0wLjE2NSwxLjE5Ni0wLjQ5NyAgICAgYzAuNjYtMC42NiwwLjY1OC0xLjczLTAuMDA0LTIuMzg4QzEyLjUxMywyNDAuNDQsOS40NzUsMjM1Ljg0Nyw3LjIxNSwyMzAuNTA5eiIvPiYjeGE7CQkJPHBhdGggc3R5bGU9ImZpbGw6IzAwMEUzRjsiIGQ9Ik00LjM5NywyMDIuMTI3YzAuMTgtMC45MTYtMC40MTYtMS44MDMtMS4zMzItMS45ODRjLTAuODk5LTAuMTcxLTEuODA1LDAuNDEyLTEuOTg0LDEuMzMyICAgICBDMC4zNjMsMjA1LjEyNCwwLDIwOC43ODEsMCwyMTIuMzQ1YzAsMi4zLDAuMTUzLDQuNTY4LDAuNDU2LDYuNzM4YzAuMTE4LDAuODQ2LDAuODQxLDEuNDU2LDEuNjcxLDEuNDU2ICAgICBjMC4wNzgsMCwwLjE1Ny0wLjAwNCwwLjIzNS0wLjAxNmMwLjkyNC0wLjEyOCwxLjU2OS0wLjk4MiwxLjQ0LTEuOTA2Yy0wLjI4LTIuMDE3LTAuNDIzLTQuMTI3LTAuNDIzLTYuMjcyICAgICBDMy4zNzgsMjA4Ljk5OSwzLjcyMSwyMDUuNTYxLDQuMzk3LDIwMi4xMjd6Ii8+JiN4YTsJCQk8cGF0aCBzdHlsZT0iZmlsbDojMDAwRTNGOyIgZD0iTTQyLjAwOSwyNTYuMDQxYy01Ljg1My0wLjc5LTExLjE3LTIuMzgtMTUuODA3LTQuNzIxYy0wLjgzMy0wLjQyNS0xLjg1LTAuMDg5LTIuMjY5LDAuNzQ3ICAgICBjLTAuNDIxLDAuODMxLTAuMDg3LDEuODQ4LDAuNzQ3LDIuMjY5YzQuOTcxLDIuNTEyLDEwLjY0OSw0LjIxNCwxNi44NzYsNS4wNTVjMC4wNzgsMC4wMSwwLjE1MiwwLjAxNCwwLjIyOSwwLjAxNCAgICAgYzAuODMzLDAsMS41NTctMC42MTUsMS42NzMtMS40NjJDNDMuNTgxLDI1Ny4wMTcsNDIuOTMzLDI1Ni4xNjcsNDIuMDA5LDI1Ni4wNDF6Ii8+JiN4YTsJCQk8cGF0aCBzdHlsZT0iZmlsbDojMDAwRTNGOyIgZD0iTTEzMC42NzgsMjQ5LjQ5NWMtNS4yOS0xLjcyOC0xMS4yNDUtMi44NDItMTcuMjI0LTMuMjE4Yy0wLjkwNS0wLjA3LTEuNzMyLDAuNjUyLTEuNzkyLDEuNTgyICAgICBjLTAuMDU4LDAuOTMsMC42NSwxLjczMiwxLjU4MiwxLjc5MmM1LjY5NywwLjM1NywxMS4zNjIsMS40MTMsMTYuMzgzLDMuMDU3YzAuMTc1LDAuMDU2LDAuMzUzLDAuMDgzLDAuNTI2LDAuMDgzICAgICBjMC43MTIsMCwxLjM3NC0wLjQ1MiwxLjYwNy0xLjE2M0MxMzIuMDQ4LDI1MC43NCwxMzEuNTY1LDI0OS43ODUsMTMwLjY3OCwyNDkuNDk1eiIvPiYjeGE7CQkJPHBhdGggc3R5bGU9ImZpbGw6IzAwMEUzRjsiIGQ9Ik0xNDkuMjY0LDI4Mi44NjhjLTAuOTE2LTAuMjctMS44MzIsMC4yNjItMi4wODksMS4xNTdjLTEuNDk3LDUuMjE4LTQuMzgxLDkuOTYtOC4zNDEsMTMuNzE0ICAgICBjLTAuNjc2LDAuNjQxLTAuNzA1LDEuNzEtMC4wNjIsMi4zODhjMC4zMzIsMC4zNTEsMC43NzgsMC41MjYsMS4yMjUsMC41MjZjMC40MTcsMCwwLjgzNS0wLjE1MywxLjE2My0wLjQ2NCAgICAgYzQuMzk1LTQuMTY2LDcuNTk4LTkuNDM0LDkuMjYxLTE1LjIzMkMxNTAuNjc5LDI4NC4wNiwxNTAuMTYxLDI4My4xMjQsMTQ5LjI2NCwyODIuODY4eiIvPiYjeGE7CQkJPHBhdGggc3R5bGU9ImZpbGw6IzAwMEUzRjsiIGQ9Ik0xNDIuNTA1LDI1NS44NDdjLTAuNzAxLTAuNjExLTEuNzcyLTAuNTM0LTIuMzgyLDAuMTc1Yy0wLjYxMSwwLjcwNS0wLjUzMiwxLjc3MiwwLjE3NSwyLjM4MiAgICAgYzQuMTAyLDMuNTQzLDYuNzQ2LDguMjYsNy42NDgsMTMuNjQxYzAuMTM4LDAuODI3LDAuODU0LDEuNDExLDEuNjY0LDEuNDExYzAuMDkzLDAsMC4xODYtMC4wMDYsMC4yOC0wLjAyMyAgICAgYzAuOTItMC4xNTUsMS41NDMtMS4wMjUsMS4zODgtMS45NDVDMTUwLjI0NiwyNjUuMzIsMTQ3LjIxMiwyNTkuOTEsMTQyLjUwNSwyNTUuODQ3eiIvPiYjeGE7CQkJPHBhdGggc3R5bGU9ImZpbGw6IzAwMEUzRjsiIGQ9Ik0xNTIuMDM0LDE3MC42MjJjLTUuNjE4LDEuODI5LTExLjAyOCw0LjAzNi0xNi4wNzUsNi41NjFjLTAuODM1LDAuNDE5LTEuMTc0LDEuNDMzLTAuNzU3LDIuMjY3ICAgICBjMC4yOTcsMC41OTIsMC44OTMsMC45MzQsMS41MTQsMC45MzRjMC4yNTQsMCwwLjUxMi0wLjA1NiwwLjc1My0wLjE3N2M0Ljg5OC0yLjQ1LDEwLjE1Mi00LjU5MywxNS42MTMtNi4zNzEgICAgIGMwLjg4Ny0wLjI4OSwxLjM3Mi0xLjI0MiwxLjA4My0yLjEzMUMxNTMuODc2LDE3MC44MTgsMTUyLjkyOSwxNzAuMzM2LDE1Mi4wMzQsMTcwLjYyMnoiLz4mI3hhOwkJCTxwYXRoIHN0eWxlPSJmaWxsOiMwMDBFM0Y7IiBkPSJNMTAyLjI1NywyMDQuMjM3Yy0zLjYwMyw0LjUyOS02LjgyMSw5LjQyOC05LjU2NiwxNC41NTVjLTAuNDQxLDAuODIzLTAuMTMsMS44NDgsMC42OTEsMi4yODcgICAgIGMwLjI1NiwwLjEzNiwwLjUyOCwwLjIsMC43OTYsMC4yYzAuNjA0LDAsMS4xODgtMC4zMjQsMS40OTEtMC44OTFjMi42NS00Ljk1Miw1Ljc1Ni05LjY3Nyw5LjIzMi0xNC4wNDggICAgIGMwLjU4Mi0wLjczLDAuNDYtMS43OTQtMC4yNy0yLjM3NEMxMDMuODk1LDIwMy4zODMsMTAyLjgzNywyMDMuNTExLDEwMi4yNTcsMjA0LjIzN3oiLz4mI3hhOwkJCTxwYXRoIHN0eWxlPSJmaWxsOiMwMDBFM0Y7IiBkPSJNMTAwLjMxLDI0Ni42MzZjLTQuNTI1LDAuNTUxLTguNzYsMS41NDEtMTIuNTg5LDIuOTQxYy0xLjQsMC41MTItMi44MjQsMS4wMDQtNC4yNjEsMS40NzUgICAgIGMtMC44ODcsMC4yOTEtMS4zNzIsMS4yNDQtMS4wODMsMi4xM2MwLjIzMywwLjcxNCwwLjg5NSwxLjE2NSwxLjYwNywxLjE2NWMwLjE3MywwLDAuMzUxLTAuMDI3LDAuNTI0LTAuMDgzICAgICBjMS40NzktMC40ODMsMi45MzktMC45ODgsNC4zNzUtMS41MTZjMy41ODctMS4zMSw3LjU2OS0yLjIzOCwxMS44MzctMi43NmMwLjkyNi0wLjExMywxLjU4Ni0wLjk1NSwxLjQ3Mi0xLjg4MSAgICAgQzEwMi4wNzgsMjQ3LjE4LDEwMS4yMDcsMjQ2LjUzNywxMDAuMzEsMjQ2LjYzNnoiLz4mI3hhOwkJCTxwYXRoIHN0eWxlPSJmaWxsOiMwMDBFM0Y7IiBkPSJNMTEyLjIzOCwxOTcuNDk1YzAuNDIxLDAsMC44NDEtMC4xNTUsMS4xNjctMC40NjhjNC4wMTItMy44MzYsOC40MjktNy4zNjcsMTMuMTMyLTEwLjQ5NiAgICAgYzAuNzc2LTAuNTE4LDAuOTg4LTEuNTY2LDAuNDctMi4zNDNjLTAuNTE2LTAuNzc2LTEuNTYxLTAuOTg0LTIuMzQzLTAuNDdjLTQuODY4LDMuMjM4LTkuNDQsNi44OTUtMTMuNTk0LDEwLjg2NyAgICAgYy0wLjY3NCwwLjY0Ni0wLjY5OSwxLjcxNC0wLjA1NCwyLjM4OEMxMTEuMzQ5LDE5Ny4zMTksMTExLjc5MiwxOTcuNDk1LDExMi4yMzgsMTk3LjQ5NXoiLz4mI3hhOwkJCTxwYXRoIHN0eWxlPSJmaWxsOiMwMDBFM0Y7IiBkPSJNMTI4LjU2NCwzMDQuMDk5Yy0xLjA5NSwwLjQtMi4yNCwwLjc0NS0zLjQwMSwxLjAyMWMtNC4yMTIsMS4wMDQtOC40NzUsMS4xMDgtMTIuNTYxLDAuMzAzICAgICBjLTAuODk3LTAuMTcxLTEuODA1LDAuNDEyLTEuOTg0LDEuMzMyYy0wLjE4LDAuOTE2LDAuNDE2LDEuODAzLDEuMzMyLDEuOTg0YzIuMDI4LDAuMzk4LDQuMTA3LDAuNiw2LjE3OSwwLjYgICAgIGMyLjU4OCwwLDUuMjE4LTAuMzEzLDcuODE3LTAuOTMyYzEuMjg5LTAuMzA3LDIuNTYtMC42ODksMy43ODEtMS4xMzZjMC44NzUtMC4zMiwxLjMyNi0xLjI5MSwxLjAwNC0yLjE2OCAgICAgQzEzMC40MSwzMDQuMjI3LDEyOS40NDEsMzAzLjc4NCwxMjguNTY0LDMwNC4wOTl6Ii8+JiN4YTsJCQk8cGF0aCBzdHlsZT0iZmlsbDojMDAwRTNGOyIgZD0iTTI2LjI0NywxNjkuMDUxYzAuMjU4LDAsMC41Mi0wLjA1OCwwLjc2NS0wLjE4NGMyLjM5Ny0xLjIyMyw0LjkyNy0yLjEyNCw3LjUyNC0yLjY4MyAgICAgYzAuOTE0LTAuMTk2LDEuNDkzLTEuMDk1LDEuMjk3LTIuMDA3Yy0wLjE5Ni0wLjkxMi0xLjA5My0xLjQ4Ny0yLjAwNy0xLjI5N2MtMi44ODMsMC42MjEtNS42OTIsMS42MjEtOC4zNDksMi45NzYgICAgIGMtMC44MzEsMC40MjUtMS4xNjEsMS40NDItMC43MzgsMi4yNzNDMjUuMDM5LDE2OC43MTQsMjUuNjMxLDE2OS4wNTEsMjYuMjQ3LDE2OS4wNTF6Ii8+JiN4YTsJCQk8cGF0aCBzdHlsZT0iZmlsbDojMDAwRTNGOyIgZD0iTTExMi42NzksMTU2LjQ2N2MwLjgwMy0xLjIyNSwxLjU2My0yLjM0NSwyLjI4MS0zLjQyMWMwLjgwMywwLjA0MiwxLjYyNiwwLjA2MywyLjQ1LDAuMDYzICAgICBjMTEuMzQxLDAsMjQuMTQtMy44MDIsMzUuMTAyLTEwLjM5MWMxOS43OS0xMS45MzMsMjIuOTc5LTIzLDIzLjEwNS0yOC41MzNjMC4xMDYtNC41ODMtMS43NTMtOC40OS01LjEzMi0xMC43NzEgICAgIGMtMC45NS0wLjYzNC0yLjAwNi0xLjA5OC0zLjEwNC0xLjQxNWMwLjc4MS0xLjczMiwxLjMzMS0zLjgyMywxLjE2Mi02LjU0N2MtMC4zMTctNC43MzEtMy44MDItOC40NjktOC40NjktOS40NjIgICAgIGMyLjA5MS00LjkyMSwxLjE4My04LjM4NSwwLjIzMi0xMC4yNDNjLTEuNDk5LTIuOTU3LTQuNDc3LTQuODc5LTguMzYzLTUuNDQ5YzAuOTcxLTIuMzg3LDEuNjA1LTUuMzQzLDAuNjk3LTguMjM3ICAgICBjLTAuNjEyLTEuODgtMi4xMTItNC4zOTMtNS45MTQtNS43MDJjLTEuNzc0LTAuNjEyLTMuNzE3LTAuOTA4LTUuODA4LTAuOTA4Yy04LjA2OCwwLTE2LjYsNC41Mi0yMy40NjQsOC4xMzEgICAgIGMtMS45NDMsMS4wMzUtNC4zOTMsMi4zMjMtNi4wNCwyLjk5OWMtMC40NjUtMi4xMTItMS4wMTQtNC4xNC0xLjYyNi02LjA4M2MtMS4wMzUtMy4xODktNi43MTYtMTkuMDUtMTYuOTM5LTE5LjA1ICAgICBjLTEuMjg4LDAtMi41NTUsMC4yNTMtMy44MDIsMC43ODFjLTcuODk5LDMuMjc0LTYuNjc0LDE0LjgyNi01LjY4MSwyNC4wOThjMC4zNTksMy4zNzksMC42OTcsNi41NjksMC41NDksOC42ODEgICAgIGMtMC4zOCw1LjI4LTIuMjYsMTAuODM1LTMuOTA3LDE1Ljc1NWMtMC45MDgsMi43MjUtMS44NTksNS41MzMtMi42NjEsOC4zNDNjLTEuMDc3LTAuMDIxLTIuMDQ5LTAuMDIxLTIuOTk5LTAuMDIxICAgICBjLTEwLjg3NywwLTI0LjM5NCwxLjA3Ny0zMi41NDYsOS41MDRjLTAuMDIxLDAuMDIxLTAuMDYzLDAuMDY0LTAuMDg0LDAuMDg1bC0wLjE2OSwwLjE2OWMtMC4wODQsMC4xMDYtMC4xNjksMC4xOS0wLjIzMiwwLjI3NSAgICAgYy01Ljc2Niw1Ljk3Ny03LjMwOCwxNS4yOTEtNC40MTQsMjYuOTcxYzIuODkzLDExLjcyMiw5LjI3MiwyMi40MywxMS44OTEsMjYuNTA2YzYuNjExLDEwLjM0OSwxNS45MjUsMjIuMjYxLDI5LjIzLDIyLjI2MSAgICAgYzAuNzgxLDAsMS41NjMtMC4wNDIsMi4zMjMtMC4xMjdDOTUuMTI4LDE4My4yMDUsMTA1LjI4NywxNjcuNzQ1LDExMi42NzksMTU2LjQ2N3ogTTgzLjIxNiw5MS44MzkgICAgIGMxLjg1OS01LjUxMiwzLjY1NC0xMS4wMjUsNC4wNzYtMTYuNTc5YzAuNTctOC4xOTUtNC44NTgtMjYuNjMyLDMuMDYyLTI5LjkyN2MwLjg0NS0wLjM1OSwxLjY5LTAuNTA3LDIuNDkyLTAuNTA3ICAgICBjNi4yOTQsMCwxMS40ODksOS44MjEsMTMuNzA3LDE2LjcwNmMwLjc2LDIuMzIzLDEuMzUxLDQuNjg5LDEuODE2LDcuMDU0Yy0wLjA0MiwwLjE5LTAuMDQyLDAuNDAxLTAuMDIxLDAuNjEzICAgICBjMC45MjksNy4zMjktMC4yOTYsMTUuMDU5LTMuNDY0LDIxLjc1NGMtMC4zOCwwLjg0NS0wLjAyMSwxLjgzNywwLjgyNCwyLjIzOWMwLjIzMiwwLjEwNiwwLjQ2NSwwLjE2OSwwLjcxOCwwLjE2OSAgICAgYzAuNjM0LDAsMS4yNDYtMC4zNTksMS41MjEtMC45NzJjMy4yNTItNi44ODUsNC42MDQtMTQuNzg0LDMuODg2LTIyLjM2NmM1LjkxNC0xLjk4NSwxOC42MDctMTEuMTkzLDI5LjA4Mi0xMS4xOTMgICAgIGMxLjY0OCwwLDMuMjMyLDAuMjExLDQuNzMxLDAuNzM5YzYuMjUyLDIuMTMzLDQuMTE4LDguOTc2LDEuMTYyLDEzLjA1MmMtMC42NTUsMC45MDgtMC43ODEsMS4xMTktMC40NjUsMS4xMTkgICAgIGMwLjI1MywwLDAuODI0LTAuMTQ4LDEuNjg5LTAuMjExYzAuNDY1LTAuMDIxLDAuODg3LTAuMDQyLDEuMzA5LTAuMDQyYzguNTU0LDAsMTEuNjU5LDYuNTQ3LDUuMDksMTUuNDgxICAgICBjLTAuMjExLDAuMjc1LTAuMTQ4LDAuMzgsMC4xOSwwLjM4YzAuNDAxLDAsMS4xNjItMC4xMjcsMi4yODEtMC4yMTFjMC4yMzItMC4wMjEsMC40NDQtMC4wMjEsMC42NzYtMC4wMjEgICAgIGMzLjY1NCwwLDcuMzA4LDIuMzY1LDcuNTgyLDYuNTQ3YzAuMjc1LDQuMDM0LTEuNDc4LDYuMDQtMi45OTksOC41MTFjLTAuNTI4LDAuODY2LDAuNzgxLDAuNjEyLDIuODMsMC43ODEgICAgIGMxLjMzMSwwLjE0OCwyLjU1NiwwLjU3LDMuNjEyLDEuMjY3YzYuNTA1LDQuMzcyLDYuMzM2LDE5LjAwOC0xNy44NDYsMzMuNjAyYy05LjU4OSw1Ljc2Ni0yMS42NjksOS45MDUtMzMuMzQ5LDkuOTA1ICAgICBjLTYuNDg4LDAtMTMuMTAxLTEuMjg5LTE4Ljg2LTQuMzUxYy0xLjgzMS0wLjk3My0zLjY0OC0yLjExNC01LjI1OS0zLjQyMWMtOC40NjktNi42MzItMTMuODEzLTE3LjU5My0xNC41MS0yOC4yMzggICAgIGMtMC4yNTMtMy43MzgsMC4yNzUtNy40NzYsMS4xNjItMTEuMTcyYzAuMjc1LTEuMDk4LDAuNTctMi4xOTYsMC44NjYtMy4yNzRDODEuNTQ4LDk2Ljc4MSw4Mi4zNzIsOTQuMzEsODMuMjE2LDkxLjgzOXogICAgICBNODAuMDA2LDE4MS4zNjdjLTAuNjc2LDAuMDYzLTEuMzMxLDAuMTA2LTEuOTg1LDAuMTA2Yy0xMS45MzMsMC0yMC40ODYtMTEuNDY4LTI2LjQtMjAuNzE5ICAgICBjLTguNzg2LTEzLjcwNy0xOS4wOTMtMzcuNzYzLTcuODM2LTQ5LjMzN2MwLjE0OC0wLjE2OSwwLjI5Ni0wLjMxNywwLjQ0NC0wLjQ4NmM3LjA1NC03LjI4NiwxOS4yNC04LjQ2OSwzMC4xMTctOC40NjkgICAgIGMwLjczOSwwLDEuNDU3LDAsMi4xNzUsMC4wMjFjLTAuOTkzLDQuMjI0LTEuMzUyLDcuOTgzLTEuMTE5LDExLjQ0N2MwLjgwMywxMS45MTIsNi44NDMsMjMuNjc1LDE1Ljc5OCwzMC42ODcgICAgIGM1LjU3Niw0LjM3MiwxMi4xODYsNy4wOTcsMTkuNjg0LDguMDY4YzAuMDg0LDAsMC4xNDgsMC4wMjEsMC4yMzIsMC4wMjFDMTA0LjEwNCwxNjMuMzEsOTQuMDA5LDE3OS45MzEsODAuMDA2LDE4MS4zNjd6Ii8+JiN4YTsJCTwvZz4mI3hhOwk8L2c+JiN4YTsJPGc+JiN4YTsJCTxwYXRoIHN0eWxlPSJmaWxsOiNGRDhBMDI7IiBkPSJNNDUuODkyLDQwMi4zMzNjMC41NjYtMy4xOTUsMC45MjctNS45NTQsMi4wNTgtNy44MjVjMS4xMjItMS44NTYsMy45NzQtMS4wMDMsMy45MzYsMC45ODcgICAgYy0wLjA2MywzLjI1My0yLjAwOCw4LjIyNS0xLjI4MSw4LjY0N2MwLjUwMywwLjI5MiwxLjM0My0wLjQ1NywxLjk0Mi0wLjg4N2MzLjMzMy0yLjM5Miw1LjE2OC00LjEyNSw3LjYzMy01LjI5NiAgICBjMS44NzEtMC44OSwzLjYxNiwxLjk1NCwyLjQ0MSwzLjMyOWMtMS4xMzIsMS4zMjUtMi43OCwyLjI3NS05Ljc5Miw3LjYwNGMtMi4zMTksMS43NjIsMC44MzgsMi4zMzksNC40MDgsMy42NTQgICAgYzIuMDI2LDAuNzQ3LDQuMzM4LDIuNSwzLjI5MSw0LjM3N2MtMC44NjYsMS41NTMtMi41MSwwLjk4Mi00LjE5MSwwLjQxN2MtOC45MDQtMi45OTMtNy43OC00LjAyNy0zLjY5Niw2LjY2NCAgICBjMC43NSwxLjk2NCwxLjUwMiw0LjQ0NC0wLjU2Nyw1LjA4NmMtMi4xNjgsMC42NzMtMi43Ny0xLjY3NS00LjY1Mi01Ljk1OGMtMC4yNTktMC41ODktMC41MTUtMS4zNTQtMC43NTQtMi4xMTYgICAgYy0wLjQzNi0xLjQxMS0wLjg0NC0yLjkyMi0xLjg2OC0zLjk3OWMtMS41MjMsMC44MjctMS41OTYsMi40OTgtMi4xMDQsNC4wNTdjLTAuNzc3LDIuNTExLTAuOTAzLDQuMDc3LTMuMTYzLDUuMTI1ICAgIGMtMC44OCwwLjQwOC0xLjkzOS0wLjAxNi0yLjE3Mi0wLjk0Yy0xLjEzNi00LjUwNSw0LjAyNy05LjUzNi0wLjI1My04LjY1N2MtNi41ODMsMS4zNTItMTAuNjE0LDIuNzgzLTExLjEzMiwwLjEwNCAgICBjLTAuMzk2LTIuMDQ0LDEuOTA4LTIuNjQxLDQuMTEtMy4yMjNjOS43OTktMi41ODcsMTAuNjYyLTEuNTMzLTAuMDI2LTUuNjExYy00LjU1NS0xLjczOC0zLjUwOS02LjI3NCwyLjc5LTMuOTc3ICAgIGM5LjE4NiwzLjM0OCw4LjIzMywzLjMwNCwzLjQ5OS01LjM5NWMtMC4zMDgtMC41NjYtMC42ODUtMS4xMDUtMC45MS0xLjcwMmMtMC44OTgtMi4zODUsMi40ODItNC40NiwzLjkxMS0yLjAzMiAgICBDNDQuMjkxLDQwMy4xODEsNDUuMjE3LDQwNi4xODQsNDUuODkyLDQwMi4zMzNMNDUuODkyLDQwMi4zMzN6Ii8+JiN4YTsJPC9nPiYjeGE7PC9nPiYjeGE7PHBhdGggc3R5bGU9ImZpbGw6I0ZEOEEwMjsiIGQ9Ik0xMTIuNzgsMzYyLjE1OWMzLjA0MywxLjEyNyw1LjY5NCwxLjk3NCw3LjMzMywzLjQyMWMxLjYyNiwxLjQzNSwwLjI3OCw0LjA4OS0xLjY3MywzLjY5NiAgYy0zLjE4OS0wLjY0Mi03LjczNS0zLjQ0Mi04LjI4LTIuODAzYy0wLjM3NywwLjQ0MywwLjIxLDEuNDAzLDAuNTI2LDIuMDY5YzEuNzU5LDMuNzA2LDMuMTM3LDUuODIxLDMuODQ5LDguNDU1ICBjMC41NDIsMi0yLjU2OCwzLjIwOS0zLjcxMSwxLjgwOWMtMS4xMDItMS4zNS0xLjc0Mi0zLjE0MS01LjczNi0xMC45OTJjLTEuMzIxLTIuNTk2LTIuNDUxLDAuNDA3LTQuMzgyLDMuNjg1ICBjLTEuMDk2LDEuODYxLTMuMjMzLDMuODIzLTQuODk0LDIuNDU3Yy0xLjM3My0xLjEyOS0wLjUxOC0yLjY0NSwwLjMzNy00LjE5OGM0LjUzMy04LjIyNyw1LjM1LTYuOTM3LTUuODk4LTQuODI1ICBjLTIuMDY2LDAuMzg3LTQuNjQxLDAuNjg1LTQuOTAzLTEuNDY2Yy0wLjI3NS0yLjI1MywyLjE0Mi0yLjQyNyw2LjY5My0zLjUxNWMwLjYyNi0wLjE1LDEuNDI0LTAuMjY1LDIuMjE3LTAuMzY0ICBjMS40NjYtMC4xNzgsMy4wMjYtMC4zMDksNC4yNDktMS4xMjljLTAuNTQyLTEuNjQ2LTIuMTczLTIuMDE2LTMuNjE3LTIuNzk0Yy0yLjMzMy0xLjIxMi0zLjg1LTEuNjE2LTQuNDc5LTQuMDI3ICBjLTAuMjQ1LTAuOTM5LDAuMzYyLTEuOTA1LDEuMzEyLTEuOTY5YzQuNjM2LTAuMzE0LDguNjY0LDUuNjYzLDguNTY0LDEuMjk1Yy0wLjE1Ni02LjcxOS0wLjg0NS0xMC45NCwxLjg4My0xMC45NzIgIGMyLjA4MS0wLjAyNSwyLjI1OSwyLjM0OCwyLjQzOSw0LjYxOWMwLjc5OCwxMC4xMDQtMC4zOTQsMTAuNzY1LDUuNTI2LDAuOTc1YzIuNTIzLTQuMTcyLDYuNzk5LTIuMzMzLDMuNDE1LDMuNDU1ICBjLTQuOTMzLDguNDQyLTQuNzE5LDcuNTEyLDQuNjg0LDQuNDA2YzAuNjExLTAuMjAyLDEuMjEtMC40NzcsMS44MzctMC41OTFjMi41MDctMC40NTgsMy45NDYsMy4yMzgsMS4zMDIsNC4yMTEgIEMxMTIuMjMyLDM2MC40MzIsMTA5LjExMiwzNjAuODA3LDExMi43OCwzNjIuMTU5TDExMi43OCwzNjIuMTU5eiIvPiYjeGE7PHBhdGggc3R5bGU9ImZpbGw6I0ZEOEEwMjsiIGQ9Ik0yOC4xNjgsMzE1LjU3MmMtMi45OCwxLjI4Ni01LjQ4MiwyLjUwMy03LjY2NiwyLjU4OGMtMi4xNjgsMC4wODUtMy4wMjQtMi43NjctMS4zNDItMy44MjkgIGMyLjc1LTEuNzM4LDcuOTcyLTIuODUsNy45MjUtMy42ODhjLTAuMDMzLTAuNTgtMS4xMjEtMC44NjktMS44MDktMS4xMzNjLTMuODMxLTEuNDY3LTYuMjg4LTIuMDQ1LTguNjIyLTMuNDU5ICBjLTEuNzczLTEuMDczLTAuMzU4LTQuMDk0LDEuNDM2LTMuODdjMS43MjksMC4yMTYsMy40MjksMS4wNjksMTEuNzM4LDMuOTkxYzIuNzQ4LDAuOTY2LDEuNDkyLTEuOTg2LDAuNjI2LTUuNjkxICBjLTAuNDkxLTIuMTAzLTAuMy00Ljk5OCwxLjg0My01LjE1NmMxLjc3My0wLjEzMSwyLjIwMSwxLjU1NSwyLjY1NSwzLjI3YzIuNDAxLDkuMDgxLDAuOTE5LDguNzEyLDcuNTk4LTAuNTgxICBjMS4yMjctMS43MDYsMi44ODQtMy43LDQuNTU5LTIuMzI1YzEuNzU0LDEuNDQsMC4xMjYsMy4yMzUtMi40MTUsNy4xNjNjLTAuMzQ5LDAuNTQtMC44NDcsMS4xNzUtMS4zNTIsMS43OTQgIGMtMC45MzgsMS4xNDEtMS45NzYsMi4zMTItMi4yOTQsMy43NWMxLjUyOSwwLjgxNywyLjk2NC0wLjA0MSw0LjU0Ni0wLjQ3NmMyLjUyNC0wLjczNCwzLjkwMS0xLjQ4OSw2LjAyLTAuMTc5ICBjMC44MjUsMC41MSwxLjA1MywxLjYyOCwwLjQxLDIuMzMxYy0zLjEzNywzLjQyOC0xMC4xNzgsMS44ODUtNy4wODksNC45NzZjNC43NTIsNC43NTIsOC4xNjUsNy4zMzEsNi4yMTMsOS4yMzggIGMtMS40ODksMS40NTUtMy4yNTUtMC4xMzktNC45NTMtMS42NThjLTcuNTUzLTYuNzU4LTcuMTQ3LTguMDU5LTQuNjcxLDMuMTFjMS4wNTYsNC43Ni0zLjMwOCw2LjM4Mi00Ljg1Ni0wLjE0MSAgYy0yLjI2LTkuNTEyLTEuNzcyLTguNjkzLTYuNDMsMC4wNDdjLTAuMzAzLDAuNTY4LTAuNTQ1LDEuMTgtMC45MjEsMS42OTZjLTEuNDk4LDIuMDYyLTUuMDksMC4zODItMy44NDktMi4xNDcgIEMyOS43NTcsMzE2LjQ0MywzMS43NTUsMzE0LjAxOCwyOC4xNjgsMzE1LjU3MkwyOC4xNjgsMzE1LjU3MnoiLz4mI3hhOzxwYXRoIHN0eWxlPSJmaWxsOiNGRDhBMDI7IiBkPSJNNDEyLjIxLDE1Ny45NzZjMi42MDQtMS45MzcsNC43NTgtMy42OTgsNi44NjUtNC4yODNjMi4wOS0wLjU4MSwzLjU4LDEuOTk2LDIuMTg3LDMuNDE3ICBjLTIuMjc2LDIuMzI0LTcuMTAyLDQuNjA5LTYuODYzLDUuNDE0YzAuMTY1LDAuNTU3LDEuMjkxLDAuNTg4LDIuMDIxLDAuNjg2YzQuMDY2LDAuNTQ2LDYuNTksMC41NDMsOS4xODcsMS4zODIgIGMxLjk3MiwwLjYzNiwxLjI5MSwzLjkwMi0wLjUwNyw0LjA5N2MtMS43MzIsMC4xODgtMy41ODMtMC4yNTEtMTIuMzQyLTEuMTgyYy0yLjg5Ni0wLjMwOC0wLjk5NCwyLjI3NiwwLjcwMSw1LjY4MiAgYzAuOTYyLDEuOTMzLDEuNDQzLDQuNzk0LTAuNjA3LDUuNDQyYy0xLjY5NSwwLjUzNi0yLjUtMS4wMDctMy4zMzYtMi41NzFjLTQuNDI3LTguMjg1LTIuOS04LjI2Ny03LjI2LDIuMzE1ICBjLTAuODAxLDEuOTQzLTEuOTU1LDQuMjY0LTMuOTAxLDMuMzEyYy0yLjAzOS0wLjk5Ny0wLjg2OC0zLjExOSwwLjcwMS03LjUyN2MwLjIxNi0wLjYwNiwwLjU1NC0xLjMzOCwwLjkwMy0yLjA1NyAgYzAuNjUtMS4zMjYsMS4zOS0yLjcwNSwxLjM2OS00LjE3N2MtMS42NzYtMC40NDMtMi44NzUsMC43MjMtNC4zMTQsMS41MDljLTIuMjg4LDEuMjk1LTMuNDUzLDIuMzQ3LTUuODE3LDEuNTYgIGMtMC45MjEtMC4zMDctMS40LTEuMzQyLTAuOTM2LTIuMTc0YzIuMjY0LTQuMDU4LDkuNDcxLTQuMTc3LDUuNzUzLTYuNDc0Yy01LjcxOC0zLjUzMS05LjYzMy01LjI1NS04LjE3My03LjU2ICBjMS4xMTQtMS43NTgsMy4yLTAuNjE0LDUuMjAyLDAuNDczYzguOTA1LDQuODM5LDguODExLDYuMTk4LDMuODMtNC4xMDFjLTIuMTIzLTQuMzg5LDEuNzUtNi45NzIsNC43NTgtMC45OCAgYzQuMzg5LDguNzM3LDMuNzI2LDguMDUxLDYuMjQ3LTEuNTI2YzAuMTY0LTAuNjIzLDAuMjU5LTEuMjc0LDAuNTA1LTEuODYzYzAuOTgzLTIuMzUxLDQuODY1LTEuNTQzLDQuMjQsMS4yMDQgIEM0MTAuNDYzLDE1Ny40OTUsNDA5LjA3NywxNjAuMzE1LDQxMi4yMSwxNTcuOTc2TDQxMi4yMSwxNTcuOTc2eiIvPiYjeGE7PHBhdGggc3R5bGU9ImZpbGw6I0ZEOEEwMjsiIGQ9Ik00ODcuMTA2LDExNC42OThjMi4yMywxLjkyMSw0LjIxNiwzLjQ3OSw1LjE1Miw1LjIyOGMwLjkyOSwxLjczNS0xLjA1OCwzLjU2NC0yLjU5MiwyLjYxMyAgYy0yLjUwOC0xLjU1NC01LjQ4Ny01LjM3My02LjE1Mi01LjAwMmMtMC40NiwwLjI1Ny0wLjI2NSwxLjI1OS0wLjIwNywxLjkyNWMwLjMyMywzLjcwNywwLjgyNSw1Ljk0MSwwLjU5OCw4LjQwNiAgYy0wLjE3MiwxLjg3MS0zLjE5OCwxLjkxNi0zLjcyNywwLjM2NGMtMC41MS0xLjQ5Ni0wLjQ4OC0zLjIyMi0xLjM5OS0xMS4xNTljLTAuMzAxLTIuNjI1LTIuMjEyLTAuNDI5LTQuODkxLDEuNzQ3ICBjLTEuNTIxLDEuMjM1LTMuOTU4LDIuMjI3LTQuOTM4LDAuNTQxYy0wLjgxLTEuMzk0LDAuMzk2LTIuNDEyLDEuNjE1LTMuNDYzYzYuNDU2LTUuNTYsNi43NDMtNC4yMDUtMy40ODctNS45NjggIGMtMS44NzktMC4zMjQtNC4xNjItMC44ODUtMy43MDUtMi43OTdjMC40NzktMi4wMDIsMi41ODktMS4zODYsNi44MDEtMC44NzFjMC41NzksMC4wNzEsMS4yOTUsMC4yMjUsMiwwLjM5MiAgYzEuMzAzLDAuMzEzLDIuNjcsMC42OTUsMy45NjksMC4zODRjMC4wNi0xLjU3MS0xLjIwOS0yLjQwMS0yLjE5MS0zLjUyYy0xLjYtMS43NjgtMi43NjItMi41OTEtMi41MzQtNC44NCAgYzAuMDg5LTAuODc2LDAuOTEtMS41MDUsMS43MzgtMS4yNTljNC4wNCwxLjIsNS41NzQsNy41NTUsNi44NzEsMy44MWMxLjk5My01Ljc2MSwyLjc0Mi05LjU2OCw1LjA3Mi04LjczMiAgYzEuNzc3LDAuNjM3LDEuMTc3LDIuNzExLDAuNjEyLDQuNjk4Yy0yLjUxOCw4Ljg0Mi0zLjc0LDkuMDI3LDQuMzg5LDIuNTc3YzMuNDY0LTIuNzQ5LDYuNTE4LDAuMTY3LDEuODExLDQuMDE4ICBjLTYuODY0LDUuNjE2LTYuMzg4LDQuODkzLDIuNTg5LDUuMjI3YzAuNTg0LDAuMDIyLDEuMTc5LTAuMDIzLDEuNzQ5LDAuMDc4YzIuMjc2LDAuNDA0LDIuMzMsNC4wMDEtMC4yMjUsMy45OTEgIEM0ODcuMTg2LDExMy4wNTcsNDg0LjQxNSwxMTIuMzg4LDQ4Ny4xMDYsMTE0LjY5OEw0ODcuMTA2LDExNC42OTh6Ii8+JiN4YTs8cGF0aCBzdHlsZT0iZmlsbDojRkQ4QTAyOyIgZD0iTTQwNS4zNzIsNzEuMmMtMy4xMjktMC44NjEtNS44NDMtMS40NzYtNy42LTIuNzc2Yy0xLjc0NC0xLjI5LTAuNjI5LTQuMDUsMS4zNDgtMy44MjcgIGMzLjIzMywwLjM2NCw4LjAwMywyLjc2Myw4LjQ5LDIuMDc5YzAuMzM3LTAuNDczLTAuMzMxLTEuMzc5LTAuNzAzLTIuMDE2Yy0yLjA3Mi0zLjU0MS0zLjYyNy01LjUyOS00LjU2NC04LjA5MiAgYy0wLjcxMi0xLjk0NiwyLjI4Mi0zLjQxOCwzLjU0MS0yLjEyMmMxLjIxNCwxLjI1LDIuMDA3LDIuOTc5LDYuNjYyLDEwLjQ1NmMxLjU0LDIuNDcyLDIuNDA2LTAuNjE3LDQuMDQ4LTQuMDQ5ICBjMC45MzItMS45NDgsMi44OTItNC4wODcsNC42NjMtMi44N2MxLjQ2NiwxLjAwNiwwLjc0NSwyLjU5LDAuMDI2LDQuMjEyYy0zLjgwNyw4LjU4OC00LjczMiw3LjM3Miw2LjI5Miw0LjI5OCAgYzIuMDI1LTAuNTY0LDQuNTY0LTEuMDgzLDUuMDExLDEuMDM3YzAuNDY4LDIuMjIxLTEuOTI1LDIuNjAzLTYuMzY1LDQuMDc5Yy0wLjYxMSwwLjIwMy0xLjM5NiwwLjM4Ny0yLjE3NywwLjU1NCAgYy0xLjQ0NSwwLjMwMy0yLjk4OCwwLjU2OS00LjEzNSwxLjQ5MWMwLjY4MiwxLjU5NCwyLjMzOSwxLjgyMSwzLjg0NCwyLjQ3MmMyLjQyOCwxLjAwNiwzLjk3NSwxLjI3OCw0LjgxLDMuNjI1ICBjMC4zMjUsMC45MTQtMC4xOTYsMS45MjktMS4xMzcsMi4wNzVjLTQuNTkxLDAuNzEzLTkuMTItNC44OTUtOC42NDMtMC41NTJjMC43MzUsNi42OCwxLjc4NSwxMC44MjctMC45MywxMS4wOTQgIGMtMi4wNzIsMC4yMDQtMi40NTMtMi4xNDUtMi44MjgtNC4zOTFjLTEuNjY2LTkuOTk3LTAuNTM2LTEwLjc1OS01LjU5LTAuNDk1Yy0yLjE1NCw0LjM3NC02LjU3MiwyLjkxMS0zLjcwMS0zLjE0NyAgYzQuMTg2LTguODM2LDQuMDU0LTcuODkxLTUuMDQ3LTMuOTg1Yy0wLjU5MiwwLjI1NC0xLjE2NCwwLjU4LTEuNzc5LDAuNzQ4Yy0yLjQ1OCwwLjY3Mi00LjIxLTIuODg1LTEuNjYtNC4wODMgIEM0MDYuMDY3LDcyLjg3Myw0MDkuMTQ0LDcyLjIzMSw0MDUuMzcyLDcxLjJMNDA1LjM3Miw3MS4yeiIvPiYjeGE7JiN4YTsmI3hhOyYjeGE7JiN4YTsmI3hhOyYjeGE7JiN4YTsmI3hhOyYjeGE7JiN4YTsmI3hhOyYjeGE7JiN4YTsmI3hhOyYjeGE7PC9zdmc+;" vertex="1" parent="1">
                    <mxGeometry x="660" y="270" width="167.15" height="140.05" as="geometry"/>
                </mxCell>
                <mxCell id="22" value="需求" style="text;html=1;strokeColor=none;fillColor=none;align=center;verticalAlign=middle;whiteSpace=wrap;rounded=0;sketch=0;fontColor=#000000;" vertex="1" parent="1">
                    <mxGeometry x="80" y="460" width="60" height="30" as="geometry"/>
                </mxCell>
                <mxCell id="23" value="产品" style="text;html=1;strokeColor=none;fillColor=none;align=center;verticalAlign=middle;whiteSpace=wrap;rounded=0;sketch=0;fontColor=#000000;" vertex="1" parent="1">
                    <mxGeometry x="713.57" y="210" width="60" height="30" as="geometry"/>
                </mxCell>
            </root>
        </mxGraphModel>
    </diagram>
</mxfile>